SplineFontDB: 3.2
FontName: Atari-822-Thermal
FullName: Atari 822 Thermal Regular
FamilyName: Atari 822 Thermal
Weight: Book
Copyright: Copyright Jeff Piepmeier 2020
Version: 1.0
ItalicAngle: 0
UnderlinePosition: 74
UnderlineWidth: 49
Ascent: 800
Descent: 200
InvalidEm: 0
sfntRevision: 0x00010000
LayerCount: 2
Layer: 0 1 "Back" 1
Layer: 1 1 "Fore" 0
XUID: [1021 362 -792500644 25542]
StyleMap: 0x0040
FSType: 4
OS2Version: 2
OS2_WeightWidthSlopeOnly: 0
OS2_UseTypoMetrics: 0
CreationTime: 1585962400
ModificationTime: 1589027287
PfmFamily: 81
TTFWeight: 400
TTFWidth: 5
LineGap: 0
VLineGap: 0
Panose: 0 0 4 0 0 0 0 0 0 0
OS2TypoAscent: 1000
OS2TypoAOffset: 0
OS2TypoDescent: 0
OS2TypoDOffset: 0
OS2TypoLinegap: 0
OS2WinAscent: 1000
OS2WinAOffset: 0
OS2WinDescent: 0
OS2WinDOffset: 0
HheadAscent: 1000
HheadAOffset: 0
HheadDescent: 0
HheadDOffset: 0
OS2SubXSize: 500
OS2SubYSize: 500
OS2SubXOff: 0
OS2SubYOff: 0
OS2SupXSize: 500
OS2SupYSize: 500
OS2SupXOff: 0
OS2SupYOff: 500
OS2StrikeYSize: 50
OS2StrikeYPos: 200
OS2CapHeight: 986
OS2XHeight: 700
OS2Vendor: 'FSTR'
OS2CodePages: 00000001.00000000
OS2UnicodeRanges: 00000001.00000000.00000000.00000000
MarkAttachClasses: 1
DEI: 91125
ShortTable: maxp 16
  1
  0
  98
  80
  20
  0
  0
  2
  0
  0
  0
  0
  0
  0
  0
  0
EndShort
LangName: 1033 "" "" "Regular" "Atari 822 Thermal" "" "Version 1.0" "" "" "" "" "" "" "" "Open Font License" "" "" "" "" "" "Five big quacking zephyrs jolt my wax bed"
Encoding: UnicodeBmp
UnicodeInterp: none
NameList: AGL For New Fonts
DisplaySize: -48
AntiAlias: 1
FitToEm: 0
WinInfo: 64 16 10
BeginPrivate: 0
EndPrivate
BeginChars: 65539 95

StartChar: exclam
Encoding: 33 33 1
Width: 600
VWidth: 699
Flags: W
LayerCount: 2
Fore
SplineSet
200 0 m 1,0,-1
 200 90 l 1,1,-1
 290 90 l 1,2,-1
 290 0 l 1,3,-1
 200 0 l 1,0,-1
200 200 m 1,4,-1
 200 290 l 1,5,-1
 290 290 l 1,6,-1
 290 200 l 1,7,-1
 200 200 l 1,4,-1
200 300 m 1,8,-1
 200 390 l 1,9,-1
 290 390 l 1,10,-1
 290 300 l 1,11,-1
 200 300 l 1,8,-1
200 400 m 1,12,-1
 200 490 l 1,13,-1
 290 490 l 1,14,-1
 290 400 l 1,15,-1
 200 400 l 1,12,-1
200 500 m 1,16,-1
 200 590 l 1,17,-1
 290 590 l 1,18,-1
 290 500 l 1,19,-1
 200 500 l 1,16,-1
200 600 m 1,20,-1
 200 690 l 1,21,-1
 290 690 l 1,22,-1
 290 600 l 1,23,-1
 200 600 l 1,20,-1
EndSplineSet
Validated: 1
EndChar

StartChar: quotedbl
Encoding: 34 34 2
Width: 600
VWidth: 699
Flags: W
LayerCount: 2
Fore
SplineSet
100 400 m 1,0,-1
 100 490 l 1,1,-1
 190 490 l 1,2,-1
 190 400 l 1,3,-1
 100 400 l 1,0,-1
300 400 m 1,4,-1
 300 490 l 1,5,-1
 390 490 l 1,6,-1
 390 400 l 1,7,-1
 300 400 l 1,4,-1
100 500 m 1,8,-1
 100 590 l 1,9,-1
 190 590 l 1,10,-1
 190 500 l 1,11,-1
 100 500 l 1,8,-1
300 500 m 1,12,-1
 300 590 l 1,13,-1
 390 590 l 1,14,-1
 390 500 l 1,15,-1
 300 500 l 1,12,-1
100 600 m 1,16,-1
 100 690 l 1,17,-1
 190 690 l 1,18,-1
 190 600 l 1,19,-1
 100 600 l 1,16,-1
300 600 m 1,20,-1
 300 690 l 1,21,-1
 390 690 l 1,22,-1
 390 600 l 1,23,-1
 300 600 l 1,20,-1
EndSplineSet
Validated: 1
EndChar

StartChar: numbersign
Encoding: 35 35 3
Width: 600
VWidth: 699
Flags: W
LayerCount: 2
Fore
SplineSet
100 0 m 1,0,-1
 100 90 l 1,1,-1
 190 90 l 1,2,-1
 190 0 l 1,3,-1
 100 0 l 1,0,-1
300 0 m 1,4,-1
 300 90 l 1,5,-1
 390 90 l 1,6,-1
 390 0 l 1,7,-1
 300 0 l 1,4,-1
100 100 m 1,8,-1
 100 190 l 1,9,-1
 190 190 l 1,10,-1
 190 100 l 1,11,-1
 100 100 l 1,8,-1
300 100 m 1,12,-1
 300 190 l 1,13,-1
 390 190 l 1,14,-1
 390 100 l 1,15,-1
 300 100 l 1,12,-1
0 200 m 1,16,-1
 0 290 l 1,17,-1
 90 290 l 1,18,-1
 90 200 l 1,19,-1
 0 200 l 1,16,-1
100 200 m 1,20,-1
 100 290 l 1,21,-1
 190 290 l 1,22,-1
 190 200 l 1,23,-1
 100 200 l 1,20,-1
200 200 m 1,24,-1
 200 290 l 1,25,-1
 290 290 l 1,26,-1
 290 200 l 1,27,-1
 200 200 l 1,24,-1
300 200 m 1,28,-1
 300 290 l 1,29,-1
 390 290 l 1,30,-1
 390 200 l 1,31,-1
 300 200 l 1,28,-1
400 200 m 1,32,-1
 400 290 l 1,33,-1
 490 290 l 1,34,-1
 490 200 l 1,35,-1
 400 200 l 1,32,-1
100 300 m 1,36,-1
 100 390 l 1,37,-1
 190 390 l 1,38,-1
 190 300 l 1,39,-1
 100 300 l 1,36,-1
300 300 m 1,40,-1
 300 390 l 1,41,-1
 390 390 l 1,42,-1
 390 300 l 1,43,-1
 300 300 l 1,40,-1
0 400 m 1,44,-1
 0 490 l 1,45,-1
 90 490 l 1,46,-1
 90 400 l 1,47,-1
 0 400 l 1,44,-1
100 400 m 1,48,-1
 100 490 l 1,49,-1
 190 490 l 1,50,-1
 190 400 l 1,51,-1
 100 400 l 1,48,-1
200 400 m 1,52,-1
 200 490 l 1,53,-1
 290 490 l 1,54,-1
 290 400 l 1,55,-1
 200 400 l 1,52,-1
300 400 m 1,56,-1
 300 490 l 1,57,-1
 390 490 l 1,58,-1
 390 400 l 1,59,-1
 300 400 l 1,56,-1
400 400 m 1,60,-1
 400 490 l 1,61,-1
 490 490 l 1,62,-1
 490 400 l 1,63,-1
 400 400 l 1,60,-1
100 500 m 1,64,-1
 100 590 l 1,65,-1
 190 590 l 1,66,-1
 190 500 l 1,67,-1
 100 500 l 1,64,-1
300 500 m 1,68,-1
 300 590 l 1,69,-1
 390 590 l 1,70,-1
 390 500 l 1,71,-1
 300 500 l 1,68,-1
100 600 m 1,72,-1
 100 690 l 1,73,-1
 190 690 l 1,74,-1
 190 600 l 1,75,-1
 100 600 l 1,72,-1
300 600 m 1,76,-1
 300 690 l 1,77,-1
 390 690 l 1,78,-1
 390 600 l 1,79,-1
 300 600 l 1,76,-1
EndSplineSet
Validated: 1
EndChar

StartChar: dollar
Encoding: 36 36 4
Width: 600
VWidth: 699
Flags: W
LayerCount: 2
Fore
SplineSet
200 0 m 1,0,-1
 200 90 l 1,1,-1
 290 90 l 1,2,-1
 290 0 l 1,3,-1
 200 0 l 1,0,-1
0 100 m 1,4,-1
 0 190 l 1,5,-1
 90 190 l 1,6,-1
 90 100 l 1,7,-1
 0 100 l 1,4,-1
100 100 m 1,8,-1
 100 190 l 1,9,-1
 190 190 l 1,10,-1
 190 100 l 1,11,-1
 100 100 l 1,8,-1
200 100 m 1,12,-1
 200 190 l 1,13,-1
 290 190 l 1,14,-1
 290 100 l 1,15,-1
 200 100 l 1,12,-1
300 100 m 1,16,-1
 300 190 l 1,17,-1
 390 190 l 1,18,-1
 390 100 l 1,19,-1
 300 100 l 1,16,-1
200 200 m 1,20,-1
 200 290 l 1,21,-1
 290 290 l 1,22,-1
 290 200 l 1,23,-1
 200 200 l 1,20,-1
400 200 m 1,24,-1
 400 290 l 1,25,-1
 490 290 l 1,26,-1
 490 200 l 1,27,-1
 400 200 l 1,24,-1
100 300 m 1,28,-1
 100 390 l 1,29,-1
 190 390 l 1,30,-1
 190 300 l 1,31,-1
 100 300 l 1,28,-1
200 300 m 1,32,-1
 200 390 l 1,33,-1
 290 390 l 1,34,-1
 290 300 l 1,35,-1
 200 300 l 1,32,-1
300 300 m 1,36,-1
 300 390 l 1,37,-1
 390 390 l 1,38,-1
 390 300 l 1,39,-1
 300 300 l 1,36,-1
0 400 m 1,40,-1
 0 490 l 1,41,-1
 90 490 l 1,42,-1
 90 400 l 1,43,-1
 0 400 l 1,40,-1
200 400 m 1,44,-1
 200 490 l 1,45,-1
 290 490 l 1,46,-1
 290 400 l 1,47,-1
 200 400 l 1,44,-1
100 500 m 1,48,-1
 100 590 l 1,49,-1
 190 590 l 1,50,-1
 190 500 l 1,51,-1
 100 500 l 1,48,-1
200 500 m 1,52,-1
 200 590 l 1,53,-1
 290 590 l 1,54,-1
 290 500 l 1,55,-1
 200 500 l 1,52,-1
300 500 m 1,56,-1
 300 590 l 1,57,-1
 390 590 l 1,58,-1
 390 500 l 1,59,-1
 300 500 l 1,56,-1
400 500 m 1,60,-1
 400 590 l 1,61,-1
 490 590 l 1,62,-1
 490 500 l 1,63,-1
 400 500 l 1,60,-1
200 600 m 1,64,-1
 200 690 l 1,65,-1
 290 690 l 1,66,-1
 290 600 l 1,67,-1
 200 600 l 1,64,-1
EndSplineSet
Validated: 1
EndChar

StartChar: percent
Encoding: 37 37 5
Width: 600
VWidth: 699
Flags: W
LayerCount: 2
Fore
SplineSet
300 0 m 1,0,-1
 300 90 l 1,1,-1
 390 90 l 1,2,-1
 390 0 l 1,3,-1
 300 0 l 1,0,-1
400 0 m 1,4,-1
 400 90 l 1,5,-1
 490 90 l 1,6,-1
 490 0 l 1,7,-1
 400 0 l 1,4,-1
0 100 m 1,8,-1
 0 190 l 1,9,-1
 90 190 l 1,10,-1
 90 100 l 1,11,-1
 0 100 l 1,8,-1
300 100 m 1,12,-1
 300 190 l 1,13,-1
 390 190 l 1,14,-1
 390 100 l 1,15,-1
 300 100 l 1,12,-1
400 100 m 1,16,-1
 400 190 l 1,17,-1
 490 190 l 1,18,-1
 490 100 l 1,19,-1
 400 100 l 1,16,-1
100 200 m 1,20,-1
 100 290 l 1,21,-1
 190 290 l 1,22,-1
 190 200 l 1,23,-1
 100 200 l 1,20,-1
200 300 m 1,24,-1
 200 390 l 1,25,-1
 290 390 l 1,26,-1
 290 300 l 1,27,-1
 200 300 l 1,24,-1
300 400 m 1,28,-1
 300 490 l 1,29,-1
 390 490 l 1,30,-1
 390 400 l 1,31,-1
 300 400 l 1,28,-1
0 500 m 1,32,-1
 0 590 l 1,33,-1
 90 590 l 1,34,-1
 90 500 l 1,35,-1
 0 500 l 1,32,-1
100 500 m 1,36,-1
 100 590 l 1,37,-1
 190 590 l 1,38,-1
 190 500 l 1,39,-1
 100 500 l 1,36,-1
400 500 m 1,40,-1
 400 590 l 1,41,-1
 490 590 l 1,42,-1
 490 500 l 1,43,-1
 400 500 l 1,40,-1
0 600 m 1,44,-1
 0 690 l 1,45,-1
 90 690 l 1,46,-1
 90 600 l 1,47,-1
 0 600 l 1,44,-1
100 600 m 1,48,-1
 100 690 l 1,49,-1
 190 690 l 1,50,-1
 190 600 l 1,51,-1
 100 600 l 1,48,-1
EndSplineSet
Validated: 1
EndChar

StartChar: ampersand
Encoding: 38 38 6
Width: 600
VWidth: 699
Flags: W
LayerCount: 2
Fore
SplineSet
100 0 m 1,0,-1
 100 90 l 1,1,-1
 190 90 l 1,2,-1
 190 0 l 1,3,-1
 100 0 l 1,0,-1
200 0 m 1,4,-1
 200 90 l 1,5,-1
 290 90 l 1,6,-1
 290 0 l 1,7,-1
 200 0 l 1,4,-1
400 0 m 1,8,-1
 400 90 l 1,9,-1
 490 90 l 1,10,-1
 490 0 l 1,11,-1
 400 0 l 1,8,-1
0 100 m 1,12,-1
 0 190 l 1,13,-1
 90 190 l 1,14,-1
 90 100 l 1,15,-1
 0 100 l 1,12,-1
300 100 m 1,16,-1
 300 190 l 1,17,-1
 390 190 l 1,18,-1
 390 100 l 1,19,-1
 300 100 l 1,16,-1
0 200 m 1,20,-1
 0 290 l 1,21,-1
 90 290 l 1,22,-1
 90 200 l 1,23,-1
 0 200 l 1,20,-1
200 200 m 1,24,-1
 200 290 l 1,25,-1
 290 290 l 1,26,-1
 290 200 l 1,27,-1
 200 200 l 1,24,-1
400 200 m 1,28,-1
 400 290 l 1,29,-1
 490 290 l 1,30,-1
 490 200 l 1,31,-1
 400 200 l 1,28,-1
100 300 m 1,32,-1
 100 390 l 1,33,-1
 190 390 l 1,34,-1
 190 300 l 1,35,-1
 100 300 l 1,32,-1
0 400 m 1,36,-1
 0 490 l 1,37,-1
 90 490 l 1,38,-1
 90 400 l 1,39,-1
 0 400 l 1,36,-1
200 400 m 1,40,-1
 200 490 l 1,41,-1
 290 490 l 1,42,-1
 290 400 l 1,43,-1
 200 400 l 1,40,-1
0 500 m 1,44,-1
 0 590 l 1,45,-1
 90 590 l 1,46,-1
 90 500 l 1,47,-1
 0 500 l 1,44,-1
200 500 m 1,48,-1
 200 590 l 1,49,-1
 290 590 l 1,50,-1
 290 500 l 1,51,-1
 200 500 l 1,48,-1
100 600 m 1,52,-1
 100 690 l 1,53,-1
 190 690 l 1,54,-1
 190 600 l 1,55,-1
 100 600 l 1,52,-1
EndSplineSet
Validated: 1
EndChar

StartChar: quotesingle
Encoding: 39 39 7
Width: 600
VWidth: 699
Flags: W
LayerCount: 2
Fore
SplineSet
200 400 m 1,0,-1
 200 490 l 1,1,-1
 290 490 l 1,2,-1
 290 400 l 1,3,-1
 200 400 l 1,0,-1
200 500 m 1,4,-1
 200 590 l 1,5,-1
 290 590 l 1,6,-1
 290 500 l 1,7,-1
 200 500 l 1,4,-1
200 600 m 1,8,-1
 200 690 l 1,9,-1
 290 690 l 1,10,-1
 290 600 l 1,11,-1
 200 600 l 1,8,-1
EndSplineSet
Validated: 1
EndChar

StartChar: parenleft
Encoding: 40 40 8
Width: 600
VWidth: 699
Flags: W
LayerCount: 2
Fore
SplineSet
200 0 m 1,0,-1
 200 90 l 1,1,-1
 290 90 l 1,2,-1
 290 0 l 1,3,-1
 200 0 l 1,0,-1
100 100 m 1,4,-1
 100 190 l 1,5,-1
 190 190 l 1,6,-1
 190 100 l 1,7,-1
 100 100 l 1,4,-1
0 200 m 1,8,-1
 0 290 l 1,9,-1
 90 290 l 1,10,-1
 90 200 l 1,11,-1
 0 200 l 1,8,-1
0 300 m 1,12,-1
 0 390 l 1,13,-1
 90 390 l 1,14,-1
 90 300 l 1,15,-1
 0 300 l 1,12,-1
0 400 m 1,16,-1
 0 490 l 1,17,-1
 90 490 l 1,18,-1
 90 400 l 1,19,-1
 0 400 l 1,16,-1
100 500 m 1,20,-1
 100 590 l 1,21,-1
 190 590 l 1,22,-1
 190 500 l 1,23,-1
 100 500 l 1,20,-1
200 600 m 1,24,-1
 200 690 l 1,25,-1
 290 690 l 1,26,-1
 290 600 l 1,27,-1
 200 600 l 1,24,-1
EndSplineSet
Validated: 1
EndChar

StartChar: parenright
Encoding: 41 41 9
Width: 600
VWidth: 699
Flags: W
LayerCount: 2
Fore
SplineSet
0 0 m 1,0,-1
 0 90 l 1,1,-1
 90 90 l 1,2,-1
 90 0 l 1,3,-1
 0 0 l 1,0,-1
100 100 m 1,4,-1
 100 190 l 1,5,-1
 190 190 l 1,6,-1
 190 100 l 1,7,-1
 100 100 l 1,4,-1
200 200 m 1,8,-1
 200 290 l 1,9,-1
 290 290 l 1,10,-1
 290 200 l 1,11,-1
 200 200 l 1,8,-1
200 300 m 1,12,-1
 200 390 l 1,13,-1
 290 390 l 1,14,-1
 290 300 l 1,15,-1
 200 300 l 1,12,-1
200 400 m 1,16,-1
 200 490 l 1,17,-1
 290 490 l 1,18,-1
 290 400 l 1,19,-1
 200 400 l 1,16,-1
100 500 m 1,20,-1
 100 590 l 1,21,-1
 190 590 l 1,22,-1
 190 500 l 1,23,-1
 100 500 l 1,20,-1
0 600 m 1,24,-1
 0 690 l 1,25,-1
 90 690 l 1,26,-1
 90 600 l 1,27,-1
 0 600 l 1,24,-1
EndSplineSet
Validated: 1
EndChar

StartChar: asterisk
Encoding: 42 42 10
Width: 600
VWidth: 699
Flags: W
LayerCount: 2
Fore
SplineSet
200 0 m 1,0,-1
 200 90 l 1,1,-1
 290 90 l 1,2,-1
 290 0 l 1,3,-1
 200 0 l 1,0,-1
0 100 m 1,4,-1
 0 190 l 1,5,-1
 90 190 l 1,6,-1
 90 100 l 1,7,-1
 0 100 l 1,4,-1
200 100 m 1,8,-1
 200 190 l 1,9,-1
 290 190 l 1,10,-1
 290 100 l 1,11,-1
 200 100 l 1,8,-1
400 100 m 1,12,-1
 400 190 l 1,13,-1
 490 190 l 1,14,-1
 490 100 l 1,15,-1
 400 100 l 1,12,-1
100 200 m 1,16,-1
 100 290 l 1,17,-1
 190 290 l 1,18,-1
 190 200 l 1,19,-1
 100 200 l 1,16,-1
300 200 m 1,20,-1
 300 290 l 1,21,-1
 390 290 l 1,22,-1
 390 200 l 1,23,-1
 300 200 l 1,20,-1
200 300 m 1,24,-1
 200 390 l 1,25,-1
 290 390 l 1,26,-1
 290 300 l 1,27,-1
 200 300 l 1,24,-1
100 400 m 1,28,-1
 100 490 l 1,29,-1
 190 490 l 1,30,-1
 190 400 l 1,31,-1
 100 400 l 1,28,-1
300 400 m 1,32,-1
 300 490 l 1,33,-1
 390 490 l 1,34,-1
 390 400 l 1,35,-1
 300 400 l 1,32,-1
0 500 m 1,36,-1
 0 590 l 1,37,-1
 90 590 l 1,38,-1
 90 500 l 1,39,-1
 0 500 l 1,36,-1
200 500 m 1,40,-1
 200 590 l 1,41,-1
 290 590 l 1,42,-1
 290 500 l 1,43,-1
 200 500 l 1,40,-1
400 500 m 1,44,-1
 400 590 l 1,45,-1
 490 590 l 1,46,-1
 490 500 l 1,47,-1
 400 500 l 1,44,-1
200 600 m 1,48,-1
 200 690 l 1,49,-1
 290 690 l 1,50,-1
 290 600 l 1,51,-1
 200 600 l 1,48,-1
EndSplineSet
Validated: 1
EndChar

StartChar: plus
Encoding: 43 43 11
Width: 600
VWidth: 699
Flags: W
LayerCount: 2
Fore
SplineSet
200 100 m 1,0,-1
 200 190 l 1,1,-1
 290 190 l 1,2,-1
 290 100 l 1,3,-1
 200 100 l 1,0,-1
200 200 m 1,4,-1
 200 290 l 1,5,-1
 290 290 l 1,6,-1
 290 200 l 1,7,-1
 200 200 l 1,4,-1
0 300 m 1,8,-1
 0 390 l 1,9,-1
 90 390 l 1,10,-1
 90 300 l 1,11,-1
 0 300 l 1,8,-1
100 300 m 1,12,-1
 100 390 l 1,13,-1
 190 390 l 1,14,-1
 190 300 l 1,15,-1
 100 300 l 1,12,-1
200 300 m 1,16,-1
 200 390 l 1,17,-1
 290 390 l 1,18,-1
 290 300 l 1,19,-1
 200 300 l 1,16,-1
300 300 m 1,20,-1
 300 390 l 1,21,-1
 390 390 l 1,22,-1
 390 300 l 1,23,-1
 300 300 l 1,20,-1
400 300 m 1,24,-1
 400 390 l 1,25,-1
 490 390 l 1,26,-1
 490 300 l 1,27,-1
 400 300 l 1,24,-1
200 400 m 1,28,-1
 200 490 l 1,29,-1
 290 490 l 1,30,-1
 290 400 l 1,31,-1
 200 400 l 1,28,-1
200 500 m 1,32,-1
 200 590 l 1,33,-1
 290 590 l 1,34,-1
 290 500 l 1,35,-1
 200 500 l 1,32,-1
EndSplineSet
Validated: 1
EndChar

StartChar: comma
Encoding: 44 44 12
Width: 600
VWidth: 699
Flags: W
LayerCount: 2
Fore
SplineSet
0 0 m 1,0,-1
 0 90 l 1,1,-1
 90 90 l 1,2,-1
 90 0 l 1,3,-1
 0 0 l 1,0,-1
100 0 m 1,4,-1
 100 90 l 1,5,-1
 190 90 l 1,6,-1
 190 0 l 1,7,-1
 100 0 l 1,4,-1
100 100 m 1,8,-1
 100 190 l 1,9,-1
 190 190 l 1,10,-1
 190 100 l 1,11,-1
 100 100 l 1,8,-1
200 100 m 1,12,-1
 200 190 l 1,13,-1
 290 190 l 1,14,-1
 290 100 l 1,15,-1
 200 100 l 1,12,-1
100 200 m 1,16,-1
 100 290 l 1,17,-1
 190 290 l 1,18,-1
 190 200 l 1,19,-1
 100 200 l 1,16,-1
200 200 m 1,20,-1
 200 290 l 1,21,-1
 290 290 l 1,22,-1
 290 200 l 1,23,-1
 200 200 l 1,20,-1
EndSplineSet
Validated: 1
EndChar

StartChar: hyphen
Encoding: 45 45 13
Width: 600
VWidth: 699
Flags: W
LayerCount: 2
Fore
SplineSet
0 300 m 1,0,-1
 0 390 l 1,1,-1
 90 390 l 1,2,-1
 90 300 l 1,3,-1
 0 300 l 1,0,-1
100 300 m 1,4,-1
 100 390 l 1,5,-1
 190 390 l 1,6,-1
 190 300 l 1,7,-1
 100 300 l 1,4,-1
200 300 m 1,8,-1
 200 390 l 1,9,-1
 290 390 l 1,10,-1
 290 300 l 1,11,-1
 200 300 l 1,8,-1
300 300 m 1,12,-1
 300 390 l 1,13,-1
 390 390 l 1,14,-1
 390 300 l 1,15,-1
 300 300 l 1,12,-1
400 300 m 1,16,-1
 400 390 l 1,17,-1
 490 390 l 1,18,-1
 490 300 l 1,19,-1
 400 300 l 1,16,-1
EndSplineSet
Validated: 1
EndChar

StartChar: period
Encoding: 46 46 14
Width: 600
VWidth: 699
Flags: W
LayerCount: 2
Fore
SplineSet
0 0 m 1,0,-1
 0 90 l 1,1,-1
 90 90 l 1,2,-1
 90 0 l 1,3,-1
 0 0 l 1,0,-1
100 0 m 1,4,-1
 100 90 l 1,5,-1
 190 90 l 1,6,-1
 190 0 l 1,7,-1
 100 0 l 1,4,-1
0 100 m 1,8,-1
 0 190 l 1,9,-1
 90 190 l 1,10,-1
 90 100 l 1,11,-1
 0 100 l 1,8,-1
100 100 m 1,12,-1
 100 190 l 1,13,-1
 190 190 l 1,14,-1
 190 100 l 1,15,-1
 100 100 l 1,12,-1
EndSplineSet
Validated: 1
EndChar

StartChar: slash
Encoding: 47 47 15
Width: 600
VWidth: 699
Flags: W
LayerCount: 2
Fore
SplineSet
0 100 m 1,0,-1
 0 190 l 1,1,-1
 90 190 l 1,2,-1
 90 100 l 1,3,-1
 0 100 l 1,0,-1
100 200 m 1,4,-1
 100 290 l 1,5,-1
 190 290 l 1,6,-1
 190 200 l 1,7,-1
 100 200 l 1,4,-1
200 300 m 1,8,-1
 200 390 l 1,9,-1
 290 390 l 1,10,-1
 290 300 l 1,11,-1
 200 300 l 1,8,-1
300 400 m 1,12,-1
 300 490 l 1,13,-1
 390 490 l 1,14,-1
 390 400 l 1,15,-1
 300 400 l 1,12,-1
400 500 m 1,16,-1
 400 590 l 1,17,-1
 490 590 l 1,18,-1
 490 500 l 1,19,-1
 400 500 l 1,16,-1
EndSplineSet
Validated: 1
EndChar

StartChar: zero
Encoding: 48 48 16
Width: 600
VWidth: 699
Flags: W
LayerCount: 2
Fore
SplineSet
100 0 m 1,0,-1
 100 90 l 1,1,-1
 190 90 l 1,2,-1
 190 0 l 1,3,-1
 100 0 l 1,0,-1
200 0 m 1,4,-1
 200 90 l 1,5,-1
 290 90 l 1,6,-1
 290 0 l 1,7,-1
 200 0 l 1,4,-1
300 0 m 1,8,-1
 300 90 l 1,9,-1
 390 90 l 1,10,-1
 390 0 l 1,11,-1
 300 0 l 1,8,-1
0 100 m 1,12,-1
 0 190 l 1,13,-1
 90 190 l 1,14,-1
 90 100 l 1,15,-1
 0 100 l 1,12,-1
400 100 m 1,16,-1
 400 190 l 1,17,-1
 490 190 l 1,18,-1
 490 100 l 1,19,-1
 400 100 l 1,16,-1
0 200 m 1,20,-1
 0 290 l 1,21,-1
 90 290 l 1,22,-1
 90 200 l 1,23,-1
 0 200 l 1,20,-1
100 200 m 1,24,-1
 100 290 l 1,25,-1
 190 290 l 1,26,-1
 190 200 l 1,27,-1
 100 200 l 1,24,-1
400 200 m 1,28,-1
 400 290 l 1,29,-1
 490 290 l 1,30,-1
 490 200 l 1,31,-1
 400 200 l 1,28,-1
0 300 m 1,32,-1
 0 390 l 1,33,-1
 90 390 l 1,34,-1
 90 300 l 1,35,-1
 0 300 l 1,32,-1
200 300 m 1,36,-1
 200 390 l 1,37,-1
 290 390 l 1,38,-1
 290 300 l 1,39,-1
 200 300 l 1,36,-1
400 300 m 1,40,-1
 400 390 l 1,41,-1
 490 390 l 1,42,-1
 490 300 l 1,43,-1
 400 300 l 1,40,-1
0 400 m 1,44,-1
 0 490 l 1,45,-1
 90 490 l 1,46,-1
 90 400 l 1,47,-1
 0 400 l 1,44,-1
300 400 m 1,48,-1
 300 490 l 1,49,-1
 390 490 l 1,50,-1
 390 400 l 1,51,-1
 300 400 l 1,48,-1
400 400 m 1,52,-1
 400 490 l 1,53,-1
 490 490 l 1,54,-1
 490 400 l 1,55,-1
 400 400 l 1,52,-1
0 500 m 1,56,-1
 0 590 l 1,57,-1
 90 590 l 1,58,-1
 90 500 l 1,59,-1
 0 500 l 1,56,-1
400 500 m 1,60,-1
 400 590 l 1,61,-1
 490 590 l 1,62,-1
 490 500 l 1,63,-1
 400 500 l 1,60,-1
100 600 m 1,64,-1
 100 690 l 1,65,-1
 190 690 l 1,66,-1
 190 600 l 1,67,-1
 100 600 l 1,64,-1
200 600 m 1,68,-1
 200 690 l 1,69,-1
 290 690 l 1,70,-1
 290 600 l 1,71,-1
 200 600 l 1,68,-1
300 600 m 1,72,-1
 300 690 l 1,73,-1
 390 690 l 1,74,-1
 390 600 l 1,75,-1
 300 600 l 1,72,-1
EndSplineSet
Validated: 1
EndChar

StartChar: one
Encoding: 49 49 17
Width: 600
VWidth: 699
Flags: W
LayerCount: 2
Fore
SplineSet
100 0 m 1,0,-1
 100 90 l 1,1,-1
 190 90 l 1,2,-1
 190 0 l 1,3,-1
 100 0 l 1,0,-1
200 0 m 1,4,-1
 200 90 l 1,5,-1
 290 90 l 1,6,-1
 290 0 l 1,7,-1
 200 0 l 1,4,-1
300 0 m 1,8,-1
 300 90 l 1,9,-1
 390 90 l 1,10,-1
 390 0 l 1,11,-1
 300 0 l 1,8,-1
200 100 m 1,12,-1
 200 190 l 1,13,-1
 290 190 l 1,14,-1
 290 100 l 1,15,-1
 200 100 l 1,12,-1
200 200 m 1,16,-1
 200 290 l 1,17,-1
 290 290 l 1,18,-1
 290 200 l 1,19,-1
 200 200 l 1,16,-1
200 300 m 1,20,-1
 200 390 l 1,21,-1
 290 390 l 1,22,-1
 290 300 l 1,23,-1
 200 300 l 1,20,-1
200 400 m 1,24,-1
 200 490 l 1,25,-1
 290 490 l 1,26,-1
 290 400 l 1,27,-1
 200 400 l 1,24,-1
100 500 m 1,28,-1
 100 590 l 1,29,-1
 190 590 l 1,30,-1
 190 500 l 1,31,-1
 100 500 l 1,28,-1
200 500 m 1,32,-1
 200 590 l 1,33,-1
 290 590 l 1,34,-1
 290 500 l 1,35,-1
 200 500 l 1,32,-1
200 600 m 1,36,-1
 200 690 l 1,37,-1
 290 690 l 1,38,-1
 290 600 l 1,39,-1
 200 600 l 1,36,-1
EndSplineSet
Validated: 1
EndChar

StartChar: two
Encoding: 50 50 18
Width: 600
VWidth: 699
Flags: W
LayerCount: 2
Fore
SplineSet
0 0 m 1,0,-1
 0 90 l 1,1,-1
 90 90 l 1,2,-1
 90 0 l 1,3,-1
 0 0 l 1,0,-1
100 0 m 1,4,-1
 100 90 l 1,5,-1
 190 90 l 1,6,-1
 190 0 l 1,7,-1
 100 0 l 1,4,-1
200 0 m 1,8,-1
 200 90 l 1,9,-1
 290 90 l 1,10,-1
 290 0 l 1,11,-1
 200 0 l 1,8,-1
300 0 m 1,12,-1
 300 90 l 1,13,-1
 390 90 l 1,14,-1
 390 0 l 1,15,-1
 300 0 l 1,12,-1
400 0 m 1,16,-1
 400 90 l 1,17,-1
 490 90 l 1,18,-1
 490 0 l 1,19,-1
 400 0 l 1,16,-1
0 100 m 1,20,-1
 0 190 l 1,21,-1
 90 190 l 1,22,-1
 90 100 l 1,23,-1
 0 100 l 1,20,-1
100 200 m 1,24,-1
 100 290 l 1,25,-1
 190 290 l 1,26,-1
 190 200 l 1,27,-1
 100 200 l 1,24,-1
200 300 m 1,28,-1
 200 390 l 1,29,-1
 290 390 l 1,30,-1
 290 300 l 1,31,-1
 200 300 l 1,28,-1
300 300 m 1,32,-1
 300 390 l 1,33,-1
 390 390 l 1,34,-1
 390 300 l 1,35,-1
 300 300 l 1,32,-1
400 400 m 1,36,-1
 400 490 l 1,37,-1
 490 490 l 1,38,-1
 490 400 l 1,39,-1
 400 400 l 1,36,-1
0 500 m 1,40,-1
 0 590 l 1,41,-1
 90 590 l 1,42,-1
 90 500 l 1,43,-1
 0 500 l 1,40,-1
400 500 m 1,44,-1
 400 590 l 1,45,-1
 490 590 l 1,46,-1
 490 500 l 1,47,-1
 400 500 l 1,44,-1
100 600 m 1,48,-1
 100 690 l 1,49,-1
 190 690 l 1,50,-1
 190 600 l 1,51,-1
 100 600 l 1,48,-1
200 600 m 1,52,-1
 200 690 l 1,53,-1
 290 690 l 1,54,-1
 290 600 l 1,55,-1
 200 600 l 1,52,-1
300 600 m 1,56,-1
 300 690 l 1,57,-1
 390 690 l 1,58,-1
 390 600 l 1,59,-1
 300 600 l 1,56,-1
EndSplineSet
Validated: 1
EndChar

StartChar: three
Encoding: 51 51 19
Width: 600
VWidth: 699
Flags: W
LayerCount: 2
Fore
SplineSet
100 0 m 1,0,-1
 100 90 l 1,1,-1
 190 90 l 1,2,-1
 190 0 l 1,3,-1
 100 0 l 1,0,-1
200 0 m 1,4,-1
 200 90 l 1,5,-1
 290 90 l 1,6,-1
 290 0 l 1,7,-1
 200 0 l 1,4,-1
300 0 m 1,8,-1
 300 90 l 1,9,-1
 390 90 l 1,10,-1
 390 0 l 1,11,-1
 300 0 l 1,8,-1
0 100 m 1,12,-1
 0 190 l 1,13,-1
 90 190 l 1,14,-1
 90 100 l 1,15,-1
 0 100 l 1,12,-1
400 100 m 1,16,-1
 400 190 l 1,17,-1
 490 190 l 1,18,-1
 490 100 l 1,19,-1
 400 100 l 1,16,-1
400 200 m 1,20,-1
 400 290 l 1,21,-1
 490 290 l 1,22,-1
 490 200 l 1,23,-1
 400 200 l 1,20,-1
200 300 m 1,24,-1
 200 390 l 1,25,-1
 290 390 l 1,26,-1
 290 300 l 1,27,-1
 200 300 l 1,24,-1
300 300 m 1,28,-1
 300 390 l 1,29,-1
 390 390 l 1,30,-1
 390 300 l 1,31,-1
 300 300 l 1,28,-1
300 400 m 1,32,-1
 300 490 l 1,33,-1
 390 490 l 1,34,-1
 390 400 l 1,35,-1
 300 400 l 1,32,-1
400 500 m 1,36,-1
 400 590 l 1,37,-1
 490 590 l 1,38,-1
 490 500 l 1,39,-1
 400 500 l 1,36,-1
0 600 m 1,40,-1
 0 690 l 1,41,-1
 90 690 l 1,42,-1
 90 600 l 1,43,-1
 0 600 l 1,40,-1
100 600 m 1,44,-1
 100 690 l 1,45,-1
 190 690 l 1,46,-1
 190 600 l 1,47,-1
 100 600 l 1,44,-1
200 600 m 1,48,-1
 200 690 l 1,49,-1
 290 690 l 1,50,-1
 290 600 l 1,51,-1
 200 600 l 1,48,-1
300 600 m 1,52,-1
 300 690 l 1,53,-1
 390 690 l 1,54,-1
 390 600 l 1,55,-1
 300 600 l 1,52,-1
400 600 m 1,56,-1
 400 690 l 1,57,-1
 490 690 l 1,58,-1
 490 600 l 1,59,-1
 400 600 l 1,56,-1
EndSplineSet
Validated: 1
EndChar

StartChar: four
Encoding: 52 52 20
Width: 600
VWidth: 699
Flags: W
LayerCount: 2
Fore
SplineSet
300 0 m 1,0,-1
 300 90 l 1,1,-1
 390 90 l 1,2,-1
 390 0 l 1,3,-1
 300 0 l 1,0,-1
300 100 m 1,4,-1
 300 190 l 1,5,-1
 390 190 l 1,6,-1
 390 100 l 1,7,-1
 300 100 l 1,4,-1
0 200 m 1,8,-1
 0 290 l 1,9,-1
 90 290 l 1,10,-1
 90 200 l 1,11,-1
 0 200 l 1,8,-1
100 200 m 1,12,-1
 100 290 l 1,13,-1
 190 290 l 1,14,-1
 190 200 l 1,15,-1
 100 200 l 1,12,-1
200 200 m 1,16,-1
 200 290 l 1,17,-1
 290 290 l 1,18,-1
 290 200 l 1,19,-1
 200 200 l 1,16,-1
300 200 m 1,20,-1
 300 290 l 1,21,-1
 390 290 l 1,22,-1
 390 200 l 1,23,-1
 300 200 l 1,20,-1
400 200 m 1,24,-1
 400 290 l 1,25,-1
 490 290 l 1,26,-1
 490 200 l 1,27,-1
 400 200 l 1,24,-1
0 300 m 1,28,-1
 0 390 l 1,29,-1
 90 390 l 1,30,-1
 90 300 l 1,31,-1
 0 300 l 1,28,-1
300 300 m 1,32,-1
 300 390 l 1,33,-1
 390 390 l 1,34,-1
 390 300 l 1,35,-1
 300 300 l 1,32,-1
100 400 m 1,36,-1
 100 490 l 1,37,-1
 190 490 l 1,38,-1
 190 400 l 1,39,-1
 100 400 l 1,36,-1
300 400 m 1,40,-1
 300 490 l 1,41,-1
 390 490 l 1,42,-1
 390 400 l 1,43,-1
 300 400 l 1,40,-1
200 500 m 1,44,-1
 200 590 l 1,45,-1
 290 590 l 1,46,-1
 290 500 l 1,47,-1
 200 500 l 1,44,-1
300 500 m 1,48,-1
 300 590 l 1,49,-1
 390 590 l 1,50,-1
 390 500 l 1,51,-1
 300 500 l 1,48,-1
300 600 m 1,52,-1
 300 690 l 1,53,-1
 390 690 l 1,54,-1
 390 600 l 1,55,-1
 300 600 l 1,52,-1
EndSplineSet
Validated: 1
EndChar

StartChar: five
Encoding: 53 53 21
Width: 600
VWidth: 699
Flags: W
LayerCount: 2
Fore
SplineSet
100 0 m 1,0,-1
 100 90 l 1,1,-1
 190 90 l 1,2,-1
 190 0 l 1,3,-1
 100 0 l 1,0,-1
200 0 m 1,4,-1
 200 90 l 1,5,-1
 290 90 l 1,6,-1
 290 0 l 1,7,-1
 200 0 l 1,4,-1
300 0 m 1,8,-1
 300 90 l 1,9,-1
 390 90 l 1,10,-1
 390 0 l 1,11,-1
 300 0 l 1,8,-1
0 100 m 1,12,-1
 0 190 l 1,13,-1
 90 190 l 1,14,-1
 90 100 l 1,15,-1
 0 100 l 1,12,-1
400 100 m 1,16,-1
 400 190 l 1,17,-1
 490 190 l 1,18,-1
 490 100 l 1,19,-1
 400 100 l 1,16,-1
400 200 m 1,20,-1
 400 290 l 1,21,-1
 490 290 l 1,22,-1
 490 200 l 1,23,-1
 400 200 l 1,20,-1
400 300 m 1,24,-1
 400 390 l 1,25,-1
 490 390 l 1,26,-1
 490 300 l 1,27,-1
 400 300 l 1,24,-1
0 400 m 1,28,-1
 0 490 l 1,29,-1
 90 490 l 1,30,-1
 90 400 l 1,31,-1
 0 400 l 1,28,-1
100 400 m 1,32,-1
 100 490 l 1,33,-1
 190 490 l 1,34,-1
 190 400 l 1,35,-1
 100 400 l 1,32,-1
200 400 m 1,36,-1
 200 490 l 1,37,-1
 290 490 l 1,38,-1
 290 400 l 1,39,-1
 200 400 l 1,36,-1
300 400 m 1,40,-1
 300 490 l 1,41,-1
 390 490 l 1,42,-1
 390 400 l 1,43,-1
 300 400 l 1,40,-1
0 500 m 1,44,-1
 0 590 l 1,45,-1
 90 590 l 1,46,-1
 90 500 l 1,47,-1
 0 500 l 1,44,-1
0 600 m 1,48,-1
 0 690 l 1,49,-1
 90 690 l 1,50,-1
 90 600 l 1,51,-1
 0 600 l 1,48,-1
100 600 m 1,52,-1
 100 690 l 1,53,-1
 190 690 l 1,54,-1
 190 600 l 1,55,-1
 100 600 l 1,52,-1
200 600 m 1,56,-1
 200 690 l 1,57,-1
 290 690 l 1,58,-1
 290 600 l 1,59,-1
 200 600 l 1,56,-1
300 600 m 1,60,-1
 300 690 l 1,61,-1
 390 690 l 1,62,-1
 390 600 l 1,63,-1
 300 600 l 1,60,-1
400 600 m 1,64,-1
 400 690 l 1,65,-1
 490 690 l 1,66,-1
 490 600 l 1,67,-1
 400 600 l 1,64,-1
EndSplineSet
Validated: 1
EndChar

StartChar: six
Encoding: 54 54 22
Width: 600
VWidth: 699
Flags: W
LayerCount: 2
Fore
SplineSet
100 0 m 1,0,-1
 100 90 l 1,1,-1
 190 90 l 1,2,-1
 190 0 l 1,3,-1
 100 0 l 1,0,-1
200 0 m 1,4,-1
 200 90 l 1,5,-1
 290 90 l 1,6,-1
 290 0 l 1,7,-1
 200 0 l 1,4,-1
300 0 m 1,8,-1
 300 90 l 1,9,-1
 390 90 l 1,10,-1
 390 0 l 1,11,-1
 300 0 l 1,8,-1
0 100 m 1,12,-1
 0 190 l 1,13,-1
 90 190 l 1,14,-1
 90 100 l 1,15,-1
 0 100 l 1,12,-1
400 100 m 1,16,-1
 400 190 l 1,17,-1
 490 190 l 1,18,-1
 490 100 l 1,19,-1
 400 100 l 1,16,-1
0 200 m 1,20,-1
 0 290 l 1,21,-1
 90 290 l 1,22,-1
 90 200 l 1,23,-1
 0 200 l 1,20,-1
400 200 m 1,24,-1
 400 290 l 1,25,-1
 490 290 l 1,26,-1
 490 200 l 1,27,-1
 400 200 l 1,24,-1
0 300 m 1,28,-1
 0 390 l 1,29,-1
 90 390 l 1,30,-1
 90 300 l 1,31,-1
 0 300 l 1,28,-1
100 300 m 1,32,-1
 100 390 l 1,33,-1
 190 390 l 1,34,-1
 190 300 l 1,35,-1
 100 300 l 1,32,-1
200 300 m 1,36,-1
 200 390 l 1,37,-1
 290 390 l 1,38,-1
 290 300 l 1,39,-1
 200 300 l 1,36,-1
300 300 m 1,40,-1
 300 390 l 1,41,-1
 390 390 l 1,42,-1
 390 300 l 1,43,-1
 300 300 l 1,40,-1
0 400 m 1,44,-1
 0 490 l 1,45,-1
 90 490 l 1,46,-1
 90 400 l 1,47,-1
 0 400 l 1,44,-1
0 500 m 1,48,-1
 0 590 l 1,49,-1
 90 590 l 1,50,-1
 90 500 l 1,51,-1
 0 500 l 1,48,-1
400 500 m 1,52,-1
 400 590 l 1,53,-1
 490 590 l 1,54,-1
 490 500 l 1,55,-1
 400 500 l 1,52,-1
100 600 m 1,56,-1
 100 690 l 1,57,-1
 190 690 l 1,58,-1
 190 600 l 1,59,-1
 100 600 l 1,56,-1
200 600 m 1,60,-1
 200 690 l 1,61,-1
 290 690 l 1,62,-1
 290 600 l 1,63,-1
 200 600 l 1,60,-1
300 600 m 1,64,-1
 300 690 l 1,65,-1
 390 690 l 1,66,-1
 390 600 l 1,67,-1
 300 600 l 1,64,-1
EndSplineSet
Validated: 1
EndChar

StartChar: seven
Encoding: 55 55 23
Width: 600
VWidth: 699
Flags: W
LayerCount: 2
Fore
SplineSet
100 0 m 1,0,-1
 100 90 l 1,1,-1
 190 90 l 1,2,-1
 190 0 l 1,3,-1
 100 0 l 1,0,-1
100 100 m 1,4,-1
 100 190 l 1,5,-1
 190 190 l 1,6,-1
 190 100 l 1,7,-1
 100 100 l 1,4,-1
100 200 m 1,8,-1
 100 290 l 1,9,-1
 190 290 l 1,10,-1
 190 200 l 1,11,-1
 100 200 l 1,8,-1
200 300 m 1,12,-1
 200 390 l 1,13,-1
 290 390 l 1,14,-1
 290 300 l 1,15,-1
 200 300 l 1,12,-1
300 400 m 1,16,-1
 300 490 l 1,17,-1
 390 490 l 1,18,-1
 390 400 l 1,19,-1
 300 400 l 1,16,-1
400 500 m 1,20,-1
 400 590 l 1,21,-1
 490 590 l 1,22,-1
 490 500 l 1,23,-1
 400 500 l 1,20,-1
0 600 m 1,24,-1
 0 690 l 1,25,-1
 90 690 l 1,26,-1
 90 600 l 1,27,-1
 0 600 l 1,24,-1
100 600 m 1,28,-1
 100 690 l 1,29,-1
 190 690 l 1,30,-1
 190 600 l 1,31,-1
 100 600 l 1,28,-1
200 600 m 1,32,-1
 200 690 l 1,33,-1
 290 690 l 1,34,-1
 290 600 l 1,35,-1
 200 600 l 1,32,-1
300 600 m 1,36,-1
 300 690 l 1,37,-1
 390 690 l 1,38,-1
 390 600 l 1,39,-1
 300 600 l 1,36,-1
400 600 m 1,40,-1
 400 690 l 1,41,-1
 490 690 l 1,42,-1
 490 600 l 1,43,-1
 400 600 l 1,40,-1
EndSplineSet
Validated: 1
EndChar

StartChar: eight
Encoding: 56 56 24
Width: 600
VWidth: 699
Flags: W
LayerCount: 2
Fore
SplineSet
100 0 m 1,0,-1
 100 90 l 1,1,-1
 190 90 l 1,2,-1
 190 0 l 1,3,-1
 100 0 l 1,0,-1
200 0 m 1,4,-1
 200 90 l 1,5,-1
 290 90 l 1,6,-1
 290 0 l 1,7,-1
 200 0 l 1,4,-1
300 0 m 1,8,-1
 300 90 l 1,9,-1
 390 90 l 1,10,-1
 390 0 l 1,11,-1
 300 0 l 1,8,-1
0 100 m 1,12,-1
 0 190 l 1,13,-1
 90 190 l 1,14,-1
 90 100 l 1,15,-1
 0 100 l 1,12,-1
400 100 m 1,16,-1
 400 190 l 1,17,-1
 490 190 l 1,18,-1
 490 100 l 1,19,-1
 400 100 l 1,16,-1
0 200 m 1,20,-1
 0 290 l 1,21,-1
 90 290 l 1,22,-1
 90 200 l 1,23,-1
 0 200 l 1,20,-1
400 200 m 1,24,-1
 400 290 l 1,25,-1
 490 290 l 1,26,-1
 490 200 l 1,27,-1
 400 200 l 1,24,-1
100 300 m 1,28,-1
 100 390 l 1,29,-1
 190 390 l 1,30,-1
 190 300 l 1,31,-1
 100 300 l 1,28,-1
200 300 m 1,32,-1
 200 390 l 1,33,-1
 290 390 l 1,34,-1
 290 300 l 1,35,-1
 200 300 l 1,32,-1
300 300 m 1,36,-1
 300 390 l 1,37,-1
 390 390 l 1,38,-1
 390 300 l 1,39,-1
 300 300 l 1,36,-1
0 400 m 1,40,-1
 0 490 l 1,41,-1
 90 490 l 1,42,-1
 90 400 l 1,43,-1
 0 400 l 1,40,-1
400 400 m 1,44,-1
 400 490 l 1,45,-1
 490 490 l 1,46,-1
 490 400 l 1,47,-1
 400 400 l 1,44,-1
0 500 m 1,48,-1
 0 590 l 1,49,-1
 90 590 l 1,50,-1
 90 500 l 1,51,-1
 0 500 l 1,48,-1
400 500 m 1,52,-1
 400 590 l 1,53,-1
 490 590 l 1,54,-1
 490 500 l 1,55,-1
 400 500 l 1,52,-1
100 600 m 1,56,-1
 100 690 l 1,57,-1
 190 690 l 1,58,-1
 190 600 l 1,59,-1
 100 600 l 1,56,-1
200 600 m 1,60,-1
 200 690 l 1,61,-1
 290 690 l 1,62,-1
 290 600 l 1,63,-1
 200 600 l 1,60,-1
300 600 m 1,64,-1
 300 690 l 1,65,-1
 390 690 l 1,66,-1
 390 600 l 1,67,-1
 300 600 l 1,64,-1
EndSplineSet
Validated: 1
EndChar

StartChar: nine
Encoding: 57 57 25
Width: 600
VWidth: 699
Flags: W
LayerCount: 2
Fore
SplineSet
100 0 m 1,0,-1
 100 90 l 1,1,-1
 190 90 l 1,2,-1
 190 0 l 1,3,-1
 100 0 l 1,0,-1
200 0 m 1,4,-1
 200 90 l 1,5,-1
 290 90 l 1,6,-1
 290 0 l 1,7,-1
 200 0 l 1,4,-1
300 0 m 1,8,-1
 300 90 l 1,9,-1
 390 90 l 1,10,-1
 390 0 l 1,11,-1
 300 0 l 1,8,-1
0 100 m 1,12,-1
 0 190 l 1,13,-1
 90 190 l 1,14,-1
 90 100 l 1,15,-1
 0 100 l 1,12,-1
400 100 m 1,16,-1
 400 190 l 1,17,-1
 490 190 l 1,18,-1
 490 100 l 1,19,-1
 400 100 l 1,16,-1
400 200 m 1,20,-1
 400 290 l 1,21,-1
 490 290 l 1,22,-1
 490 200 l 1,23,-1
 400 200 l 1,20,-1
100 300 m 1,24,-1
 100 390 l 1,25,-1
 190 390 l 1,26,-1
 190 300 l 1,27,-1
 100 300 l 1,24,-1
200 300 m 1,28,-1
 200 390 l 1,29,-1
 290 390 l 1,30,-1
 290 300 l 1,31,-1
 200 300 l 1,28,-1
300 300 m 1,32,-1
 300 390 l 1,33,-1
 390 390 l 1,34,-1
 390 300 l 1,35,-1
 300 300 l 1,32,-1
400 300 m 1,36,-1
 400 390 l 1,37,-1
 490 390 l 1,38,-1
 490 300 l 1,39,-1
 400 300 l 1,36,-1
0 400 m 1,40,-1
 0 490 l 1,41,-1
 90 490 l 1,42,-1
 90 400 l 1,43,-1
 0 400 l 1,40,-1
400 400 m 1,44,-1
 400 490 l 1,45,-1
 490 490 l 1,46,-1
 490 400 l 1,47,-1
 400 400 l 1,44,-1
0 500 m 1,48,-1
 0 590 l 1,49,-1
 90 590 l 1,50,-1
 90 500 l 1,51,-1
 0 500 l 1,48,-1
400 500 m 1,52,-1
 400 590 l 1,53,-1
 490 590 l 1,54,-1
 490 500 l 1,55,-1
 400 500 l 1,52,-1
100 600 m 1,56,-1
 100 690 l 1,57,-1
 190 690 l 1,58,-1
 190 600 l 1,59,-1
 100 600 l 1,56,-1
200 600 m 1,60,-1
 200 690 l 1,61,-1
 290 690 l 1,62,-1
 290 600 l 1,63,-1
 200 600 l 1,60,-1
300 600 m 1,64,-1
 300 690 l 1,65,-1
 390 690 l 1,66,-1
 390 600 l 1,67,-1
 300 600 l 1,64,-1
EndSplineSet
Validated: 1
EndChar

StartChar: colon
Encoding: 58 58 26
Width: 600
VWidth: 699
Flags: W
LayerCount: 2
Fore
SplineSet
0 100 m 1,0,-1
 0 190 l 1,1,-1
 90 190 l 1,2,-1
 90 100 l 1,3,-1
 0 100 l 1,0,-1
100 100 m 1,4,-1
 100 190 l 1,5,-1
 190 190 l 1,6,-1
 190 100 l 1,7,-1
 100 100 l 1,4,-1
0 200 m 1,8,-1
 0 290 l 1,9,-1
 90 290 l 1,10,-1
 90 200 l 1,11,-1
 0 200 l 1,8,-1
100 200 m 1,12,-1
 100 290 l 1,13,-1
 190 290 l 1,14,-1
 190 200 l 1,15,-1
 100 200 l 1,12,-1
0 400 m 1,16,-1
 0 490 l 1,17,-1
 90 490 l 1,18,-1
 90 400 l 1,19,-1
 0 400 l 1,16,-1
100 400 m 1,20,-1
 100 490 l 1,21,-1
 190 490 l 1,22,-1
 190 400 l 1,23,-1
 100 400 l 1,20,-1
0 500 m 1,24,-1
 0 590 l 1,25,-1
 90 590 l 1,26,-1
 90 500 l 1,27,-1
 0 500 l 1,24,-1
100 500 m 1,28,-1
 100 590 l 1,29,-1
 190 590 l 1,30,-1
 190 500 l 1,31,-1
 100 500 l 1,28,-1
EndSplineSet
Validated: 1
EndChar

StartChar: semicolon
Encoding: 59 59 27
Width: 600
VWidth: 699
Flags: W
LayerCount: 2
Fore
SplineSet
0 0 m 1,0,-1
 0 90 l 1,1,-1
 90 90 l 1,2,-1
 90 0 l 1,3,-1
 0 0 l 1,0,-1
100 0 m 1,4,-1
 100 90 l 1,5,-1
 190 90 l 1,6,-1
 190 0 l 1,7,-1
 100 0 l 1,4,-1
100 100 m 1,8,-1
 100 190 l 1,9,-1
 190 190 l 1,10,-1
 190 100 l 1,11,-1
 100 100 l 1,8,-1
200 100 m 1,12,-1
 200 190 l 1,13,-1
 290 190 l 1,14,-1
 290 100 l 1,15,-1
 200 100 l 1,12,-1
100 200 m 1,16,-1
 100 290 l 1,17,-1
 190 290 l 1,18,-1
 190 200 l 1,19,-1
 100 200 l 1,16,-1
200 200 m 1,20,-1
 200 290 l 1,21,-1
 290 290 l 1,22,-1
 290 200 l 1,23,-1
 200 200 l 1,20,-1
100 400 m 1,24,-1
 100 490 l 1,25,-1
 190 490 l 1,26,-1
 190 400 l 1,27,-1
 100 400 l 1,24,-1
200 400 m 1,28,-1
 200 490 l 1,29,-1
 290 490 l 1,30,-1
 290 400 l 1,31,-1
 200 400 l 1,28,-1
100 500 m 1,32,-1
 100 590 l 1,33,-1
 190 590 l 1,34,-1
 190 500 l 1,35,-1
 100 500 l 1,32,-1
200 500 m 1,36,-1
 200 590 l 1,37,-1
 290 590 l 1,38,-1
 290 500 l 1,39,-1
 200 500 l 1,36,-1
EndSplineSet
Validated: 1
EndChar

StartChar: less
Encoding: 60 60 28
Width: 600
VWidth: 699
Flags: W
LayerCount: 2
Fore
SplineSet
300 0 m 1,0,-1
 300 90 l 1,1,-1
 390 90 l 1,2,-1
 390 0 l 1,3,-1
 300 0 l 1,0,-1
200 100 m 1,4,-1
 200 190 l 1,5,-1
 290 190 l 1,6,-1
 290 100 l 1,7,-1
 200 100 l 1,4,-1
100 200 m 1,8,-1
 100 290 l 1,9,-1
 190 290 l 1,10,-1
 190 200 l 1,11,-1
 100 200 l 1,8,-1
0 300 m 1,12,-1
 0 390 l 1,13,-1
 90 390 l 1,14,-1
 90 300 l 1,15,-1
 0 300 l 1,12,-1
100 400 m 1,16,-1
 100 490 l 1,17,-1
 190 490 l 1,18,-1
 190 400 l 1,19,-1
 100 400 l 1,16,-1
200 500 m 1,20,-1
 200 590 l 1,21,-1
 290 590 l 1,22,-1
 290 500 l 1,23,-1
 200 500 l 1,20,-1
300 600 m 1,24,-1
 300 690 l 1,25,-1
 390 690 l 1,26,-1
 390 600 l 1,27,-1
 300 600 l 1,24,-1
EndSplineSet
Validated: 1
EndChar

StartChar: equal
Encoding: 61 61 29
Width: 600
VWidth: 699
Flags: W
LayerCount: 2
Fore
SplineSet
0 200 m 1,0,-1
 0 290 l 1,1,-1
 90 290 l 1,2,-1
 90 200 l 1,3,-1
 0 200 l 1,0,-1
100 200 m 1,4,-1
 100 290 l 1,5,-1
 190 290 l 1,6,-1
 190 200 l 1,7,-1
 100 200 l 1,4,-1
200 200 m 1,8,-1
 200 290 l 1,9,-1
 290 290 l 1,10,-1
 290 200 l 1,11,-1
 200 200 l 1,8,-1
300 200 m 1,12,-1
 300 290 l 1,13,-1
 390 290 l 1,14,-1
 390 200 l 1,15,-1
 300 200 l 1,12,-1
400 200 m 1,16,-1
 400 290 l 1,17,-1
 490 290 l 1,18,-1
 490 200 l 1,19,-1
 400 200 l 1,16,-1
0 400 m 1,20,-1
 0 490 l 1,21,-1
 90 490 l 1,22,-1
 90 400 l 1,23,-1
 0 400 l 1,20,-1
100 400 m 1,24,-1
 100 490 l 1,25,-1
 190 490 l 1,26,-1
 190 400 l 1,27,-1
 100 400 l 1,24,-1
200 400 m 1,28,-1
 200 490 l 1,29,-1
 290 490 l 1,30,-1
 290 400 l 1,31,-1
 200 400 l 1,28,-1
300 400 m 1,32,-1
 300 490 l 1,33,-1
 390 490 l 1,34,-1
 390 400 l 1,35,-1
 300 400 l 1,32,-1
400 400 m 1,36,-1
 400 490 l 1,37,-1
 490 490 l 1,38,-1
 490 400 l 1,39,-1
 400 400 l 1,36,-1
EndSplineSet
Validated: 1
EndChar

StartChar: greater
Encoding: 62 62 30
Width: 600
VWidth: 699
Flags: W
LayerCount: 2
Fore
SplineSet
100 0 m 1,0,-1
 100 90 l 1,1,-1
 190 90 l 1,2,-1
 190 0 l 1,3,-1
 100 0 l 1,0,-1
200 100 m 1,4,-1
 200 190 l 1,5,-1
 290 190 l 1,6,-1
 290 100 l 1,7,-1
 200 100 l 1,4,-1
300 200 m 1,8,-1
 300 290 l 1,9,-1
 390 290 l 1,10,-1
 390 200 l 1,11,-1
 300 200 l 1,8,-1
400 300 m 1,12,-1
 400 390 l 1,13,-1
 490 390 l 1,14,-1
 490 300 l 1,15,-1
 400 300 l 1,12,-1
300 400 m 1,16,-1
 300 490 l 1,17,-1
 390 490 l 1,18,-1
 390 400 l 1,19,-1
 300 400 l 1,16,-1
200 500 m 1,20,-1
 200 590 l 1,21,-1
 290 590 l 1,22,-1
 290 500 l 1,23,-1
 200 500 l 1,20,-1
100 600 m 1,24,-1
 100 690 l 1,25,-1
 190 690 l 1,26,-1
 190 600 l 1,27,-1
 100 600 l 1,24,-1
EndSplineSet
Validated: 1
EndChar

StartChar: question
Encoding: 63 63 31
Width: 600
VWidth: 699
Flags: W
LayerCount: 2
Fore
SplineSet
200 0 m 1,0,-1
 200 90 l 1,1,-1
 290 90 l 1,2,-1
 290 0 l 1,3,-1
 200 0 l 1,0,-1
200 200 m 1,4,-1
 200 290 l 1,5,-1
 290 290 l 1,6,-1
 290 200 l 1,7,-1
 200 200 l 1,4,-1
200 300 m 1,8,-1
 200 390 l 1,9,-1
 290 390 l 1,10,-1
 290 300 l 1,11,-1
 200 300 l 1,8,-1
300 400 m 1,12,-1
 300 490 l 1,13,-1
 390 490 l 1,14,-1
 390 400 l 1,15,-1
 300 400 l 1,12,-1
0 500 m 1,16,-1
 0 590 l 1,17,-1
 90 590 l 1,18,-1
 90 500 l 1,19,-1
 0 500 l 1,16,-1
400 500 m 1,20,-1
 400 590 l 1,21,-1
 490 590 l 1,22,-1
 490 500 l 1,23,-1
 400 500 l 1,20,-1
100 600 m 1,24,-1
 100 690 l 1,25,-1
 190 690 l 1,26,-1
 190 600 l 1,27,-1
 100 600 l 1,24,-1
200 600 m 1,28,-1
 200 690 l 1,29,-1
 290 690 l 1,30,-1
 290 600 l 1,31,-1
 200 600 l 1,28,-1
300 600 m 1,32,-1
 300 690 l 1,33,-1
 390 690 l 1,34,-1
 390 600 l 1,35,-1
 300 600 l 1,32,-1
EndSplineSet
Validated: 1
EndChar

StartChar: at
Encoding: 64 64 32
Width: 600
VWidth: 699
Flags: W
LayerCount: 2
Fore
SplineSet
100 0 m 1,0,-1
 100 90 l 1,1,-1
 190 90 l 1,2,-1
 190 0 l 1,3,-1
 100 0 l 1,0,-1
200 0 m 1,4,-1
 200 90 l 1,5,-1
 290 90 l 1,6,-1
 290 0 l 1,7,-1
 200 0 l 1,4,-1
300 0 m 1,8,-1
 300 90 l 1,9,-1
 390 90 l 1,10,-1
 390 0 l 1,11,-1
 300 0 l 1,8,-1
400 0 m 1,12,-1
 400 90 l 1,13,-1
 490 90 l 1,14,-1
 490 0 l 1,15,-1
 400 0 l 1,12,-1
0 100 m 1,16,-1
 0 190 l 1,17,-1
 90 190 l 1,18,-1
 90 100 l 1,19,-1
 0 100 l 1,16,-1
0 200 m 1,20,-1
 0 290 l 1,21,-1
 90 290 l 1,22,-1
 90 200 l 1,23,-1
 0 200 l 1,20,-1
200 200 m 1,24,-1
 200 290 l 1,25,-1
 290 290 l 1,26,-1
 290 200 l 1,27,-1
 200 200 l 1,24,-1
300 200 m 1,28,-1
 300 290 l 1,29,-1
 390 290 l 1,30,-1
 390 200 l 1,31,-1
 300 200 l 1,28,-1
0 300 m 1,32,-1
 0 390 l 1,33,-1
 90 390 l 1,34,-1
 90 300 l 1,35,-1
 0 300 l 1,32,-1
200 300 m 1,36,-1
 200 390 l 1,37,-1
 290 390 l 1,38,-1
 290 300 l 1,39,-1
 200 300 l 1,36,-1
300 300 m 1,40,-1
 300 390 l 1,41,-1
 390 390 l 1,42,-1
 390 300 l 1,43,-1
 300 300 l 1,40,-1
0 400 m 1,44,-1
 0 490 l 1,45,-1
 90 490 l 1,46,-1
 90 400 l 1,47,-1
 0 400 l 1,44,-1
400 400 m 1,48,-1
 400 490 l 1,49,-1
 490 490 l 1,50,-1
 490 400 l 1,51,-1
 400 400 l 1,48,-1
0 500 m 1,52,-1
 0 590 l 1,53,-1
 90 590 l 1,54,-1
 90 500 l 1,55,-1
 0 500 l 1,52,-1
400 500 m 1,56,-1
 400 590 l 1,57,-1
 490 590 l 1,58,-1
 490 500 l 1,59,-1
 400 500 l 1,56,-1
100 600 m 1,60,-1
 100 690 l 1,61,-1
 190 690 l 1,62,-1
 190 600 l 1,63,-1
 100 600 l 1,60,-1
200 600 m 1,64,-1
 200 690 l 1,65,-1
 290 690 l 1,66,-1
 290 600 l 1,67,-1
 200 600 l 1,64,-1
300 600 m 1,68,-1
 300 690 l 1,69,-1
 390 690 l 1,70,-1
 390 600 l 1,71,-1
 300 600 l 1,68,-1
EndSplineSet
Validated: 1
EndChar

StartChar: A
Encoding: 65 65 33
Width: 600
VWidth: 699
Flags: W
LayerCount: 2
Fore
SplineSet
0 0 m 1,0,-1
 0 90 l 1,1,-1
 90 90 l 1,2,-1
 90 0 l 1,3,-1
 0 0 l 1,0,-1
400 0 m 1,4,-1
 400 90 l 1,5,-1
 490 90 l 1,6,-1
 490 0 l 1,7,-1
 400 0 l 1,4,-1
0 100 m 1,8,-1
 0 190 l 1,9,-1
 90 190 l 1,10,-1
 90 100 l 1,11,-1
 0 100 l 1,8,-1
400 100 m 1,12,-1
 400 190 l 1,13,-1
 490 190 l 1,14,-1
 490 100 l 1,15,-1
 400 100 l 1,12,-1
0 200 m 1,16,-1
 0 290 l 1,17,-1
 90 290 l 1,18,-1
 90 200 l 1,19,-1
 0 200 l 1,16,-1
100 200 m 1,20,-1
 100 290 l 1,21,-1
 190 290 l 1,22,-1
 190 200 l 1,23,-1
 100 200 l 1,20,-1
200 200 m 1,24,-1
 200 290 l 1,25,-1
 290 290 l 1,26,-1
 290 200 l 1,27,-1
 200 200 l 1,24,-1
300 200 m 1,28,-1
 300 290 l 1,29,-1
 390 290 l 1,30,-1
 390 200 l 1,31,-1
 300 200 l 1,28,-1
400 200 m 1,32,-1
 400 290 l 1,33,-1
 490 290 l 1,34,-1
 490 200 l 1,35,-1
 400 200 l 1,32,-1
0 300 m 1,36,-1
 0 390 l 1,37,-1
 90 390 l 1,38,-1
 90 300 l 1,39,-1
 0 300 l 1,36,-1
400 300 m 1,40,-1
 400 390 l 1,41,-1
 490 390 l 1,42,-1
 490 300 l 1,43,-1
 400 300 l 1,40,-1
0 400 m 1,44,-1
 0 490 l 1,45,-1
 90 490 l 1,46,-1
 90 400 l 1,47,-1
 0 400 l 1,44,-1
400 400 m 1,48,-1
 400 490 l 1,49,-1
 490 490 l 1,50,-1
 490 400 l 1,51,-1
 400 400 l 1,48,-1
0 500 m 1,52,-1
 0 590 l 1,53,-1
 90 590 l 1,54,-1
 90 500 l 1,55,-1
 0 500 l 1,52,-1
400 500 m 1,56,-1
 400 590 l 1,57,-1
 490 590 l 1,58,-1
 490 500 l 1,59,-1
 400 500 l 1,56,-1
100 600 m 1,60,-1
 100 690 l 1,61,-1
 190 690 l 1,62,-1
 190 600 l 1,63,-1
 100 600 l 1,60,-1
200 600 m 1,64,-1
 200 690 l 1,65,-1
 290 690 l 1,66,-1
 290 600 l 1,67,-1
 200 600 l 1,64,-1
300 600 m 1,68,-1
 300 690 l 1,69,-1
 390 690 l 1,70,-1
 390 600 l 1,71,-1
 300 600 l 1,68,-1
EndSplineSet
Validated: 1
EndChar

StartChar: B
Encoding: 66 66 34
Width: 600
VWidth: 699
Flags: W
LayerCount: 2
Fore
SplineSet
0 0 m 1,0,-1
 0 90 l 1,1,-1
 90 90 l 1,2,-1
 90 0 l 1,3,-1
 0 0 l 1,0,-1
100 0 m 1,4,-1
 100 90 l 1,5,-1
 190 90 l 1,6,-1
 190 0 l 1,7,-1
 100 0 l 1,4,-1
200 0 m 1,8,-1
 200 90 l 1,9,-1
 290 90 l 1,10,-1
 290 0 l 1,11,-1
 200 0 l 1,8,-1
300 0 m 1,12,-1
 300 90 l 1,13,-1
 390 90 l 1,14,-1
 390 0 l 1,15,-1
 300 0 l 1,12,-1
0 100 m 1,16,-1
 0 190 l 1,17,-1
 90 190 l 1,18,-1
 90 100 l 1,19,-1
 0 100 l 1,16,-1
400 100 m 1,20,-1
 400 190 l 1,21,-1
 490 190 l 1,22,-1
 490 100 l 1,23,-1
 400 100 l 1,20,-1
0 200 m 1,24,-1
 0 290 l 1,25,-1
 90 290 l 1,26,-1
 90 200 l 1,27,-1
 0 200 l 1,24,-1
400 200 m 1,28,-1
 400 290 l 1,29,-1
 490 290 l 1,30,-1
 490 200 l 1,31,-1
 400 200 l 1,28,-1
0 300 m 1,32,-1
 0 390 l 1,33,-1
 90 390 l 1,34,-1
 90 300 l 1,35,-1
 0 300 l 1,32,-1
100 300 m 1,36,-1
 100 390 l 1,37,-1
 190 390 l 1,38,-1
 190 300 l 1,39,-1
 100 300 l 1,36,-1
200 300 m 1,40,-1
 200 390 l 1,41,-1
 290 390 l 1,42,-1
 290 300 l 1,43,-1
 200 300 l 1,40,-1
300 300 m 1,44,-1
 300 390 l 1,45,-1
 390 390 l 1,46,-1
 390 300 l 1,47,-1
 300 300 l 1,44,-1
0 400 m 1,48,-1
 0 490 l 1,49,-1
 90 490 l 1,50,-1
 90 400 l 1,51,-1
 0 400 l 1,48,-1
400 400 m 1,52,-1
 400 490 l 1,53,-1
 490 490 l 1,54,-1
 490 400 l 1,55,-1
 400 400 l 1,52,-1
0 500 m 1,56,-1
 0 590 l 1,57,-1
 90 590 l 1,58,-1
 90 500 l 1,59,-1
 0 500 l 1,56,-1
400 500 m 1,60,-1
 400 590 l 1,61,-1
 490 590 l 1,62,-1
 490 500 l 1,63,-1
 400 500 l 1,60,-1
0 600 m 1,64,-1
 0 690 l 1,65,-1
 90 690 l 1,66,-1
 90 600 l 1,67,-1
 0 600 l 1,64,-1
100 600 m 1,68,-1
 100 690 l 1,69,-1
 190 690 l 1,70,-1
 190 600 l 1,71,-1
 100 600 l 1,68,-1
200 600 m 1,72,-1
 200 690 l 1,73,-1
 290 690 l 1,74,-1
 290 600 l 1,75,-1
 200 600 l 1,72,-1
300 600 m 1,76,-1
 300 690 l 1,77,-1
 390 690 l 1,78,-1
 390 600 l 1,79,-1
 300 600 l 1,76,-1
EndSplineSet
Validated: 1
EndChar

StartChar: C
Encoding: 67 67 35
Width: 600
VWidth: 699
Flags: W
LayerCount: 2
Fore
SplineSet
100 0 m 1,0,-1
 100 90 l 1,1,-1
 190 90 l 1,2,-1
 190 0 l 1,3,-1
 100 0 l 1,0,-1
200 0 m 1,4,-1
 200 90 l 1,5,-1
 290 90 l 1,6,-1
 290 0 l 1,7,-1
 200 0 l 1,4,-1
300 0 m 1,8,-1
 300 90 l 1,9,-1
 390 90 l 1,10,-1
 390 0 l 1,11,-1
 300 0 l 1,8,-1
0 100 m 1,12,-1
 0 190 l 1,13,-1
 90 190 l 1,14,-1
 90 100 l 1,15,-1
 0 100 l 1,12,-1
400 100 m 1,16,-1
 400 190 l 1,17,-1
 490 190 l 1,18,-1
 490 100 l 1,19,-1
 400 100 l 1,16,-1
0 200 m 1,20,-1
 0 290 l 1,21,-1
 90 290 l 1,22,-1
 90 200 l 1,23,-1
 0 200 l 1,20,-1
0 300 m 1,24,-1
 0 390 l 1,25,-1
 90 390 l 1,26,-1
 90 300 l 1,27,-1
 0 300 l 1,24,-1
0 400 m 1,28,-1
 0 490 l 1,29,-1
 90 490 l 1,30,-1
 90 400 l 1,31,-1
 0 400 l 1,28,-1
0 500 m 1,32,-1
 0 590 l 1,33,-1
 90 590 l 1,34,-1
 90 500 l 1,35,-1
 0 500 l 1,32,-1
400 500 m 1,36,-1
 400 590 l 1,37,-1
 490 590 l 1,38,-1
 490 500 l 1,39,-1
 400 500 l 1,36,-1
100 600 m 1,40,-1
 100 690 l 1,41,-1
 190 690 l 1,42,-1
 190 600 l 1,43,-1
 100 600 l 1,40,-1
200 600 m 1,44,-1
 200 690 l 1,45,-1
 290 690 l 1,46,-1
 290 600 l 1,47,-1
 200 600 l 1,44,-1
300 600 m 1,48,-1
 300 690 l 1,49,-1
 390 690 l 1,50,-1
 390 600 l 1,51,-1
 300 600 l 1,48,-1
EndSplineSet
Validated: 1
EndChar

StartChar: D
Encoding: 68 68 36
Width: 600
VWidth: 699
Flags: W
LayerCount: 2
Fore
SplineSet
0 0 m 1,0,-1
 0 90 l 1,1,-1
 90 90 l 1,2,-1
 90 0 l 1,3,-1
 0 0 l 1,0,-1
100 0 m 1,4,-1
 100 90 l 1,5,-1
 190 90 l 1,6,-1
 190 0 l 1,7,-1
 100 0 l 1,4,-1
200 0 m 1,8,-1
 200 90 l 1,9,-1
 290 90 l 1,10,-1
 290 0 l 1,11,-1
 200 0 l 1,8,-1
300 0 m 1,12,-1
 300 90 l 1,13,-1
 390 90 l 1,14,-1
 390 0 l 1,15,-1
 300 0 l 1,12,-1
0 100 m 1,16,-1
 0 190 l 1,17,-1
 90 190 l 1,18,-1
 90 100 l 1,19,-1
 0 100 l 1,16,-1
400 100 m 1,20,-1
 400 190 l 1,21,-1
 490 190 l 1,22,-1
 490 100 l 1,23,-1
 400 100 l 1,20,-1
0 200 m 1,24,-1
 0 290 l 1,25,-1
 90 290 l 1,26,-1
 90 200 l 1,27,-1
 0 200 l 1,24,-1
400 200 m 1,28,-1
 400 290 l 1,29,-1
 490 290 l 1,30,-1
 490 200 l 1,31,-1
 400 200 l 1,28,-1
0 300 m 1,32,-1
 0 390 l 1,33,-1
 90 390 l 1,34,-1
 90 300 l 1,35,-1
 0 300 l 1,32,-1
400 300 m 1,36,-1
 400 390 l 1,37,-1
 490 390 l 1,38,-1
 490 300 l 1,39,-1
 400 300 l 1,36,-1
0 400 m 1,40,-1
 0 490 l 1,41,-1
 90 490 l 1,42,-1
 90 400 l 1,43,-1
 0 400 l 1,40,-1
400 400 m 1,44,-1
 400 490 l 1,45,-1
 490 490 l 1,46,-1
 490 400 l 1,47,-1
 400 400 l 1,44,-1
0 500 m 1,48,-1
 0 590 l 1,49,-1
 90 590 l 1,50,-1
 90 500 l 1,51,-1
 0 500 l 1,48,-1
400 500 m 1,52,-1
 400 590 l 1,53,-1
 490 590 l 1,54,-1
 490 500 l 1,55,-1
 400 500 l 1,52,-1
0 600 m 1,56,-1
 0 690 l 1,57,-1
 90 690 l 1,58,-1
 90 600 l 1,59,-1
 0 600 l 1,56,-1
100 600 m 1,60,-1
 100 690 l 1,61,-1
 190 690 l 1,62,-1
 190 600 l 1,63,-1
 100 600 l 1,60,-1
200 600 m 1,64,-1
 200 690 l 1,65,-1
 290 690 l 1,66,-1
 290 600 l 1,67,-1
 200 600 l 1,64,-1
300 600 m 1,68,-1
 300 690 l 1,69,-1
 390 690 l 1,70,-1
 390 600 l 1,71,-1
 300 600 l 1,68,-1
EndSplineSet
Validated: 1
EndChar

StartChar: E
Encoding: 69 69 37
Width: 600
VWidth: 699
Flags: W
LayerCount: 2
Fore
SplineSet
0 0 m 1,0,-1
 0 90 l 1,1,-1
 90 90 l 1,2,-1
 90 0 l 1,3,-1
 0 0 l 1,0,-1
100 0 m 1,4,-1
 100 90 l 1,5,-1
 190 90 l 1,6,-1
 190 0 l 1,7,-1
 100 0 l 1,4,-1
200 0 m 1,8,-1
 200 90 l 1,9,-1
 290 90 l 1,10,-1
 290 0 l 1,11,-1
 200 0 l 1,8,-1
300 0 m 1,12,-1
 300 90 l 1,13,-1
 390 90 l 1,14,-1
 390 0 l 1,15,-1
 300 0 l 1,12,-1
400 0 m 1,16,-1
 400 90 l 1,17,-1
 490 90 l 1,18,-1
 490 0 l 1,19,-1
 400 0 l 1,16,-1
0 100 m 1,20,-1
 0 190 l 1,21,-1
 90 190 l 1,22,-1
 90 100 l 1,23,-1
 0 100 l 1,20,-1
0 200 m 1,24,-1
 0 290 l 1,25,-1
 90 290 l 1,26,-1
 90 200 l 1,27,-1
 0 200 l 1,24,-1
0 300 m 1,28,-1
 0 390 l 1,29,-1
 90 390 l 1,30,-1
 90 300 l 1,31,-1
 0 300 l 1,28,-1
100 300 m 1,32,-1
 100 390 l 1,33,-1
 190 390 l 1,34,-1
 190 300 l 1,35,-1
 100 300 l 1,32,-1
200 300 m 1,36,-1
 200 390 l 1,37,-1
 290 390 l 1,38,-1
 290 300 l 1,39,-1
 200 300 l 1,36,-1
300 300 m 1,40,-1
 300 390 l 1,41,-1
 390 390 l 1,42,-1
 390 300 l 1,43,-1
 300 300 l 1,40,-1
0 400 m 1,44,-1
 0 490 l 1,45,-1
 90 490 l 1,46,-1
 90 400 l 1,47,-1
 0 400 l 1,44,-1
0 500 m 1,48,-1
 0 590 l 1,49,-1
 90 590 l 1,50,-1
 90 500 l 1,51,-1
 0 500 l 1,48,-1
0 600 m 1,52,-1
 0 690 l 1,53,-1
 90 690 l 1,54,-1
 90 600 l 1,55,-1
 0 600 l 1,52,-1
100 600 m 1,56,-1
 100 690 l 1,57,-1
 190 690 l 1,58,-1
 190 600 l 1,59,-1
 100 600 l 1,56,-1
200 600 m 1,60,-1
 200 690 l 1,61,-1
 290 690 l 1,62,-1
 290 600 l 1,63,-1
 200 600 l 1,60,-1
300 600 m 1,64,-1
 300 690 l 1,65,-1
 390 690 l 1,66,-1
 390 600 l 1,67,-1
 300 600 l 1,64,-1
400 600 m 1,68,-1
 400 690 l 1,69,-1
 490 690 l 1,70,-1
 490 600 l 1,71,-1
 400 600 l 1,68,-1
EndSplineSet
Validated: 1
EndChar

StartChar: F
Encoding: 70 70 38
Width: 600
VWidth: 699
Flags: W
LayerCount: 2
Fore
SplineSet
0 0 m 1,0,-1
 0 90 l 1,1,-1
 90 90 l 1,2,-1
 90 0 l 1,3,-1
 0 0 l 1,0,-1
0 100 m 1,4,-1
 0 190 l 1,5,-1
 90 190 l 1,6,-1
 90 100 l 1,7,-1
 0 100 l 1,4,-1
0 200 m 1,8,-1
 0 290 l 1,9,-1
 90 290 l 1,10,-1
 90 200 l 1,11,-1
 0 200 l 1,8,-1
0 300 m 1,12,-1
 0 390 l 1,13,-1
 90 390 l 1,14,-1
 90 300 l 1,15,-1
 0 300 l 1,12,-1
100 300 m 1,16,-1
 100 390 l 1,17,-1
 190 390 l 1,18,-1
 190 300 l 1,19,-1
 100 300 l 1,16,-1
200 300 m 1,20,-1
 200 390 l 1,21,-1
 290 390 l 1,22,-1
 290 300 l 1,23,-1
 200 300 l 1,20,-1
300 300 m 1,24,-1
 300 390 l 1,25,-1
 390 390 l 1,26,-1
 390 300 l 1,27,-1
 300 300 l 1,24,-1
0 400 m 1,28,-1
 0 490 l 1,29,-1
 90 490 l 1,30,-1
 90 400 l 1,31,-1
 0 400 l 1,28,-1
0 500 m 1,32,-1
 0 590 l 1,33,-1
 90 590 l 1,34,-1
 90 500 l 1,35,-1
 0 500 l 1,32,-1
0 600 m 1,36,-1
 0 690 l 1,37,-1
 90 690 l 1,38,-1
 90 600 l 1,39,-1
 0 600 l 1,36,-1
100 600 m 1,40,-1
 100 690 l 1,41,-1
 190 690 l 1,42,-1
 190 600 l 1,43,-1
 100 600 l 1,40,-1
200 600 m 1,44,-1
 200 690 l 1,45,-1
 290 690 l 1,46,-1
 290 600 l 1,47,-1
 200 600 l 1,44,-1
300 600 m 1,48,-1
 300 690 l 1,49,-1
 390 690 l 1,50,-1
 390 600 l 1,51,-1
 300 600 l 1,48,-1
400 600 m 1,52,-1
 400 690 l 1,53,-1
 490 690 l 1,54,-1
 490 600 l 1,55,-1
 400 600 l 1,52,-1
EndSplineSet
Validated: 1
EndChar

StartChar: G
Encoding: 71 71 39
Width: 600
VWidth: 699
Flags: W
LayerCount: 2
Fore
SplineSet
100 0 m 1,0,-1
 100 90 l 1,1,-1
 190 90 l 1,2,-1
 190 0 l 1,3,-1
 100 0 l 1,0,-1
200 0 m 1,4,-1
 200 90 l 1,5,-1
 290 90 l 1,6,-1
 290 0 l 1,7,-1
 200 0 l 1,4,-1
300 0 m 1,8,-1
 300 90 l 1,9,-1
 390 90 l 1,10,-1
 390 0 l 1,11,-1
 300 0 l 1,8,-1
0 100 m 1,12,-1
 0 190 l 1,13,-1
 90 190 l 1,14,-1
 90 100 l 1,15,-1
 0 100 l 1,12,-1
400 100 m 1,16,-1
 400 190 l 1,17,-1
 490 190 l 1,18,-1
 490 100 l 1,19,-1
 400 100 l 1,16,-1
0 200 m 1,20,-1
 0 290 l 1,21,-1
 90 290 l 1,22,-1
 90 200 l 1,23,-1
 0 200 l 1,20,-1
400 200 m 1,24,-1
 400 290 l 1,25,-1
 490 290 l 1,26,-1
 490 200 l 1,27,-1
 400 200 l 1,24,-1
0 300 m 1,28,-1
 0 390 l 1,29,-1
 90 390 l 1,30,-1
 90 300 l 1,31,-1
 0 300 l 1,28,-1
200 300 m 1,32,-1
 200 390 l 1,33,-1
 290 390 l 1,34,-1
 290 300 l 1,35,-1
 200 300 l 1,32,-1
300 300 m 1,36,-1
 300 390 l 1,37,-1
 390 390 l 1,38,-1
 390 300 l 1,39,-1
 300 300 l 1,36,-1
400 300 m 1,40,-1
 400 390 l 1,41,-1
 490 390 l 1,42,-1
 490 300 l 1,43,-1
 400 300 l 1,40,-1
0 400 m 1,44,-1
 0 490 l 1,45,-1
 90 490 l 1,46,-1
 90 400 l 1,47,-1
 0 400 l 1,44,-1
0 500 m 1,48,-1
 0 590 l 1,49,-1
 90 590 l 1,50,-1
 90 500 l 1,51,-1
 0 500 l 1,48,-1
400 500 m 1,52,-1
 400 590 l 1,53,-1
 490 590 l 1,54,-1
 490 500 l 1,55,-1
 400 500 l 1,52,-1
100 600 m 1,56,-1
 100 690 l 1,57,-1
 190 690 l 1,58,-1
 190 600 l 1,59,-1
 100 600 l 1,56,-1
200 600 m 1,60,-1
 200 690 l 1,61,-1
 290 690 l 1,62,-1
 290 600 l 1,63,-1
 200 600 l 1,60,-1
300 600 m 1,64,-1
 300 690 l 1,65,-1
 390 690 l 1,66,-1
 390 600 l 1,67,-1
 300 600 l 1,64,-1
EndSplineSet
Validated: 1
EndChar

StartChar: H
Encoding: 72 72 40
Width: 600
VWidth: 699
Flags: W
LayerCount: 2
Fore
SplineSet
0 0 m 1,0,-1
 0 90 l 1,1,-1
 90 90 l 1,2,-1
 90 0 l 1,3,-1
 0 0 l 1,0,-1
400 0 m 1,4,-1
 400 90 l 1,5,-1
 490 90 l 1,6,-1
 490 0 l 1,7,-1
 400 0 l 1,4,-1
0 100 m 1,8,-1
 0 190 l 1,9,-1
 90 190 l 1,10,-1
 90 100 l 1,11,-1
 0 100 l 1,8,-1
400 100 m 1,12,-1
 400 190 l 1,13,-1
 490 190 l 1,14,-1
 490 100 l 1,15,-1
 400 100 l 1,12,-1
0 200 m 1,16,-1
 0 290 l 1,17,-1
 90 290 l 1,18,-1
 90 200 l 1,19,-1
 0 200 l 1,16,-1
400 200 m 1,20,-1
 400 290 l 1,21,-1
 490 290 l 1,22,-1
 490 200 l 1,23,-1
 400 200 l 1,20,-1
0 300 m 1,24,-1
 0 390 l 1,25,-1
 90 390 l 1,26,-1
 90 300 l 1,27,-1
 0 300 l 1,24,-1
100 300 m 1,28,-1
 100 390 l 1,29,-1
 190 390 l 1,30,-1
 190 300 l 1,31,-1
 100 300 l 1,28,-1
200 300 m 1,32,-1
 200 390 l 1,33,-1
 290 390 l 1,34,-1
 290 300 l 1,35,-1
 200 300 l 1,32,-1
300 300 m 1,36,-1
 300 390 l 1,37,-1
 390 390 l 1,38,-1
 390 300 l 1,39,-1
 300 300 l 1,36,-1
400 300 m 1,40,-1
 400 390 l 1,41,-1
 490 390 l 1,42,-1
 490 300 l 1,43,-1
 400 300 l 1,40,-1
0 400 m 1,44,-1
 0 490 l 1,45,-1
 90 490 l 1,46,-1
 90 400 l 1,47,-1
 0 400 l 1,44,-1
400 400 m 1,48,-1
 400 490 l 1,49,-1
 490 490 l 1,50,-1
 490 400 l 1,51,-1
 400 400 l 1,48,-1
0 500 m 1,52,-1
 0 590 l 1,53,-1
 90 590 l 1,54,-1
 90 500 l 1,55,-1
 0 500 l 1,52,-1
400 500 m 1,56,-1
 400 590 l 1,57,-1
 490 590 l 1,58,-1
 490 500 l 1,59,-1
 400 500 l 1,56,-1
0 600 m 1,60,-1
 0 690 l 1,61,-1
 90 690 l 1,62,-1
 90 600 l 1,63,-1
 0 600 l 1,60,-1
400 600 m 1,64,-1
 400 690 l 1,65,-1
 490 690 l 1,66,-1
 490 600 l 1,67,-1
 400 600 l 1,64,-1
EndSplineSet
Validated: 1
EndChar

StartChar: I
Encoding: 73 73 41
Width: 600
VWidth: 699
Flags: W
LayerCount: 2
Fore
SplineSet
100 0 m 1,0,-1
 100 90 l 1,1,-1
 190 90 l 1,2,-1
 190 0 l 1,3,-1
 100 0 l 1,0,-1
200 0 m 1,4,-1
 200 90 l 1,5,-1
 290 90 l 1,6,-1
 290 0 l 1,7,-1
 200 0 l 1,4,-1
300 0 m 1,8,-1
 300 90 l 1,9,-1
 390 90 l 1,10,-1
 390 0 l 1,11,-1
 300 0 l 1,8,-1
200 100 m 1,12,-1
 200 190 l 1,13,-1
 290 190 l 1,14,-1
 290 100 l 1,15,-1
 200 100 l 1,12,-1
200 200 m 1,16,-1
 200 290 l 1,17,-1
 290 290 l 1,18,-1
 290 200 l 1,19,-1
 200 200 l 1,16,-1
200 300 m 1,20,-1
 200 390 l 1,21,-1
 290 390 l 1,22,-1
 290 300 l 1,23,-1
 200 300 l 1,20,-1
200 400 m 1,24,-1
 200 490 l 1,25,-1
 290 490 l 1,26,-1
 290 400 l 1,27,-1
 200 400 l 1,24,-1
200 500 m 1,28,-1
 200 590 l 1,29,-1
 290 590 l 1,30,-1
 290 500 l 1,31,-1
 200 500 l 1,28,-1
100 600 m 1,32,-1
 100 690 l 1,33,-1
 190 690 l 1,34,-1
 190 600 l 1,35,-1
 100 600 l 1,32,-1
200 600 m 1,36,-1
 200 690 l 1,37,-1
 290 690 l 1,38,-1
 290 600 l 1,39,-1
 200 600 l 1,36,-1
300 600 m 1,40,-1
 300 690 l 1,41,-1
 390 690 l 1,42,-1
 390 600 l 1,43,-1
 300 600 l 1,40,-1
EndSplineSet
Validated: 1
EndChar

StartChar: J
Encoding: 74 74 42
Width: 600
VWidth: 699
Flags: W
LayerCount: 2
Fore
SplineSet
100 0 m 1,0,-1
 100 90 l 1,1,-1
 190 90 l 1,2,-1
 190 0 l 1,3,-1
 100 0 l 1,0,-1
200 0 m 1,4,-1
 200 90 l 1,5,-1
 290 90 l 1,6,-1
 290 0 l 1,7,-1
 200 0 l 1,4,-1
300 0 m 1,8,-1
 300 90 l 1,9,-1
 390 90 l 1,10,-1
 390 0 l 1,11,-1
 300 0 l 1,8,-1
0 100 m 1,12,-1
 0 190 l 1,13,-1
 90 190 l 1,14,-1
 90 100 l 1,15,-1
 0 100 l 1,12,-1
400 100 m 1,16,-1
 400 190 l 1,17,-1
 490 190 l 1,18,-1
 490 100 l 1,19,-1
 400 100 l 1,16,-1
0 200 m 1,20,-1
 0 290 l 1,21,-1
 90 290 l 1,22,-1
 90 200 l 1,23,-1
 0 200 l 1,20,-1
400 200 m 1,24,-1
 400 290 l 1,25,-1
 490 290 l 1,26,-1
 490 200 l 1,27,-1
 400 200 l 1,24,-1
400 300 m 1,28,-1
 400 390 l 1,29,-1
 490 390 l 1,30,-1
 490 300 l 1,31,-1
 400 300 l 1,28,-1
400 400 m 1,32,-1
 400 490 l 1,33,-1
 490 490 l 1,34,-1
 490 400 l 1,35,-1
 400 400 l 1,32,-1
400 500 m 1,36,-1
 400 590 l 1,37,-1
 490 590 l 1,38,-1
 490 500 l 1,39,-1
 400 500 l 1,36,-1
400 600 m 1,40,-1
 400 690 l 1,41,-1
 490 690 l 1,42,-1
 490 600 l 1,43,-1
 400 600 l 1,40,-1
EndSplineSet
Validated: 1
EndChar

StartChar: K
Encoding: 75 75 43
Width: 600
VWidth: 699
Flags: W
LayerCount: 2
Fore
SplineSet
0 0 m 1,0,-1
 0 90 l 1,1,-1
 90 90 l 1,2,-1
 90 0 l 1,3,-1
 0 0 l 1,0,-1
400 0 m 1,4,-1
 400 90 l 1,5,-1
 490 90 l 1,6,-1
 490 0 l 1,7,-1
 400 0 l 1,4,-1
0 100 m 1,8,-1
 0 190 l 1,9,-1
 90 190 l 1,10,-1
 90 100 l 1,11,-1
 0 100 l 1,8,-1
300 100 m 1,12,-1
 300 190 l 1,13,-1
 390 190 l 1,14,-1
 390 100 l 1,15,-1
 300 100 l 1,12,-1
0 200 m 1,16,-1
 0 290 l 1,17,-1
 90 290 l 1,18,-1
 90 200 l 1,19,-1
 0 200 l 1,16,-1
200 200 m 1,20,-1
 200 290 l 1,21,-1
 290 290 l 1,22,-1
 290 200 l 1,23,-1
 200 200 l 1,20,-1
0 300 m 1,24,-1
 0 390 l 1,25,-1
 90 390 l 1,26,-1
 90 300 l 1,27,-1
 0 300 l 1,24,-1
100 300 m 1,28,-1
 100 390 l 1,29,-1
 190 390 l 1,30,-1
 190 300 l 1,31,-1
 100 300 l 1,28,-1
0 400 m 1,32,-1
 0 490 l 1,33,-1
 90 490 l 1,34,-1
 90 400 l 1,35,-1
 0 400 l 1,32,-1
200 400 m 1,36,-1
 200 490 l 1,37,-1
 290 490 l 1,38,-1
 290 400 l 1,39,-1
 200 400 l 1,36,-1
0 500 m 1,40,-1
 0 590 l 1,41,-1
 90 590 l 1,42,-1
 90 500 l 1,43,-1
 0 500 l 1,40,-1
300 500 m 1,44,-1
 300 590 l 1,45,-1
 390 590 l 1,46,-1
 390 500 l 1,47,-1
 300 500 l 1,44,-1
0 600 m 1,48,-1
 0 690 l 1,49,-1
 90 690 l 1,50,-1
 90 600 l 1,51,-1
 0 600 l 1,48,-1
400 600 m 1,52,-1
 400 690 l 1,53,-1
 490 690 l 1,54,-1
 490 600 l 1,55,-1
 400 600 l 1,52,-1
EndSplineSet
Validated: 1
EndChar

StartChar: L
Encoding: 76 76 44
Width: 600
VWidth: 699
Flags: W
LayerCount: 2
Fore
SplineSet
0 0 m 1,0,-1
 0 90 l 1,1,-1
 90 90 l 1,2,-1
 90 0 l 1,3,-1
 0 0 l 1,0,-1
100 0 m 1,4,-1
 100 90 l 1,5,-1
 190 90 l 1,6,-1
 190 0 l 1,7,-1
 100 0 l 1,4,-1
200 0 m 1,8,-1
 200 90 l 1,9,-1
 290 90 l 1,10,-1
 290 0 l 1,11,-1
 200 0 l 1,8,-1
300 0 m 1,12,-1
 300 90 l 1,13,-1
 390 90 l 1,14,-1
 390 0 l 1,15,-1
 300 0 l 1,12,-1
400 0 m 1,16,-1
 400 90 l 1,17,-1
 490 90 l 1,18,-1
 490 0 l 1,19,-1
 400 0 l 1,16,-1
0 100 m 1,20,-1
 0 190 l 1,21,-1
 90 190 l 1,22,-1
 90 100 l 1,23,-1
 0 100 l 1,20,-1
0 200 m 1,24,-1
 0 290 l 1,25,-1
 90 290 l 1,26,-1
 90 200 l 1,27,-1
 0 200 l 1,24,-1
0 300 m 1,28,-1
 0 390 l 1,29,-1
 90 390 l 1,30,-1
 90 300 l 1,31,-1
 0 300 l 1,28,-1
0 400 m 1,32,-1
 0 490 l 1,33,-1
 90 490 l 1,34,-1
 90 400 l 1,35,-1
 0 400 l 1,32,-1
0 500 m 1,36,-1
 0 590 l 1,37,-1
 90 590 l 1,38,-1
 90 500 l 1,39,-1
 0 500 l 1,36,-1
0 600 m 1,40,-1
 0 690 l 1,41,-1
 90 690 l 1,42,-1
 90 600 l 1,43,-1
 0 600 l 1,40,-1
EndSplineSet
Validated: 1
EndChar

StartChar: M
Encoding: 77 77 45
Width: 600
VWidth: 699
Flags: W
LayerCount: 2
Fore
SplineSet
0 0 m 1,0,-1
 0 90 l 1,1,-1
 90 90 l 1,2,-1
 90 0 l 1,3,-1
 0 0 l 1,0,-1
400 0 m 1,4,-1
 400 90 l 1,5,-1
 490 90 l 1,6,-1
 490 0 l 1,7,-1
 400 0 l 1,4,-1
0 100 m 1,8,-1
 0 190 l 1,9,-1
 90 190 l 1,10,-1
 90 100 l 1,11,-1
 0 100 l 1,8,-1
400 100 m 1,12,-1
 400 190 l 1,13,-1
 490 190 l 1,14,-1
 490 100 l 1,15,-1
 400 100 l 1,12,-1
0 200 m 1,16,-1
 0 290 l 1,17,-1
 90 290 l 1,18,-1
 90 200 l 1,19,-1
 0 200 l 1,16,-1
400 200 m 1,20,-1
 400 290 l 1,21,-1
 490 290 l 1,22,-1
 490 200 l 1,23,-1
 400 200 l 1,20,-1
0 300 m 1,24,-1
 0 390 l 1,25,-1
 90 390 l 1,26,-1
 90 300 l 1,27,-1
 0 300 l 1,24,-1
400 300 m 1,28,-1
 400 390 l 1,29,-1
 490 390 l 1,30,-1
 490 300 l 1,31,-1
 400 300 l 1,28,-1
0 400 m 1,32,-1
 0 490 l 1,33,-1
 90 490 l 1,34,-1
 90 400 l 1,35,-1
 0 400 l 1,32,-1
200 400 m 1,36,-1
 200 490 l 1,37,-1
 290 490 l 1,38,-1
 290 400 l 1,39,-1
 200 400 l 1,36,-1
400 400 m 1,40,-1
 400 490 l 1,41,-1
 490 490 l 1,42,-1
 490 400 l 1,43,-1
 400 400 l 1,40,-1
0 500 m 1,44,-1
 0 590 l 1,45,-1
 90 590 l 1,46,-1
 90 500 l 1,47,-1
 0 500 l 1,44,-1
200 500 m 1,48,-1
 200 590 l 1,49,-1
 290 590 l 1,50,-1
 290 500 l 1,51,-1
 200 500 l 1,48,-1
400 500 m 1,52,-1
 400 590 l 1,53,-1
 490 590 l 1,54,-1
 490 500 l 1,55,-1
 400 500 l 1,52,-1
0 600 m 1,56,-1
 0 690 l 1,57,-1
 90 690 l 1,58,-1
 90 600 l 1,59,-1
 0 600 l 1,56,-1
100 600 m 1,60,-1
 100 690 l 1,61,-1
 190 690 l 1,62,-1
 190 600 l 1,63,-1
 100 600 l 1,60,-1
300 600 m 1,64,-1
 300 690 l 1,65,-1
 390 690 l 1,66,-1
 390 600 l 1,67,-1
 300 600 l 1,64,-1
400 600 m 1,68,-1
 400 690 l 1,69,-1
 490 690 l 1,70,-1
 490 600 l 1,71,-1
 400 600 l 1,68,-1
EndSplineSet
Validated: 1
EndChar

StartChar: N
Encoding: 78 78 46
Width: 600
VWidth: 699
Flags: W
LayerCount: 2
Fore
SplineSet
0 0 m 1,0,-1
 0 90 l 1,1,-1
 90 90 l 1,2,-1
 90 0 l 1,3,-1
 0 0 l 1,0,-1
400 0 m 1,4,-1
 400 90 l 1,5,-1
 490 90 l 1,6,-1
 490 0 l 1,7,-1
 400 0 l 1,4,-1
0 100 m 1,8,-1
 0 190 l 1,9,-1
 90 190 l 1,10,-1
 90 100 l 1,11,-1
 0 100 l 1,8,-1
400 100 m 1,12,-1
 400 190 l 1,13,-1
 490 190 l 1,14,-1
 490 100 l 1,15,-1
 400 100 l 1,12,-1
0 200 m 1,16,-1
 0 290 l 1,17,-1
 90 290 l 1,18,-1
 90 200 l 1,19,-1
 0 200 l 1,16,-1
300 200 m 1,20,-1
 300 290 l 1,21,-1
 390 290 l 1,22,-1
 390 200 l 1,23,-1
 300 200 l 1,20,-1
400 200 m 1,24,-1
 400 290 l 1,25,-1
 490 290 l 1,26,-1
 490 200 l 1,27,-1
 400 200 l 1,24,-1
0 300 m 1,28,-1
 0 390 l 1,29,-1
 90 390 l 1,30,-1
 90 300 l 1,31,-1
 0 300 l 1,28,-1
200 300 m 1,32,-1
 200 390 l 1,33,-1
 290 390 l 1,34,-1
 290 300 l 1,35,-1
 200 300 l 1,32,-1
400 300 m 1,36,-1
 400 390 l 1,37,-1
 490 390 l 1,38,-1
 490 300 l 1,39,-1
 400 300 l 1,36,-1
0 400 m 1,40,-1
 0 490 l 1,41,-1
 90 490 l 1,42,-1
 90 400 l 1,43,-1
 0 400 l 1,40,-1
100 400 m 1,44,-1
 100 490 l 1,45,-1
 190 490 l 1,46,-1
 190 400 l 1,47,-1
 100 400 l 1,44,-1
400 400 m 1,48,-1
 400 490 l 1,49,-1
 490 490 l 1,50,-1
 490 400 l 1,51,-1
 400 400 l 1,48,-1
0 500 m 1,52,-1
 0 590 l 1,53,-1
 90 590 l 1,54,-1
 90 500 l 1,55,-1
 0 500 l 1,52,-1
400 500 m 1,56,-1
 400 590 l 1,57,-1
 490 590 l 1,58,-1
 490 500 l 1,59,-1
 400 500 l 1,56,-1
0 600 m 1,60,-1
 0 690 l 1,61,-1
 90 690 l 1,62,-1
 90 600 l 1,63,-1
 0 600 l 1,60,-1
400 600 m 1,64,-1
 400 690 l 1,65,-1
 490 690 l 1,66,-1
 490 600 l 1,67,-1
 400 600 l 1,64,-1
EndSplineSet
Validated: 1
EndChar

StartChar: O
Encoding: 79 79 47
Width: 600
VWidth: 699
Flags: W
LayerCount: 2
Fore
SplineSet
100 0 m 1,0,-1
 100 90 l 1,1,-1
 190 90 l 1,2,-1
 190 0 l 1,3,-1
 100 0 l 1,0,-1
200 0 m 1,4,-1
 200 90 l 1,5,-1
 290 90 l 1,6,-1
 290 0 l 1,7,-1
 200 0 l 1,4,-1
300 0 m 1,8,-1
 300 90 l 1,9,-1
 390 90 l 1,10,-1
 390 0 l 1,11,-1
 300 0 l 1,8,-1
0 100 m 1,12,-1
 0 190 l 1,13,-1
 90 190 l 1,14,-1
 90 100 l 1,15,-1
 0 100 l 1,12,-1
400 100 m 1,16,-1
 400 190 l 1,17,-1
 490 190 l 1,18,-1
 490 100 l 1,19,-1
 400 100 l 1,16,-1
0 200 m 1,20,-1
 0 290 l 1,21,-1
 90 290 l 1,22,-1
 90 200 l 1,23,-1
 0 200 l 1,20,-1
400 200 m 1,24,-1
 400 290 l 1,25,-1
 490 290 l 1,26,-1
 490 200 l 1,27,-1
 400 200 l 1,24,-1
0 300 m 1,28,-1
 0 390 l 1,29,-1
 90 390 l 1,30,-1
 90 300 l 1,31,-1
 0 300 l 1,28,-1
400 300 m 1,32,-1
 400 390 l 1,33,-1
 490 390 l 1,34,-1
 490 300 l 1,35,-1
 400 300 l 1,32,-1
0 400 m 1,36,-1
 0 490 l 1,37,-1
 90 490 l 1,38,-1
 90 400 l 1,39,-1
 0 400 l 1,36,-1
400 400 m 1,40,-1
 400 490 l 1,41,-1
 490 490 l 1,42,-1
 490 400 l 1,43,-1
 400 400 l 1,40,-1
0 500 m 1,44,-1
 0 590 l 1,45,-1
 90 590 l 1,46,-1
 90 500 l 1,47,-1
 0 500 l 1,44,-1
400 500 m 1,48,-1
 400 590 l 1,49,-1
 490 590 l 1,50,-1
 490 500 l 1,51,-1
 400 500 l 1,48,-1
100 600 m 1,52,-1
 100 690 l 1,53,-1
 190 690 l 1,54,-1
 190 600 l 1,55,-1
 100 600 l 1,52,-1
200 600 m 1,56,-1
 200 690 l 1,57,-1
 290 690 l 1,58,-1
 290 600 l 1,59,-1
 200 600 l 1,56,-1
300 600 m 1,60,-1
 300 690 l 1,61,-1
 390 690 l 1,62,-1
 390 600 l 1,63,-1
 300 600 l 1,60,-1
EndSplineSet
Validated: 1
EndChar

StartChar: P
Encoding: 80 80 48
Width: 600
VWidth: 699
Flags: W
LayerCount: 2
Fore
SplineSet
0 0 m 1,0,-1
 0 90 l 1,1,-1
 90 90 l 1,2,-1
 90 0 l 1,3,-1
 0 0 l 1,0,-1
0 100 m 1,4,-1
 0 190 l 1,5,-1
 90 190 l 1,6,-1
 90 100 l 1,7,-1
 0 100 l 1,4,-1
0 200 m 1,8,-1
 0 290 l 1,9,-1
 90 290 l 1,10,-1
 90 200 l 1,11,-1
 0 200 l 1,8,-1
0 300 m 1,12,-1
 0 390 l 1,13,-1
 90 390 l 1,14,-1
 90 300 l 1,15,-1
 0 300 l 1,12,-1
100 300 m 1,16,-1
 100 390 l 1,17,-1
 190 390 l 1,18,-1
 190 300 l 1,19,-1
 100 300 l 1,16,-1
200 300 m 1,20,-1
 200 390 l 1,21,-1
 290 390 l 1,22,-1
 290 300 l 1,23,-1
 200 300 l 1,20,-1
300 300 m 1,24,-1
 300 390 l 1,25,-1
 390 390 l 1,26,-1
 390 300 l 1,27,-1
 300 300 l 1,24,-1
0 400 m 1,28,-1
 0 490 l 1,29,-1
 90 490 l 1,30,-1
 90 400 l 1,31,-1
 0 400 l 1,28,-1
400 400 m 1,32,-1
 400 490 l 1,33,-1
 490 490 l 1,34,-1
 490 400 l 1,35,-1
 400 400 l 1,32,-1
0 500 m 1,36,-1
 0 590 l 1,37,-1
 90 590 l 1,38,-1
 90 500 l 1,39,-1
 0 500 l 1,36,-1
400 500 m 1,40,-1
 400 590 l 1,41,-1
 490 590 l 1,42,-1
 490 500 l 1,43,-1
 400 500 l 1,40,-1
0 600 m 1,44,-1
 0 690 l 1,45,-1
 90 690 l 1,46,-1
 90 600 l 1,47,-1
 0 600 l 1,44,-1
100 600 m 1,48,-1
 100 690 l 1,49,-1
 190 690 l 1,50,-1
 190 600 l 1,51,-1
 100 600 l 1,48,-1
200 600 m 1,52,-1
 200 690 l 1,53,-1
 290 690 l 1,54,-1
 290 600 l 1,55,-1
 200 600 l 1,52,-1
300 600 m 1,56,-1
 300 690 l 1,57,-1
 390 690 l 1,58,-1
 390 600 l 1,59,-1
 300 600 l 1,56,-1
EndSplineSet
Validated: 1
EndChar

StartChar: Q
Encoding: 81 81 49
Width: 600
VWidth: 699
Flags: W
LayerCount: 2
Fore
SplineSet
100 0 m 1,0,-1
 100 90 l 1,1,-1
 190 90 l 1,2,-1
 190 0 l 1,3,-1
 100 0 l 1,0,-1
200 0 m 1,4,-1
 200 90 l 1,5,-1
 290 90 l 1,6,-1
 290 0 l 1,7,-1
 200 0 l 1,4,-1
400 0 m 1,8,-1
 400 90 l 1,9,-1
 490 90 l 1,10,-1
 490 0 l 1,11,-1
 400 0 l 1,8,-1
0 100 m 1,12,-1
 0 190 l 1,13,-1
 90 190 l 1,14,-1
 90 100 l 1,15,-1
 0 100 l 1,12,-1
300 100 m 1,16,-1
 300 190 l 1,17,-1
 390 190 l 1,18,-1
 390 100 l 1,19,-1
 300 100 l 1,16,-1
0 200 m 1,20,-1
 0 290 l 1,21,-1
 90 290 l 1,22,-1
 90 200 l 1,23,-1
 0 200 l 1,20,-1
200 200 m 1,24,-1
 200 290 l 1,25,-1
 290 290 l 1,26,-1
 290 200 l 1,27,-1
 200 200 l 1,24,-1
400 200 m 1,28,-1
 400 290 l 1,29,-1
 490 290 l 1,30,-1
 490 200 l 1,31,-1
 400 200 l 1,28,-1
0 300 m 1,32,-1
 0 390 l 1,33,-1
 90 390 l 1,34,-1
 90 300 l 1,35,-1
 0 300 l 1,32,-1
400 300 m 1,36,-1
 400 390 l 1,37,-1
 490 390 l 1,38,-1
 490 300 l 1,39,-1
 400 300 l 1,36,-1
0 400 m 1,40,-1
 0 490 l 1,41,-1
 90 490 l 1,42,-1
 90 400 l 1,43,-1
 0 400 l 1,40,-1
400 400 m 1,44,-1
 400 490 l 1,45,-1
 490 490 l 1,46,-1
 490 400 l 1,47,-1
 400 400 l 1,44,-1
0 500 m 1,48,-1
 0 590 l 1,49,-1
 90 590 l 1,50,-1
 90 500 l 1,51,-1
 0 500 l 1,48,-1
400 500 m 1,52,-1
 400 590 l 1,53,-1
 490 590 l 1,54,-1
 490 500 l 1,55,-1
 400 500 l 1,52,-1
100 600 m 1,56,-1
 100 690 l 1,57,-1
 190 690 l 1,58,-1
 190 600 l 1,59,-1
 100 600 l 1,56,-1
200 600 m 1,60,-1
 200 690 l 1,61,-1
 290 690 l 1,62,-1
 290 600 l 1,63,-1
 200 600 l 1,60,-1
300 600 m 1,64,-1
 300 690 l 1,65,-1
 390 690 l 1,66,-1
 390 600 l 1,67,-1
 300 600 l 1,64,-1
EndSplineSet
Validated: 1
EndChar

StartChar: R
Encoding: 82 82 50
Width: 600
VWidth: 699
Flags: W
LayerCount: 2
Fore
SplineSet
0 0 m 1,0,-1
 0 90 l 1,1,-1
 90 90 l 1,2,-1
 90 0 l 1,3,-1
 0 0 l 1,0,-1
400 0 m 1,4,-1
 400 90 l 1,5,-1
 490 90 l 1,6,-1
 490 0 l 1,7,-1
 400 0 l 1,4,-1
0 100 m 1,8,-1
 0 190 l 1,9,-1
 90 190 l 1,10,-1
 90 100 l 1,11,-1
 0 100 l 1,8,-1
400 100 m 1,12,-1
 400 190 l 1,13,-1
 490 190 l 1,14,-1
 490 100 l 1,15,-1
 400 100 l 1,12,-1
0 200 m 1,16,-1
 0 290 l 1,17,-1
 90 290 l 1,18,-1
 90 200 l 1,19,-1
 0 200 l 1,16,-1
300 200 m 1,20,-1
 300 290 l 1,21,-1
 390 290 l 1,22,-1
 390 200 l 1,23,-1
 300 200 l 1,20,-1
0 300 m 1,24,-1
 0 390 l 1,25,-1
 90 390 l 1,26,-1
 90 300 l 1,27,-1
 0 300 l 1,24,-1
100 300 m 1,28,-1
 100 390 l 1,29,-1
 190 390 l 1,30,-1
 190 300 l 1,31,-1
 100 300 l 1,28,-1
200 300 m 1,32,-1
 200 390 l 1,33,-1
 290 390 l 1,34,-1
 290 300 l 1,35,-1
 200 300 l 1,32,-1
300 300 m 1,36,-1
 300 390 l 1,37,-1
 390 390 l 1,38,-1
 390 300 l 1,39,-1
 300 300 l 1,36,-1
0 400 m 1,40,-1
 0 490 l 1,41,-1
 90 490 l 1,42,-1
 90 400 l 1,43,-1
 0 400 l 1,40,-1
400 400 m 1,44,-1
 400 490 l 1,45,-1
 490 490 l 1,46,-1
 490 400 l 1,47,-1
 400 400 l 1,44,-1
0 500 m 1,48,-1
 0 590 l 1,49,-1
 90 590 l 1,50,-1
 90 500 l 1,51,-1
 0 500 l 1,48,-1
400 500 m 1,52,-1
 400 590 l 1,53,-1
 490 590 l 1,54,-1
 490 500 l 1,55,-1
 400 500 l 1,52,-1
0 600 m 1,56,-1
 0 690 l 1,57,-1
 90 690 l 1,58,-1
 90 600 l 1,59,-1
 0 600 l 1,56,-1
100 600 m 1,60,-1
 100 690 l 1,61,-1
 190 690 l 1,62,-1
 190 600 l 1,63,-1
 100 600 l 1,60,-1
200 600 m 1,64,-1
 200 690 l 1,65,-1
 290 690 l 1,66,-1
 290 600 l 1,67,-1
 200 600 l 1,64,-1
300 600 m 1,68,-1
 300 690 l 1,69,-1
 390 690 l 1,70,-1
 390 600 l 1,71,-1
 300 600 l 1,68,-1
EndSplineSet
Validated: 1
EndChar

StartChar: S
Encoding: 83 83 51
Width: 600
VWidth: 699
Flags: W
LayerCount: 2
Fore
SplineSet
100 0 m 1,0,-1
 100 90 l 1,1,-1
 190 90 l 1,2,-1
 190 0 l 1,3,-1
 100 0 l 1,0,-1
200 0 m 1,4,-1
 200 90 l 1,5,-1
 290 90 l 1,6,-1
 290 0 l 1,7,-1
 200 0 l 1,4,-1
300 0 m 1,8,-1
 300 90 l 1,9,-1
 390 90 l 1,10,-1
 390 0 l 1,11,-1
 300 0 l 1,8,-1
0 100 m 1,12,-1
 0 190 l 1,13,-1
 90 190 l 1,14,-1
 90 100 l 1,15,-1
 0 100 l 1,12,-1
400 100 m 1,16,-1
 400 190 l 1,17,-1
 490 190 l 1,18,-1
 490 100 l 1,19,-1
 400 100 l 1,16,-1
400 200 m 1,20,-1
 400 290 l 1,21,-1
 490 290 l 1,22,-1
 490 200 l 1,23,-1
 400 200 l 1,20,-1
100 300 m 1,24,-1
 100 390 l 1,25,-1
 190 390 l 1,26,-1
 190 300 l 1,27,-1
 100 300 l 1,24,-1
200 300 m 1,28,-1
 200 390 l 1,29,-1
 290 390 l 1,30,-1
 290 300 l 1,31,-1
 200 300 l 1,28,-1
300 300 m 1,32,-1
 300 390 l 1,33,-1
 390 390 l 1,34,-1
 390 300 l 1,35,-1
 300 300 l 1,32,-1
0 400 m 1,36,-1
 0 490 l 1,37,-1
 90 490 l 1,38,-1
 90 400 l 1,39,-1
 0 400 l 1,36,-1
0 500 m 1,40,-1
 0 590 l 1,41,-1
 90 590 l 1,42,-1
 90 500 l 1,43,-1
 0 500 l 1,40,-1
400 500 m 1,44,-1
 400 590 l 1,45,-1
 490 590 l 1,46,-1
 490 500 l 1,47,-1
 400 500 l 1,44,-1
100 600 m 1,48,-1
 100 690 l 1,49,-1
 190 690 l 1,50,-1
 190 600 l 1,51,-1
 100 600 l 1,48,-1
200 600 m 1,52,-1
 200 690 l 1,53,-1
 290 690 l 1,54,-1
 290 600 l 1,55,-1
 200 600 l 1,52,-1
300 600 m 1,56,-1
 300 690 l 1,57,-1
 390 690 l 1,58,-1
 390 600 l 1,59,-1
 300 600 l 1,56,-1
EndSplineSet
Validated: 1
EndChar

StartChar: T
Encoding: 84 84 52
Width: 600
VWidth: 699
Flags: W
LayerCount: 2
Fore
SplineSet
200 0 m 1,0,-1
 200 90 l 1,1,-1
 290 90 l 1,2,-1
 290 0 l 1,3,-1
 200 0 l 1,0,-1
200 100 m 1,4,-1
 200 190 l 1,5,-1
 290 190 l 1,6,-1
 290 100 l 1,7,-1
 200 100 l 1,4,-1
200 200 m 1,8,-1
 200 290 l 1,9,-1
 290 290 l 1,10,-1
 290 200 l 1,11,-1
 200 200 l 1,8,-1
200 300 m 1,12,-1
 200 390 l 1,13,-1
 290 390 l 1,14,-1
 290 300 l 1,15,-1
 200 300 l 1,12,-1
200 400 m 1,16,-1
 200 490 l 1,17,-1
 290 490 l 1,18,-1
 290 400 l 1,19,-1
 200 400 l 1,16,-1
200 500 m 1,20,-1
 200 590 l 1,21,-1
 290 590 l 1,22,-1
 290 500 l 1,23,-1
 200 500 l 1,20,-1
0 600 m 1,24,-1
 0 690 l 1,25,-1
 90 690 l 1,26,-1
 90 600 l 1,27,-1
 0 600 l 1,24,-1
100 600 m 1,28,-1
 100 690 l 1,29,-1
 190 690 l 1,30,-1
 190 600 l 1,31,-1
 100 600 l 1,28,-1
200 600 m 1,32,-1
 200 690 l 1,33,-1
 290 690 l 1,34,-1
 290 600 l 1,35,-1
 200 600 l 1,32,-1
300 600 m 1,36,-1
 300 690 l 1,37,-1
 390 690 l 1,38,-1
 390 600 l 1,39,-1
 300 600 l 1,36,-1
400 600 m 1,40,-1
 400 690 l 1,41,-1
 490 690 l 1,42,-1
 490 600 l 1,43,-1
 400 600 l 1,40,-1
EndSplineSet
Validated: 1
EndChar

StartChar: U
Encoding: 85 85 53
Width: 600
VWidth: 699
Flags: W
LayerCount: 2
Fore
SplineSet
100 0 m 1,0,-1
 100 90 l 1,1,-1
 190 90 l 1,2,-1
 190 0 l 1,3,-1
 100 0 l 1,0,-1
200 0 m 1,4,-1
 200 90 l 1,5,-1
 290 90 l 1,6,-1
 290 0 l 1,7,-1
 200 0 l 1,4,-1
300 0 m 1,8,-1
 300 90 l 1,9,-1
 390 90 l 1,10,-1
 390 0 l 1,11,-1
 300 0 l 1,8,-1
0 100 m 1,12,-1
 0 190 l 1,13,-1
 90 190 l 1,14,-1
 90 100 l 1,15,-1
 0 100 l 1,12,-1
400 100 m 1,16,-1
 400 190 l 1,17,-1
 490 190 l 1,18,-1
 490 100 l 1,19,-1
 400 100 l 1,16,-1
0 200 m 1,20,-1
 0 290 l 1,21,-1
 90 290 l 1,22,-1
 90 200 l 1,23,-1
 0 200 l 1,20,-1
400 200 m 1,24,-1
 400 290 l 1,25,-1
 490 290 l 1,26,-1
 490 200 l 1,27,-1
 400 200 l 1,24,-1
0 300 m 1,28,-1
 0 390 l 1,29,-1
 90 390 l 1,30,-1
 90 300 l 1,31,-1
 0 300 l 1,28,-1
400 300 m 1,32,-1
 400 390 l 1,33,-1
 490 390 l 1,34,-1
 490 300 l 1,35,-1
 400 300 l 1,32,-1
0 400 m 1,36,-1
 0 490 l 1,37,-1
 90 490 l 1,38,-1
 90 400 l 1,39,-1
 0 400 l 1,36,-1
400 400 m 1,40,-1
 400 490 l 1,41,-1
 490 490 l 1,42,-1
 490 400 l 1,43,-1
 400 400 l 1,40,-1
0 500 m 1,44,-1
 0 590 l 1,45,-1
 90 590 l 1,46,-1
 90 500 l 1,47,-1
 0 500 l 1,44,-1
400 500 m 1,48,-1
 400 590 l 1,49,-1
 490 590 l 1,50,-1
 490 500 l 1,51,-1
 400 500 l 1,48,-1
0 600 m 1,52,-1
 0 690 l 1,53,-1
 90 690 l 1,54,-1
 90 600 l 1,55,-1
 0 600 l 1,52,-1
400 600 m 1,56,-1
 400 690 l 1,57,-1
 490 690 l 1,58,-1
 490 600 l 1,59,-1
 400 600 l 1,56,-1
EndSplineSet
Validated: 1
EndChar

StartChar: V
Encoding: 86 86 54
Width: 600
VWidth: 699
Flags: W
LayerCount: 2
Fore
SplineSet
200 0 m 1,0,-1
 200 90 l 1,1,-1
 290 90 l 1,2,-1
 290 0 l 1,3,-1
 200 0 l 1,0,-1
100 100 m 1,4,-1
 100 190 l 1,5,-1
 190 190 l 1,6,-1
 190 100 l 1,7,-1
 100 100 l 1,4,-1
300 100 m 1,8,-1
 300 190 l 1,9,-1
 390 190 l 1,10,-1
 390 100 l 1,11,-1
 300 100 l 1,8,-1
0 200 m 1,12,-1
 0 290 l 1,13,-1
 90 290 l 1,14,-1
 90 200 l 1,15,-1
 0 200 l 1,12,-1
400 200 m 1,16,-1
 400 290 l 1,17,-1
 490 290 l 1,18,-1
 490 200 l 1,19,-1
 400 200 l 1,16,-1
0 300 m 1,20,-1
 0 390 l 1,21,-1
 90 390 l 1,22,-1
 90 300 l 1,23,-1
 0 300 l 1,20,-1
400 300 m 1,24,-1
 400 390 l 1,25,-1
 490 390 l 1,26,-1
 490 300 l 1,27,-1
 400 300 l 1,24,-1
0 400 m 1,28,-1
 0 490 l 1,29,-1
 90 490 l 1,30,-1
 90 400 l 1,31,-1
 0 400 l 1,28,-1
400 400 m 1,32,-1
 400 490 l 1,33,-1
 490 490 l 1,34,-1
 490 400 l 1,35,-1
 400 400 l 1,32,-1
0 500 m 1,36,-1
 0 590 l 1,37,-1
 90 590 l 1,38,-1
 90 500 l 1,39,-1
 0 500 l 1,36,-1
400 500 m 1,40,-1
 400 590 l 1,41,-1
 490 590 l 1,42,-1
 490 500 l 1,43,-1
 400 500 l 1,40,-1
0 600 m 1,44,-1
 0 690 l 1,45,-1
 90 690 l 1,46,-1
 90 600 l 1,47,-1
 0 600 l 1,44,-1
400 600 m 1,48,-1
 400 690 l 1,49,-1
 490 690 l 1,50,-1
 490 600 l 1,51,-1
 400 600 l 1,48,-1
EndSplineSet
Validated: 1
EndChar

StartChar: W
Encoding: 87 87 55
Width: 600
VWidth: 699
Flags: W
LayerCount: 2
Fore
SplineSet
0 0 m 1,0,-1
 0 90 l 1,1,-1
 90 90 l 1,2,-1
 90 0 l 1,3,-1
 0 0 l 1,0,-1
400 0 m 1,4,-1
 400 90 l 1,5,-1
 490 90 l 1,6,-1
 490 0 l 1,7,-1
 400 0 l 1,4,-1
0 100 m 1,8,-1
 0 190 l 1,9,-1
 90 190 l 1,10,-1
 90 100 l 1,11,-1
 0 100 l 1,8,-1
400 100 m 1,12,-1
 400 190 l 1,13,-1
 490 190 l 1,14,-1
 490 100 l 1,15,-1
 400 100 l 1,12,-1
0 200 m 1,16,-1
 0 290 l 1,17,-1
 90 290 l 1,18,-1
 90 200 l 1,19,-1
 0 200 l 1,16,-1
100 200 m 1,20,-1
 100 290 l 1,21,-1
 190 290 l 1,22,-1
 190 200 l 1,23,-1
 100 200 l 1,20,-1
300 200 m 1,24,-1
 300 290 l 1,25,-1
 390 290 l 1,26,-1
 390 200 l 1,27,-1
 300 200 l 1,24,-1
400 200 m 1,28,-1
 400 290 l 1,29,-1
 490 290 l 1,30,-1
 490 200 l 1,31,-1
 400 200 l 1,28,-1
0 300 m 1,32,-1
 0 390 l 1,33,-1
 90 390 l 1,34,-1
 90 300 l 1,35,-1
 0 300 l 1,32,-1
200 300 m 1,36,-1
 200 390 l 1,37,-1
 290 390 l 1,38,-1
 290 300 l 1,39,-1
 200 300 l 1,36,-1
400 300 m 1,40,-1
 400 390 l 1,41,-1
 490 390 l 1,42,-1
 490 300 l 1,43,-1
 400 300 l 1,40,-1
0 400 m 1,44,-1
 0 490 l 1,45,-1
 90 490 l 1,46,-1
 90 400 l 1,47,-1
 0 400 l 1,44,-1
400 400 m 1,48,-1
 400 490 l 1,49,-1
 490 490 l 1,50,-1
 490 400 l 1,51,-1
 400 400 l 1,48,-1
0 500 m 1,52,-1
 0 590 l 1,53,-1
 90 590 l 1,54,-1
 90 500 l 1,55,-1
 0 500 l 1,52,-1
400 500 m 1,56,-1
 400 590 l 1,57,-1
 490 590 l 1,58,-1
 490 500 l 1,59,-1
 400 500 l 1,56,-1
0 600 m 1,60,-1
 0 690 l 1,61,-1
 90 690 l 1,62,-1
 90 600 l 1,63,-1
 0 600 l 1,60,-1
400 600 m 1,64,-1
 400 690 l 1,65,-1
 490 690 l 1,66,-1
 490 600 l 1,67,-1
 400 600 l 1,64,-1
EndSplineSet
Validated: 1
EndChar

StartChar: X
Encoding: 88 88 56
Width: 600
VWidth: 699
Flags: W
LayerCount: 2
Fore
SplineSet
0 0 m 1,0,-1
 0 90 l 1,1,-1
 90 90 l 1,2,-1
 90 0 l 1,3,-1
 0 0 l 1,0,-1
400 0 m 1,4,-1
 400 90 l 1,5,-1
 490 90 l 1,6,-1
 490 0 l 1,7,-1
 400 0 l 1,4,-1
0 100 m 1,8,-1
 0 190 l 1,9,-1
 90 190 l 1,10,-1
 90 100 l 1,11,-1
 0 100 l 1,8,-1
400 100 m 1,12,-1
 400 190 l 1,13,-1
 490 190 l 1,14,-1
 490 100 l 1,15,-1
 400 100 l 1,12,-1
100 200 m 1,16,-1
 100 290 l 1,17,-1
 190 290 l 1,18,-1
 190 200 l 1,19,-1
 100 200 l 1,16,-1
300 200 m 1,20,-1
 300 290 l 1,21,-1
 390 290 l 1,22,-1
 390 200 l 1,23,-1
 300 200 l 1,20,-1
200 300 m 1,24,-1
 200 390 l 1,25,-1
 290 390 l 1,26,-1
 290 300 l 1,27,-1
 200 300 l 1,24,-1
100 400 m 1,28,-1
 100 490 l 1,29,-1
 190 490 l 1,30,-1
 190 400 l 1,31,-1
 100 400 l 1,28,-1
300 400 m 1,32,-1
 300 490 l 1,33,-1
 390 490 l 1,34,-1
 390 400 l 1,35,-1
 300 400 l 1,32,-1
0 500 m 1,36,-1
 0 590 l 1,37,-1
 90 590 l 1,38,-1
 90 500 l 1,39,-1
 0 500 l 1,36,-1
400 500 m 1,40,-1
 400 590 l 1,41,-1
 490 590 l 1,42,-1
 490 500 l 1,43,-1
 400 500 l 1,40,-1
0 600 m 1,44,-1
 0 690 l 1,45,-1
 90 690 l 1,46,-1
 90 600 l 1,47,-1
 0 600 l 1,44,-1
400 600 m 1,48,-1
 400 690 l 1,49,-1
 490 690 l 1,50,-1
 490 600 l 1,51,-1
 400 600 l 1,48,-1
EndSplineSet
Validated: 1
EndChar

StartChar: Y
Encoding: 89 89 57
Width: 600
VWidth: 699
Flags: W
LayerCount: 2
Fore
SplineSet
200 0 m 1,0,-1
 200 90 l 1,1,-1
 290 90 l 1,2,-1
 290 0 l 1,3,-1
 200 0 l 1,0,-1
200 100 m 1,4,-1
 200 190 l 1,5,-1
 290 190 l 1,6,-1
 290 100 l 1,7,-1
 200 100 l 1,4,-1
200 200 m 1,8,-1
 200 290 l 1,9,-1
 290 290 l 1,10,-1
 290 200 l 1,11,-1
 200 200 l 1,8,-1
100 300 m 1,12,-1
 100 390 l 1,13,-1
 190 390 l 1,14,-1
 190 300 l 1,15,-1
 100 300 l 1,12,-1
200 300 m 1,16,-1
 200 390 l 1,17,-1
 290 390 l 1,18,-1
 290 300 l 1,19,-1
 200 300 l 1,16,-1
300 300 m 1,20,-1
 300 390 l 1,21,-1
 390 390 l 1,22,-1
 390 300 l 1,23,-1
 300 300 l 1,20,-1
0 400 m 1,24,-1
 0 490 l 1,25,-1
 90 490 l 1,26,-1
 90 400 l 1,27,-1
 0 400 l 1,24,-1
400 400 m 1,28,-1
 400 490 l 1,29,-1
 490 490 l 1,30,-1
 490 400 l 1,31,-1
 400 400 l 1,28,-1
0 500 m 1,32,-1
 0 590 l 1,33,-1
 90 590 l 1,34,-1
 90 500 l 1,35,-1
 0 500 l 1,32,-1
400 500 m 1,36,-1
 400 590 l 1,37,-1
 490 590 l 1,38,-1
 490 500 l 1,39,-1
 400 500 l 1,36,-1
0 600 m 1,40,-1
 0 690 l 1,41,-1
 90 690 l 1,42,-1
 90 600 l 1,43,-1
 0 600 l 1,40,-1
400 600 m 1,44,-1
 400 690 l 1,45,-1
 490 690 l 1,46,-1
 490 600 l 1,47,-1
 400 600 l 1,44,-1
EndSplineSet
Validated: 1
EndChar

StartChar: Z
Encoding: 90 90 58
Width: 600
VWidth: 699
Flags: W
LayerCount: 2
Fore
SplineSet
0 0 m 1,0,-1
 0 90 l 1,1,-1
 90 90 l 1,2,-1
 90 0 l 1,3,-1
 0 0 l 1,0,-1
100 0 m 1,4,-1
 100 90 l 1,5,-1
 190 90 l 1,6,-1
 190 0 l 1,7,-1
 100 0 l 1,4,-1
200 0 m 1,8,-1
 200 90 l 1,9,-1
 290 90 l 1,10,-1
 290 0 l 1,11,-1
 200 0 l 1,8,-1
300 0 m 1,12,-1
 300 90 l 1,13,-1
 390 90 l 1,14,-1
 390 0 l 1,15,-1
 300 0 l 1,12,-1
400 0 m 1,16,-1
 400 90 l 1,17,-1
 490 90 l 1,18,-1
 490 0 l 1,19,-1
 400 0 l 1,16,-1
0 100 m 1,20,-1
 0 190 l 1,21,-1
 90 190 l 1,22,-1
 90 100 l 1,23,-1
 0 100 l 1,20,-1
100 200 m 1,24,-1
 100 290 l 1,25,-1
 190 290 l 1,26,-1
 190 200 l 1,27,-1
 100 200 l 1,24,-1
200 300 m 1,28,-1
 200 390 l 1,29,-1
 290 390 l 1,30,-1
 290 300 l 1,31,-1
 200 300 l 1,28,-1
300 400 m 1,32,-1
 300 490 l 1,33,-1
 390 490 l 1,34,-1
 390 400 l 1,35,-1
 300 400 l 1,32,-1
400 500 m 1,36,-1
 400 590 l 1,37,-1
 490 590 l 1,38,-1
 490 500 l 1,39,-1
 400 500 l 1,36,-1
0 600 m 1,40,-1
 0 690 l 1,41,-1
 90 690 l 1,42,-1
 90 600 l 1,43,-1
 0 600 l 1,40,-1
100 600 m 1,44,-1
 100 690 l 1,45,-1
 190 690 l 1,46,-1
 190 600 l 1,47,-1
 100 600 l 1,44,-1
200 600 m 1,48,-1
 200 690 l 1,49,-1
 290 690 l 1,50,-1
 290 600 l 1,51,-1
 200 600 l 1,48,-1
300 600 m 1,52,-1
 300 690 l 1,53,-1
 390 690 l 1,54,-1
 390 600 l 1,55,-1
 300 600 l 1,52,-1
400 600 m 1,56,-1
 400 690 l 1,57,-1
 490 690 l 1,58,-1
 490 600 l 1,59,-1
 400 600 l 1,56,-1
EndSplineSet
Validated: 1
EndChar

StartChar: bracketleft
Encoding: 91 91 59
Width: 600
VWidth: 699
Flags: W
LayerCount: 2
Fore
SplineSet
0 0 m 1,0,-1
 0 90 l 1,1,-1
 90 90 l 1,2,-1
 90 0 l 1,3,-1
 0 0 l 1,0,-1
100 0 m 1,4,-1
 100 90 l 1,5,-1
 190 90 l 1,6,-1
 190 0 l 1,7,-1
 100 0 l 1,4,-1
200 0 m 1,8,-1
 200 90 l 1,9,-1
 290 90 l 1,10,-1
 290 0 l 1,11,-1
 200 0 l 1,8,-1
300 0 m 1,12,-1
 300 90 l 1,13,-1
 390 90 l 1,14,-1
 390 0 l 1,15,-1
 300 0 l 1,12,-1
400 0 m 1,16,-1
 400 90 l 1,17,-1
 490 90 l 1,18,-1
 490 0 l 1,19,-1
 400 0 l 1,16,-1
0 100 m 1,20,-1
 0 190 l 1,21,-1
 90 190 l 1,22,-1
 90 100 l 1,23,-1
 0 100 l 1,20,-1
100 100 m 1,24,-1
 100 190 l 1,25,-1
 190 190 l 1,26,-1
 190 100 l 1,27,-1
 100 100 l 1,24,-1
0 200 m 1,28,-1
 0 290 l 1,29,-1
 90 290 l 1,30,-1
 90 200 l 1,31,-1
 0 200 l 1,28,-1
100 200 m 1,32,-1
 100 290 l 1,33,-1
 190 290 l 1,34,-1
 190 200 l 1,35,-1
 100 200 l 1,32,-1
0 300 m 1,36,-1
 0 390 l 1,37,-1
 90 390 l 1,38,-1
 90 300 l 1,39,-1
 0 300 l 1,36,-1
100 300 m 1,40,-1
 100 390 l 1,41,-1
 190 390 l 1,42,-1
 190 300 l 1,43,-1
 100 300 l 1,40,-1
0 400 m 1,44,-1
 0 490 l 1,45,-1
 90 490 l 1,46,-1
 90 400 l 1,47,-1
 0 400 l 1,44,-1
100 400 m 1,48,-1
 100 490 l 1,49,-1
 190 490 l 1,50,-1
 190 400 l 1,51,-1
 100 400 l 1,48,-1
0 500 m 1,52,-1
 0 590 l 1,53,-1
 90 590 l 1,54,-1
 90 500 l 1,55,-1
 0 500 l 1,52,-1
100 500 m 1,56,-1
 100 590 l 1,57,-1
 190 590 l 1,58,-1
 190 500 l 1,59,-1
 100 500 l 1,56,-1
0 600 m 1,60,-1
 0 690 l 1,61,-1
 90 690 l 1,62,-1
 90 600 l 1,63,-1
 0 600 l 1,60,-1
100 600 m 1,64,-1
 100 690 l 1,65,-1
 190 690 l 1,66,-1
 190 600 l 1,67,-1
 100 600 l 1,64,-1
200 600 m 1,68,-1
 200 690 l 1,69,-1
 290 690 l 1,70,-1
 290 600 l 1,71,-1
 200 600 l 1,68,-1
300 600 m 1,72,-1
 300 690 l 1,73,-1
 390 690 l 1,74,-1
 390 600 l 1,75,-1
 300 600 l 1,72,-1
400 600 m 1,76,-1
 400 690 l 1,77,-1
 490 690 l 1,78,-1
 490 600 l 1,79,-1
 400 600 l 1,76,-1
EndSplineSet
Validated: 1
EndChar

StartChar: backslash
Encoding: 92 92 60
Width: 600
VWidth: 699
Flags: W
LayerCount: 2
Fore
SplineSet
400 100 m 1,0,-1
 400 190 l 1,1,-1
 490 190 l 1,2,-1
 490 100 l 1,3,-1
 400 100 l 1,0,-1
300 200 m 1,4,-1
 300 290 l 1,5,-1
 390 290 l 1,6,-1
 390 200 l 1,7,-1
 300 200 l 1,4,-1
200 300 m 1,8,-1
 200 390 l 1,9,-1
 290 390 l 1,10,-1
 290 300 l 1,11,-1
 200 300 l 1,8,-1
100 400 m 1,12,-1
 100 490 l 1,13,-1
 190 490 l 1,14,-1
 190 400 l 1,15,-1
 100 400 l 1,12,-1
0 500 m 1,16,-1
 0 590 l 1,17,-1
 90 590 l 1,18,-1
 90 500 l 1,19,-1
 0 500 l 1,16,-1
EndSplineSet
Validated: 1
EndChar

StartChar: bracketright
Encoding: 93 93 61
Width: 600
VWidth: 699
Flags: W
LayerCount: 2
Fore
SplineSet
0 0 m 1,0,-1
 0 90 l 1,1,-1
 90 90 l 1,2,-1
 90 0 l 1,3,-1
 0 0 l 1,0,-1
100 0 m 1,4,-1
 100 90 l 1,5,-1
 190 90 l 1,6,-1
 190 0 l 1,7,-1
 100 0 l 1,4,-1
200 0 m 1,8,-1
 200 90 l 1,9,-1
 290 90 l 1,10,-1
 290 0 l 1,11,-1
 200 0 l 1,8,-1
300 0 m 1,12,-1
 300 90 l 1,13,-1
 390 90 l 1,14,-1
 390 0 l 1,15,-1
 300 0 l 1,12,-1
400 0 m 1,16,-1
 400 90 l 1,17,-1
 490 90 l 1,18,-1
 490 0 l 1,19,-1
 400 0 l 1,16,-1
300 100 m 1,20,-1
 300 190 l 1,21,-1
 390 190 l 1,22,-1
 390 100 l 1,23,-1
 300 100 l 1,20,-1
400 100 m 1,24,-1
 400 190 l 1,25,-1
 490 190 l 1,26,-1
 490 100 l 1,27,-1
 400 100 l 1,24,-1
300 200 m 1,28,-1
 300 290 l 1,29,-1
 390 290 l 1,30,-1
 390 200 l 1,31,-1
 300 200 l 1,28,-1
400 200 m 1,32,-1
 400 290 l 1,33,-1
 490 290 l 1,34,-1
 490 200 l 1,35,-1
 400 200 l 1,32,-1
300 300 m 1,36,-1
 300 390 l 1,37,-1
 390 390 l 1,38,-1
 390 300 l 1,39,-1
 300 300 l 1,36,-1
400 300 m 1,40,-1
 400 390 l 1,41,-1
 490 390 l 1,42,-1
 490 300 l 1,43,-1
 400 300 l 1,40,-1
300 400 m 1,44,-1
 300 490 l 1,45,-1
 390 490 l 1,46,-1
 390 400 l 1,47,-1
 300 400 l 1,44,-1
400 400 m 1,48,-1
 400 490 l 1,49,-1
 490 490 l 1,50,-1
 490 400 l 1,51,-1
 400 400 l 1,48,-1
300 500 m 1,52,-1
 300 590 l 1,53,-1
 390 590 l 1,54,-1
 390 500 l 1,55,-1
 300 500 l 1,52,-1
400 500 m 1,56,-1
 400 590 l 1,57,-1
 490 590 l 1,58,-1
 490 500 l 1,59,-1
 400 500 l 1,56,-1
0 600 m 1,60,-1
 0 690 l 1,61,-1
 90 690 l 1,62,-1
 90 600 l 1,63,-1
 0 600 l 1,60,-1
100 600 m 1,64,-1
 100 690 l 1,65,-1
 190 690 l 1,66,-1
 190 600 l 1,67,-1
 100 600 l 1,64,-1
200 600 m 1,68,-1
 200 690 l 1,69,-1
 290 690 l 1,70,-1
 290 600 l 1,71,-1
 200 600 l 1,68,-1
300 600 m 1,72,-1
 300 690 l 1,73,-1
 390 690 l 1,74,-1
 390 600 l 1,75,-1
 300 600 l 1,72,-1
400 600 m 1,76,-1
 400 690 l 1,77,-1
 490 690 l 1,78,-1
 490 600 l 1,79,-1
 400 600 l 1,76,-1
EndSplineSet
Validated: 1
EndChar

StartChar: asciicircum
Encoding: 94 94 62
Width: 600
VWidth: 699
Flags: W
LayerCount: 2
Fore
SplineSet
0 200 m 1,0,-1
 0 290 l 1,1,-1
 90 290 l 1,2,-1
 90 200 l 1,3,-1
 0 200 l 1,0,-1
400 200 m 1,4,-1
 400 290 l 1,5,-1
 490 290 l 1,6,-1
 490 200 l 1,7,-1
 400 200 l 1,4,-1
100 300 m 1,8,-1
 100 390 l 1,9,-1
 190 390 l 1,10,-1
 190 300 l 1,11,-1
 100 300 l 1,8,-1
300 300 m 1,12,-1
 300 390 l 1,13,-1
 390 390 l 1,14,-1
 390 300 l 1,15,-1
 300 300 l 1,12,-1
200 400 m 1,16,-1
 200 490 l 1,17,-1
 290 490 l 1,18,-1
 290 400 l 1,19,-1
 200 400 l 1,16,-1
EndSplineSet
Validated: 1
EndChar

StartChar: underscore
Encoding: 95 95 63
Width: 600
VWidth: 699
Flags: W
LayerCount: 2
Fore
SplineSet
0 0 m 1,0,-1
 0 90 l 1,1,-1
 90 90 l 1,2,-1
 90 0 l 1,3,-1
 0 0 l 1,0,-1
100 0 m 1,4,-1
 100 90 l 1,5,-1
 190 90 l 1,6,-1
 190 0 l 1,7,-1
 100 0 l 1,4,-1
200 0 m 1,8,-1
 200 90 l 1,9,-1
 290 90 l 1,10,-1
 290 0 l 1,11,-1
 200 0 l 1,8,-1
300 0 m 1,12,-1
 300 90 l 1,13,-1
 390 90 l 1,14,-1
 390 0 l 1,15,-1
 300 0 l 1,12,-1
400 0 m 1,16,-1
 400 90 l 1,17,-1
 490 90 l 1,18,-1
 490 0 l 1,19,-1
 400 0 l 1,16,-1
EndSplineSet
Validated: 1
EndChar

StartChar: grave
Encoding: 96 96 64
Width: 600
VWidth: 699
Flags: W
LayerCount: 2
Fore
SplineSet
300 400 m 1,0,-1
 300 490 l 1,1,-1
 390 490 l 1,2,-1
 390 400 l 1,3,-1
 300 400 l 1,0,-1
200 500 m 1,4,-1
 200 590 l 1,5,-1
 290 590 l 1,6,-1
 290 500 l 1,7,-1
 200 500 l 1,4,-1
100 600 m 1,8,-1
 100 690 l 1,9,-1
 190 690 l 1,10,-1
 190 600 l 1,11,-1
 100 600 l 1,8,-1
EndSplineSet
Validated: 1
EndChar

StartChar: a
Encoding: 97 97 65
Width: 600
VWidth: 699
Flags: W
LayerCount: 2
Fore
SplineSet
100 100 m 1,0,-1
 100 190 l 1,1,-1
 190 190 l 1,2,-1
 190 100 l 1,3,-1
 100 100 l 1,0,-1
200 100 m 1,4,-1
 200 190 l 1,5,-1
 290 190 l 1,6,-1
 290 100 l 1,7,-1
 200 100 l 1,4,-1
300 100 m 1,8,-1
 300 190 l 1,9,-1
 390 190 l 1,10,-1
 390 100 l 1,11,-1
 300 100 l 1,8,-1
400 100 m 1,12,-1
 400 190 l 1,13,-1
 490 190 l 1,14,-1
 490 100 l 1,15,-1
 400 100 l 1,12,-1
0 200 m 1,16,-1
 0 290 l 1,17,-1
 90 290 l 1,18,-1
 90 200 l 1,19,-1
 0 200 l 1,16,-1
400 200 m 1,20,-1
 400 290 l 1,21,-1
 490 290 l 1,22,-1
 490 200 l 1,23,-1
 400 200 l 1,20,-1
100 300 m 1,24,-1
 100 390 l 1,25,-1
 190 390 l 1,26,-1
 190 300 l 1,27,-1
 100 300 l 1,24,-1
200 300 m 1,28,-1
 200 390 l 1,29,-1
 290 390 l 1,30,-1
 290 300 l 1,31,-1
 200 300 l 1,28,-1
300 300 m 1,32,-1
 300 390 l 1,33,-1
 390 390 l 1,34,-1
 390 300 l 1,35,-1
 300 300 l 1,32,-1
400 300 m 1,36,-1
 400 390 l 1,37,-1
 490 390 l 1,38,-1
 490 300 l 1,39,-1
 400 300 l 1,36,-1
400 400 m 1,40,-1
 400 490 l 1,41,-1
 490 490 l 1,42,-1
 490 400 l 1,43,-1
 400 400 l 1,40,-1
100 500 m 1,44,-1
 100 590 l 1,45,-1
 190 590 l 1,46,-1
 190 500 l 1,47,-1
 100 500 l 1,44,-1
200 500 m 1,48,-1
 200 590 l 1,49,-1
 290 590 l 1,50,-1
 290 500 l 1,51,-1
 200 500 l 1,48,-1
300 500 m 1,52,-1
 300 590 l 1,53,-1
 390 590 l 1,54,-1
 390 500 l 1,55,-1
 300 500 l 1,52,-1
EndSplineSet
Validated: 1
EndChar

StartChar: b
Encoding: 98 98 66
Width: 600
VWidth: 699
Flags: W
LayerCount: 2
Fore
SplineSet
0 100 m 1,0,-1
 0 190 l 1,1,-1
 90 190 l 1,2,-1
 90 100 l 1,3,-1
 0 100 l 1,0,-1
100 100 m 1,4,-1
 100 190 l 1,5,-1
 190 190 l 1,6,-1
 190 100 l 1,7,-1
 100 100 l 1,4,-1
200 100 m 1,8,-1
 200 190 l 1,9,-1
 290 190 l 1,10,-1
 290 100 l 1,11,-1
 200 100 l 1,8,-1
300 100 m 1,12,-1
 300 190 l 1,13,-1
 390 190 l 1,14,-1
 390 100 l 1,15,-1
 300 100 l 1,12,-1
0 200 m 1,16,-1
 0 290 l 1,17,-1
 90 290 l 1,18,-1
 90 200 l 1,19,-1
 0 200 l 1,16,-1
400 200 m 1,20,-1
 400 290 l 1,21,-1
 490 290 l 1,22,-1
 490 200 l 1,23,-1
 400 200 l 1,20,-1
0 300 m 1,24,-1
 0 390 l 1,25,-1
 90 390 l 1,26,-1
 90 300 l 1,27,-1
 0 300 l 1,24,-1
400 300 m 1,28,-1
 400 390 l 1,29,-1
 490 390 l 1,30,-1
 490 300 l 1,31,-1
 400 300 l 1,28,-1
0 400 m 1,32,-1
 0 490 l 1,33,-1
 90 490 l 1,34,-1
 90 400 l 1,35,-1
 0 400 l 1,32,-1
100 400 m 1,36,-1
 100 490 l 1,37,-1
 190 490 l 1,38,-1
 190 400 l 1,39,-1
 100 400 l 1,36,-1
200 400 m 1,40,-1
 200 490 l 1,41,-1
 290 490 l 1,42,-1
 290 400 l 1,43,-1
 200 400 l 1,40,-1
300 400 m 1,44,-1
 300 490 l 1,45,-1
 390 490 l 1,46,-1
 390 400 l 1,47,-1
 300 400 l 1,44,-1
0 500 m 1,48,-1
 0 590 l 1,49,-1
 90 590 l 1,50,-1
 90 500 l 1,51,-1
 0 500 l 1,48,-1
0 600 m 1,52,-1
 0 690 l 1,53,-1
 90 690 l 1,54,-1
 90 600 l 1,55,-1
 0 600 l 1,52,-1
EndSplineSet
Validated: 1
EndChar

StartChar: c
Encoding: 99 99 67
Width: 600
VWidth: 699
Flags: W
LayerCount: 2
Fore
SplineSet
100 100 m 1,0,-1
 100 190 l 1,1,-1
 190 190 l 1,2,-1
 190 100 l 1,3,-1
 100 100 l 1,0,-1
200 100 m 1,4,-1
 200 190 l 1,5,-1
 290 190 l 1,6,-1
 290 100 l 1,7,-1
 200 100 l 1,4,-1
300 100 m 1,8,-1
 300 190 l 1,9,-1
 390 190 l 1,10,-1
 390 100 l 1,11,-1
 300 100 l 1,8,-1
0 200 m 1,12,-1
 0 290 l 1,13,-1
 90 290 l 1,14,-1
 90 200 l 1,15,-1
 0 200 l 1,12,-1
0 300 m 1,16,-1
 0 390 l 1,17,-1
 90 390 l 1,18,-1
 90 300 l 1,19,-1
 0 300 l 1,16,-1
0 400 m 1,20,-1
 0 490 l 1,21,-1
 90 490 l 1,22,-1
 90 400 l 1,23,-1
 0 400 l 1,20,-1
100 500 m 1,24,-1
 100 590 l 1,25,-1
 190 590 l 1,26,-1
 190 500 l 1,27,-1
 100 500 l 1,24,-1
200 500 m 1,28,-1
 200 590 l 1,29,-1
 290 590 l 1,30,-1
 290 500 l 1,31,-1
 200 500 l 1,28,-1
300 500 m 1,32,-1
 300 590 l 1,33,-1
 390 590 l 1,34,-1
 390 500 l 1,35,-1
 300 500 l 1,32,-1
EndSplineSet
Validated: 1
EndChar

StartChar: d
Encoding: 100 100 68
Width: 600
VWidth: 699
Flags: W
LayerCount: 2
Fore
SplineSet
100 100 m 1,0,-1
 100 190 l 1,1,-1
 190 190 l 1,2,-1
 190 100 l 1,3,-1
 100 100 l 1,0,-1
200 100 m 1,4,-1
 200 190 l 1,5,-1
 290 190 l 1,6,-1
 290 100 l 1,7,-1
 200 100 l 1,4,-1
300 100 m 1,8,-1
 300 190 l 1,9,-1
 390 190 l 1,10,-1
 390 100 l 1,11,-1
 300 100 l 1,8,-1
400 100 m 1,12,-1
 400 190 l 1,13,-1
 490 190 l 1,14,-1
 490 100 l 1,15,-1
 400 100 l 1,12,-1
0 200 m 1,16,-1
 0 290 l 1,17,-1
 90 290 l 1,18,-1
 90 200 l 1,19,-1
 0 200 l 1,16,-1
400 200 m 1,20,-1
 400 290 l 1,21,-1
 490 290 l 1,22,-1
 490 200 l 1,23,-1
 400 200 l 1,20,-1
0 300 m 1,24,-1
 0 390 l 1,25,-1
 90 390 l 1,26,-1
 90 300 l 1,27,-1
 0 300 l 1,24,-1
400 300 m 1,28,-1
 400 390 l 1,29,-1
 490 390 l 1,30,-1
 490 300 l 1,31,-1
 400 300 l 1,28,-1
100 400 m 1,32,-1
 100 490 l 1,33,-1
 190 490 l 1,34,-1
 190 400 l 1,35,-1
 100 400 l 1,32,-1
200 400 m 1,36,-1
 200 490 l 1,37,-1
 290 490 l 1,38,-1
 290 400 l 1,39,-1
 200 400 l 1,36,-1
300 400 m 1,40,-1
 300 490 l 1,41,-1
 390 490 l 1,42,-1
 390 400 l 1,43,-1
 300 400 l 1,40,-1
400 400 m 1,44,-1
 400 490 l 1,45,-1
 490 490 l 1,46,-1
 490 400 l 1,47,-1
 400 400 l 1,44,-1
400 500 m 1,48,-1
 400 590 l 1,49,-1
 490 590 l 1,50,-1
 490 500 l 1,51,-1
 400 500 l 1,48,-1
400 600 m 1,52,-1
 400 690 l 1,53,-1
 490 690 l 1,54,-1
 490 600 l 1,55,-1
 400 600 l 1,52,-1
EndSplineSet
Validated: 1
EndChar

StartChar: e
Encoding: 101 101 69
Width: 600
VWidth: 699
Flags: W
LayerCount: 2
Fore
SplineSet
100 100 m 1,0,-1
 100 190 l 1,1,-1
 190 190 l 1,2,-1
 190 100 l 1,3,-1
 100 100 l 1,0,-1
200 100 m 1,4,-1
 200 190 l 1,5,-1
 290 190 l 1,6,-1
 290 100 l 1,7,-1
 200 100 l 1,4,-1
300 100 m 1,8,-1
 300 190 l 1,9,-1
 390 190 l 1,10,-1
 390 100 l 1,11,-1
 300 100 l 1,8,-1
0 200 m 1,12,-1
 0 290 l 1,13,-1
 90 290 l 1,14,-1
 90 200 l 1,15,-1
 0 200 l 1,12,-1
0 300 m 1,16,-1
 0 390 l 1,17,-1
 90 390 l 1,18,-1
 90 300 l 1,19,-1
 0 300 l 1,16,-1
100 300 m 1,20,-1
 100 390 l 1,21,-1
 190 390 l 1,22,-1
 190 300 l 1,23,-1
 100 300 l 1,20,-1
200 300 m 1,24,-1
 200 390 l 1,25,-1
 290 390 l 1,26,-1
 290 300 l 1,27,-1
 200 300 l 1,24,-1
300 300 m 1,28,-1
 300 390 l 1,29,-1
 390 390 l 1,30,-1
 390 300 l 1,31,-1
 300 300 l 1,28,-1
0 400 m 1,32,-1
 0 490 l 1,33,-1
 90 490 l 1,34,-1
 90 400 l 1,35,-1
 0 400 l 1,32,-1
400 400 m 1,36,-1
 400 490 l 1,37,-1
 490 490 l 1,38,-1
 490 400 l 1,39,-1
 400 400 l 1,36,-1
100 500 m 1,40,-1
 100 590 l 1,41,-1
 190 590 l 1,42,-1
 190 500 l 1,43,-1
 100 500 l 1,40,-1
200 500 m 1,44,-1
 200 590 l 1,45,-1
 290 590 l 1,46,-1
 290 500 l 1,47,-1
 200 500 l 1,44,-1
300 500 m 1,48,-1
 300 590 l 1,49,-1
 390 590 l 1,50,-1
 390 500 l 1,51,-1
 300 500 l 1,48,-1
EndSplineSet
Validated: 1
EndChar

StartChar: f
Encoding: 102 102 70
Width: 600
VWidth: 699
Flags: W
LayerCount: 2
Fore
SplineSet
200 100 m 1,0,-1
 200 190 l 1,1,-1
 290 190 l 1,2,-1
 290 100 l 1,3,-1
 200 100 l 1,0,-1
200 200 m 1,4,-1
 200 290 l 1,5,-1
 290 290 l 1,6,-1
 290 200 l 1,7,-1
 200 200 l 1,4,-1
200 300 m 1,8,-1
 200 390 l 1,9,-1
 290 390 l 1,10,-1
 290 300 l 1,11,-1
 200 300 l 1,8,-1
100 400 m 1,12,-1
 100 490 l 1,13,-1
 190 490 l 1,14,-1
 190 400 l 1,15,-1
 100 400 l 1,12,-1
200 400 m 1,16,-1
 200 490 l 1,17,-1
 290 490 l 1,18,-1
 290 400 l 1,19,-1
 200 400 l 1,16,-1
300 400 m 1,20,-1
 300 490 l 1,21,-1
 390 490 l 1,22,-1
 390 400 l 1,23,-1
 300 400 l 1,20,-1
200 500 m 1,24,-1
 200 590 l 1,25,-1
 290 590 l 1,26,-1
 290 500 l 1,27,-1
 200 500 l 1,24,-1
300 600 m 1,28,-1
 300 690 l 1,29,-1
 390 690 l 1,30,-1
 390 600 l 1,31,-1
 300 600 l 1,28,-1
400 600 m 1,32,-1
 400 690 l 1,33,-1
 490 690 l 1,34,-1
 490 600 l 1,35,-1
 400 600 l 1,32,-1
EndSplineSet
Validated: 1
EndChar

StartChar: g
Encoding: 103 103 71
Width: 600
VWidth: 699
Flags: W
LayerCount: 2
Fore
SplineSet
100 0 m 1,0,-1
 100 90 l 1,1,-1
 190 90 l 1,2,-1
 190 0 l 1,3,-1
 100 0 l 1,0,-1
200 0 m 1,4,-1
 200 90 l 1,5,-1
 290 90 l 1,6,-1
 290 0 l 1,7,-1
 200 0 l 1,4,-1
300 0 m 1,8,-1
 300 90 l 1,9,-1
 390 90 l 1,10,-1
 390 0 l 1,11,-1
 300 0 l 1,8,-1
400 100 m 1,12,-1
 400 190 l 1,13,-1
 490 190 l 1,14,-1
 490 100 l 1,15,-1
 400 100 l 1,12,-1
100 200 m 1,16,-1
 100 290 l 1,17,-1
 190 290 l 1,18,-1
 190 200 l 1,19,-1
 100 200 l 1,16,-1
200 200 m 1,20,-1
 200 290 l 1,21,-1
 290 290 l 1,22,-1
 290 200 l 1,23,-1
 200 200 l 1,20,-1
300 200 m 1,24,-1
 300 290 l 1,25,-1
 390 290 l 1,26,-1
 390 200 l 1,27,-1
 300 200 l 1,24,-1
400 200 m 1,28,-1
 400 290 l 1,29,-1
 490 290 l 1,30,-1
 490 200 l 1,31,-1
 400 200 l 1,28,-1
0 300 m 1,32,-1
 0 390 l 1,33,-1
 90 390 l 1,34,-1
 90 300 l 1,35,-1
 0 300 l 1,32,-1
400 300 m 1,36,-1
 400 390 l 1,37,-1
 490 390 l 1,38,-1
 490 300 l 1,39,-1
 400 300 l 1,36,-1
0 400 m 1,40,-1
 0 490 l 1,41,-1
 90 490 l 1,42,-1
 90 400 l 1,43,-1
 0 400 l 1,40,-1
400 400 m 1,44,-1
 400 490 l 1,45,-1
 490 490 l 1,46,-1
 490 400 l 1,47,-1
 400 400 l 1,44,-1
100 500 m 1,48,-1
 100 590 l 1,49,-1
 190 590 l 1,50,-1
 190 500 l 1,51,-1
 100 500 l 1,48,-1
200 500 m 1,52,-1
 200 590 l 1,53,-1
 290 590 l 1,54,-1
 290 500 l 1,55,-1
 200 500 l 1,52,-1
300 500 m 1,56,-1
 300 590 l 1,57,-1
 390 590 l 1,58,-1
 390 500 l 1,59,-1
 300 500 l 1,56,-1
EndSplineSet
Validated: 1
EndChar

StartChar: h
Encoding: 104 104 72
Width: 600
VWidth: 699
Flags: W
LayerCount: 2
Fore
SplineSet
0 100 m 1,0,-1
 0 190 l 1,1,-1
 90 190 l 1,2,-1
 90 100 l 1,3,-1
 0 100 l 1,0,-1
400 100 m 1,4,-1
 400 190 l 1,5,-1
 490 190 l 1,6,-1
 490 100 l 1,7,-1
 400 100 l 1,4,-1
0 200 m 1,8,-1
 0 290 l 1,9,-1
 90 290 l 1,10,-1
 90 200 l 1,11,-1
 0 200 l 1,8,-1
400 200 m 1,12,-1
 400 290 l 1,13,-1
 490 290 l 1,14,-1
 490 200 l 1,15,-1
 400 200 l 1,12,-1
0 300 m 1,16,-1
 0 390 l 1,17,-1
 90 390 l 1,18,-1
 90 300 l 1,19,-1
 0 300 l 1,16,-1
100 300 m 1,20,-1
 100 390 l 1,21,-1
 190 390 l 1,22,-1
 190 300 l 1,23,-1
 100 300 l 1,20,-1
400 300 m 1,24,-1
 400 390 l 1,25,-1
 490 390 l 1,26,-1
 490 300 l 1,27,-1
 400 300 l 1,24,-1
0 400 m 1,28,-1
 0 490 l 1,29,-1
 90 490 l 1,30,-1
 90 400 l 1,31,-1
 0 400 l 1,28,-1
200 400 m 1,32,-1
 200 490 l 1,33,-1
 290 490 l 1,34,-1
 290 400 l 1,35,-1
 200 400 l 1,32,-1
300 400 m 1,36,-1
 300 490 l 1,37,-1
 390 490 l 1,38,-1
 390 400 l 1,39,-1
 300 400 l 1,36,-1
0 500 m 1,40,-1
 0 590 l 1,41,-1
 90 590 l 1,42,-1
 90 500 l 1,43,-1
 0 500 l 1,40,-1
0 600 m 1,44,-1
 0 690 l 1,45,-1
 90 690 l 1,46,-1
 90 600 l 1,47,-1
 0 600 l 1,44,-1
EndSplineSet
Validated: 1
EndChar

StartChar: i
Encoding: 105 105 73
Width: 600
VWidth: 699
Flags: W
LayerCount: 2
Fore
SplineSet
200 100 m 1,0,-1
 200 190 l 1,1,-1
 290 190 l 1,2,-1
 290 100 l 1,3,-1
 200 100 l 1,0,-1
200 200 m 1,4,-1
 200 290 l 1,5,-1
 290 290 l 1,6,-1
 290 200 l 1,7,-1
 200 200 l 1,4,-1
200 300 m 1,8,-1
 200 390 l 1,9,-1
 290 390 l 1,10,-1
 290 300 l 1,11,-1
 200 300 l 1,8,-1
200 400 m 1,12,-1
 200 490 l 1,13,-1
 290 490 l 1,14,-1
 290 400 l 1,15,-1
 200 400 l 1,12,-1
200 600 m 1,16,-1
 200 690 l 1,17,-1
 290 690 l 1,18,-1
 290 600 l 1,19,-1
 200 600 l 1,16,-1
EndSplineSet
Validated: 1
EndChar

StartChar: j
Encoding: 106 106 74
Width: 600
VWidth: 699
Flags: W
LayerCount: 2
Fore
SplineSet
200 0 m 1,0,-1
 200 90 l 1,1,-1
 290 90 l 1,2,-1
 290 0 l 1,3,-1
 200 0 l 1,0,-1
300 0 m 1,4,-1
 300 90 l 1,5,-1
 390 90 l 1,6,-1
 390 0 l 1,7,-1
 300 0 l 1,4,-1
100 100 m 1,8,-1
 100 190 l 1,9,-1
 190 190 l 1,10,-1
 190 100 l 1,11,-1
 100 100 l 1,8,-1
400 100 m 1,12,-1
 400 190 l 1,13,-1
 490 190 l 1,14,-1
 490 100 l 1,15,-1
 400 100 l 1,12,-1
400 200 m 1,16,-1
 400 290 l 1,17,-1
 490 290 l 1,18,-1
 490 200 l 1,19,-1
 400 200 l 1,16,-1
400 300 m 1,20,-1
 400 390 l 1,21,-1
 490 390 l 1,22,-1
 490 300 l 1,23,-1
 400 300 l 1,20,-1
400 400 m 1,24,-1
 400 490 l 1,25,-1
 490 490 l 1,26,-1
 490 400 l 1,27,-1
 400 400 l 1,24,-1
400 600 m 1,28,-1
 400 690 l 1,29,-1
 490 690 l 1,30,-1
 490 600 l 1,31,-1
 400 600 l 1,28,-1
EndSplineSet
Validated: 1
EndChar

StartChar: k
Encoding: 107 107 75
Width: 600
VWidth: 699
Flags: W
LayerCount: 2
Fore
SplineSet
100 100 m 1,0,-1
 100 190 l 1,1,-1
 190 190 l 1,2,-1
 190 100 l 1,3,-1
 100 100 l 1,0,-1
400 100 m 1,4,-1
 400 190 l 1,5,-1
 490 190 l 1,6,-1
 490 100 l 1,7,-1
 400 100 l 1,4,-1
100 200 m 1,8,-1
 100 290 l 1,9,-1
 190 290 l 1,10,-1
 190 200 l 1,11,-1
 100 200 l 1,8,-1
300 200 m 1,12,-1
 300 290 l 1,13,-1
 390 290 l 1,14,-1
 390 200 l 1,15,-1
 300 200 l 1,12,-1
100 300 m 1,16,-1
 100 390 l 1,17,-1
 190 390 l 1,18,-1
 190 300 l 1,19,-1
 100 300 l 1,16,-1
200 300 m 1,20,-1
 200 390 l 1,21,-1
 290 390 l 1,22,-1
 290 300 l 1,23,-1
 200 300 l 1,20,-1
100 400 m 1,24,-1
 100 490 l 1,25,-1
 190 490 l 1,26,-1
 190 400 l 1,27,-1
 100 400 l 1,24,-1
300 400 m 1,28,-1
 300 490 l 1,29,-1
 390 490 l 1,30,-1
 390 400 l 1,31,-1
 300 400 l 1,28,-1
100 500 m 1,32,-1
 100 590 l 1,33,-1
 190 590 l 1,34,-1
 190 500 l 1,35,-1
 100 500 l 1,32,-1
400 500 m 1,36,-1
 400 590 l 1,37,-1
 490 590 l 1,38,-1
 490 500 l 1,39,-1
 400 500 l 1,36,-1
100 600 m 1,40,-1
 100 690 l 1,41,-1
 190 690 l 1,42,-1
 190 600 l 1,43,-1
 100 600 l 1,40,-1
EndSplineSet
Validated: 1
EndChar

StartChar: l
Encoding: 108 108 76
Width: 600
VWidth: 699
Flags: W
LayerCount: 2
Fore
SplineSet
100 100 m 1,0,-1
 100 190 l 1,1,-1
 190 190 l 1,2,-1
 190 100 l 1,3,-1
 100 100 l 1,0,-1
200 100 m 1,4,-1
 200 190 l 1,5,-1
 290 190 l 1,6,-1
 290 100 l 1,7,-1
 200 100 l 1,4,-1
300 100 m 1,8,-1
 300 190 l 1,9,-1
 390 190 l 1,10,-1
 390 100 l 1,11,-1
 300 100 l 1,8,-1
200 200 m 1,12,-1
 200 290 l 1,13,-1
 290 290 l 1,14,-1
 290 200 l 1,15,-1
 200 200 l 1,12,-1
200 300 m 1,16,-1
 200 390 l 1,17,-1
 290 390 l 1,18,-1
 290 300 l 1,19,-1
 200 300 l 1,16,-1
200 400 m 1,20,-1
 200 490 l 1,21,-1
 290 490 l 1,22,-1
 290 400 l 1,23,-1
 200 400 l 1,20,-1
200 500 m 1,24,-1
 200 590 l 1,25,-1
 290 590 l 1,26,-1
 290 500 l 1,27,-1
 200 500 l 1,24,-1
100 600 m 1,28,-1
 100 690 l 1,29,-1
 190 690 l 1,30,-1
 190 600 l 1,31,-1
 100 600 l 1,28,-1
200 600 m 1,32,-1
 200 690 l 1,33,-1
 290 690 l 1,34,-1
 290 600 l 1,35,-1
 200 600 l 1,32,-1
EndSplineSet
Validated: 1
EndChar

StartChar: m
Encoding: 109 109 77
Width: 600
VWidth: 699
Flags: W
LayerCount: 2
Fore
SplineSet
0 100 m 1,0,-1
 0 190 l 1,1,-1
 90 190 l 1,2,-1
 90 100 l 1,3,-1
 0 100 l 1,0,-1
200 100 m 1,4,-1
 200 190 l 1,5,-1
 290 190 l 1,6,-1
 290 100 l 1,7,-1
 200 100 l 1,4,-1
400 100 m 1,8,-1
 400 190 l 1,9,-1
 490 190 l 1,10,-1
 490 100 l 1,11,-1
 400 100 l 1,8,-1
0 200 m 1,12,-1
 0 290 l 1,13,-1
 90 290 l 1,14,-1
 90 200 l 1,15,-1
 0 200 l 1,12,-1
200 200 m 1,16,-1
 200 290 l 1,17,-1
 290 290 l 1,18,-1
 290 200 l 1,19,-1
 200 200 l 1,16,-1
400 200 m 1,20,-1
 400 290 l 1,21,-1
 490 290 l 1,22,-1
 490 200 l 1,23,-1
 400 200 l 1,20,-1
0 300 m 1,24,-1
 0 390 l 1,25,-1
 90 390 l 1,26,-1
 90 300 l 1,27,-1
 0 300 l 1,24,-1
200 300 m 1,28,-1
 200 390 l 1,29,-1
 290 390 l 1,30,-1
 290 300 l 1,31,-1
 200 300 l 1,28,-1
400 300 m 1,32,-1
 400 390 l 1,33,-1
 490 390 l 1,34,-1
 490 300 l 1,35,-1
 400 300 l 1,32,-1
0 400 m 1,36,-1
 0 490 l 1,37,-1
 90 490 l 1,38,-1
 90 400 l 1,39,-1
 0 400 l 1,36,-1
200 400 m 1,40,-1
 200 490 l 1,41,-1
 290 490 l 1,42,-1
 290 400 l 1,43,-1
 200 400 l 1,40,-1
400 400 m 1,44,-1
 400 490 l 1,45,-1
 490 490 l 1,46,-1
 490 400 l 1,47,-1
 400 400 l 1,44,-1
100 500 m 1,48,-1
 100 590 l 1,49,-1
 190 590 l 1,50,-1
 190 500 l 1,51,-1
 100 500 l 1,48,-1
300 500 m 1,52,-1
 300 590 l 1,53,-1
 390 590 l 1,54,-1
 390 500 l 1,55,-1
 300 500 l 1,52,-1
EndSplineSet
Validated: 1
EndChar

StartChar: n
Encoding: 110 110 78
Width: 600
VWidth: 699
Flags: W
LayerCount: 2
Fore
SplineSet
0 100 m 1,0,-1
 0 190 l 1,1,-1
 90 190 l 1,2,-1
 90 100 l 1,3,-1
 0 100 l 1,0,-1
400 100 m 1,4,-1
 400 190 l 1,5,-1
 490 190 l 1,6,-1
 490 100 l 1,7,-1
 400 100 l 1,4,-1
0 200 m 1,8,-1
 0 290 l 1,9,-1
 90 290 l 1,10,-1
 90 200 l 1,11,-1
 0 200 l 1,8,-1
400 200 m 1,12,-1
 400 290 l 1,13,-1
 490 290 l 1,14,-1
 490 200 l 1,15,-1
 400 200 l 1,12,-1
0 300 m 1,16,-1
 0 390 l 1,17,-1
 90 390 l 1,18,-1
 90 300 l 1,19,-1
 0 300 l 1,16,-1
400 300 m 1,20,-1
 400 390 l 1,21,-1
 490 390 l 1,22,-1
 490 300 l 1,23,-1
 400 300 l 1,20,-1
0 400 m 1,24,-1
 0 490 l 1,25,-1
 90 490 l 1,26,-1
 90 400 l 1,27,-1
 0 400 l 1,24,-1
100 400 m 1,28,-1
 100 490 l 1,29,-1
 190 490 l 1,30,-1
 190 400 l 1,31,-1
 100 400 l 1,28,-1
400 400 m 1,32,-1
 400 490 l 1,33,-1
 490 490 l 1,34,-1
 490 400 l 1,35,-1
 400 400 l 1,32,-1
0 500 m 1,36,-1
 0 590 l 1,37,-1
 90 590 l 1,38,-1
 90 500 l 1,39,-1
 0 500 l 1,36,-1
200 500 m 1,40,-1
 200 590 l 1,41,-1
 290 590 l 1,42,-1
 290 500 l 1,43,-1
 200 500 l 1,40,-1
300 500 m 1,44,-1
 300 590 l 1,45,-1
 390 590 l 1,46,-1
 390 500 l 1,47,-1
 300 500 l 1,44,-1
EndSplineSet
Validated: 1
EndChar

StartChar: o
Encoding: 111 111 79
Width: 600
VWidth: 699
Flags: W
LayerCount: 2
Fore
SplineSet
100 100 m 1,0,-1
 100 190 l 1,1,-1
 190 190 l 1,2,-1
 190 100 l 1,3,-1
 100 100 l 1,0,-1
200 100 m 1,4,-1
 200 190 l 1,5,-1
 290 190 l 1,6,-1
 290 100 l 1,7,-1
 200 100 l 1,4,-1
300 100 m 1,8,-1
 300 190 l 1,9,-1
 390 190 l 1,10,-1
 390 100 l 1,11,-1
 300 100 l 1,8,-1
0 200 m 1,12,-1
 0 290 l 1,13,-1
 90 290 l 1,14,-1
 90 200 l 1,15,-1
 0 200 l 1,12,-1
400 200 m 1,16,-1
 400 290 l 1,17,-1
 490 290 l 1,18,-1
 490 200 l 1,19,-1
 400 200 l 1,16,-1
0 300 m 1,20,-1
 0 390 l 1,21,-1
 90 390 l 1,22,-1
 90 300 l 1,23,-1
 0 300 l 1,20,-1
400 300 m 1,24,-1
 400 390 l 1,25,-1
 490 390 l 1,26,-1
 490 300 l 1,27,-1
 400 300 l 1,24,-1
0 400 m 1,28,-1
 0 490 l 1,29,-1
 90 490 l 1,30,-1
 90 400 l 1,31,-1
 0 400 l 1,28,-1
400 400 m 1,32,-1
 400 490 l 1,33,-1
 490 490 l 1,34,-1
 490 400 l 1,35,-1
 400 400 l 1,32,-1
100 500 m 1,36,-1
 100 590 l 1,37,-1
 190 590 l 1,38,-1
 190 500 l 1,39,-1
 100 500 l 1,36,-1
200 500 m 1,40,-1
 200 590 l 1,41,-1
 290 590 l 1,42,-1
 290 500 l 1,43,-1
 200 500 l 1,40,-1
300 500 m 1,44,-1
 300 590 l 1,45,-1
 390 590 l 1,46,-1
 390 500 l 1,47,-1
 300 500 l 1,44,-1
EndSplineSet
Validated: 1
EndChar

StartChar: p
Encoding: 112 112 80
Width: 600
VWidth: 699
Flags: W
LayerCount: 2
Fore
SplineSet
0 0 m 1,0,-1
 0 90 l 1,1,-1
 90 90 l 1,2,-1
 90 0 l 1,3,-1
 0 0 l 1,0,-1
0 100 m 1,4,-1
 0 190 l 1,5,-1
 90 190 l 1,6,-1
 90 100 l 1,7,-1
 0 100 l 1,4,-1
0 200 m 1,8,-1
 0 290 l 1,9,-1
 90 290 l 1,10,-1
 90 200 l 1,11,-1
 0 200 l 1,8,-1
100 200 m 1,12,-1
 100 290 l 1,13,-1
 190 290 l 1,14,-1
 190 200 l 1,15,-1
 100 200 l 1,12,-1
200 200 m 1,16,-1
 200 290 l 1,17,-1
 290 290 l 1,18,-1
 290 200 l 1,19,-1
 200 200 l 1,16,-1
300 200 m 1,20,-1
 300 290 l 1,21,-1
 390 290 l 1,22,-1
 390 200 l 1,23,-1
 300 200 l 1,20,-1
0 300 m 1,24,-1
 0 390 l 1,25,-1
 90 390 l 1,26,-1
 90 300 l 1,27,-1
 0 300 l 1,24,-1
400 300 m 1,28,-1
 400 390 l 1,29,-1
 490 390 l 1,30,-1
 490 300 l 1,31,-1
 400 300 l 1,28,-1
0 400 m 1,32,-1
 0 490 l 1,33,-1
 90 490 l 1,34,-1
 90 400 l 1,35,-1
 0 400 l 1,32,-1
400 400 m 1,36,-1
 400 490 l 1,37,-1
 490 490 l 1,38,-1
 490 400 l 1,39,-1
 400 400 l 1,36,-1
0 500 m 1,40,-1
 0 590 l 1,41,-1
 90 590 l 1,42,-1
 90 500 l 1,43,-1
 0 500 l 1,40,-1
100 500 m 1,44,-1
 100 590 l 1,45,-1
 190 590 l 1,46,-1
 190 500 l 1,47,-1
 100 500 l 1,44,-1
200 500 m 1,48,-1
 200 590 l 1,49,-1
 290 590 l 1,50,-1
 290 500 l 1,51,-1
 200 500 l 1,48,-1
300 500 m 1,52,-1
 300 590 l 1,53,-1
 390 590 l 1,54,-1
 390 500 l 1,55,-1
 300 500 l 1,52,-1
EndSplineSet
Validated: 1
EndChar

StartChar: q
Encoding: 113 113 81
Width: 600
VWidth: 699
Flags: W
LayerCount: 2
Fore
SplineSet
400 0 m 1,0,-1
 400 90 l 1,1,-1
 490 90 l 1,2,-1
 490 0 l 1,3,-1
 400 0 l 1,0,-1
400 100 m 1,4,-1
 400 190 l 1,5,-1
 490 190 l 1,6,-1
 490 100 l 1,7,-1
 400 100 l 1,4,-1
100 200 m 1,8,-1
 100 290 l 1,9,-1
 190 290 l 1,10,-1
 190 200 l 1,11,-1
 100 200 l 1,8,-1
200 200 m 1,12,-1
 200 290 l 1,13,-1
 290 290 l 1,14,-1
 290 200 l 1,15,-1
 200 200 l 1,12,-1
300 200 m 1,16,-1
 300 290 l 1,17,-1
 390 290 l 1,18,-1
 390 200 l 1,19,-1
 300 200 l 1,16,-1
400 200 m 1,20,-1
 400 290 l 1,21,-1
 490 290 l 1,22,-1
 490 200 l 1,23,-1
 400 200 l 1,20,-1
0 300 m 1,24,-1
 0 390 l 1,25,-1
 90 390 l 1,26,-1
 90 300 l 1,27,-1
 0 300 l 1,24,-1
400 300 m 1,28,-1
 400 390 l 1,29,-1
 490 390 l 1,30,-1
 490 300 l 1,31,-1
 400 300 l 1,28,-1
0 400 m 1,32,-1
 0 490 l 1,33,-1
 90 490 l 1,34,-1
 90 400 l 1,35,-1
 0 400 l 1,32,-1
400 400 m 1,36,-1
 400 490 l 1,37,-1
 490 490 l 1,38,-1
 490 400 l 1,39,-1
 400 400 l 1,36,-1
100 500 m 1,40,-1
 100 590 l 1,41,-1
 190 590 l 1,42,-1
 190 500 l 1,43,-1
 100 500 l 1,40,-1
200 500 m 1,44,-1
 200 590 l 1,45,-1
 290 590 l 1,46,-1
 290 500 l 1,47,-1
 200 500 l 1,44,-1
300 500 m 1,48,-1
 300 590 l 1,49,-1
 390 590 l 1,50,-1
 390 500 l 1,51,-1
 300 500 l 1,48,-1
400 500 m 1,52,-1
 400 590 l 1,53,-1
 490 590 l 1,54,-1
 490 500 l 1,55,-1
 400 500 l 1,52,-1
EndSplineSet
Validated: 1
EndChar

StartChar: r
Encoding: 114 114 82
Width: 600
VWidth: 699
Flags: W
LayerCount: 2
Fore
SplineSet
0 100 m 1,0,-1
 0 190 l 1,1,-1
 90 190 l 1,2,-1
 90 100 l 1,3,-1
 0 100 l 1,0,-1
0 200 m 1,4,-1
 0 290 l 1,5,-1
 90 290 l 1,6,-1
 90 200 l 1,7,-1
 0 200 l 1,4,-1
0 300 m 1,8,-1
 0 390 l 1,9,-1
 90 390 l 1,10,-1
 90 300 l 1,11,-1
 0 300 l 1,8,-1
0 400 m 1,12,-1
 0 490 l 1,13,-1
 90 490 l 1,14,-1
 90 400 l 1,15,-1
 0 400 l 1,12,-1
100 400 m 1,16,-1
 100 490 l 1,17,-1
 190 490 l 1,18,-1
 190 400 l 1,19,-1
 100 400 l 1,16,-1
400 400 m 1,20,-1
 400 490 l 1,21,-1
 490 490 l 1,22,-1
 490 400 l 1,23,-1
 400 400 l 1,20,-1
0 500 m 1,24,-1
 0 590 l 1,25,-1
 90 590 l 1,26,-1
 90 500 l 1,27,-1
 0 500 l 1,24,-1
200 500 m 1,28,-1
 200 590 l 1,29,-1
 290 590 l 1,30,-1
 290 500 l 1,31,-1
 200 500 l 1,28,-1
300 500 m 1,32,-1
 300 590 l 1,33,-1
 390 590 l 1,34,-1
 390 500 l 1,35,-1
 300 500 l 1,32,-1
EndSplineSet
Validated: 1
EndChar

StartChar: s
Encoding: 115 115 83
Width: 600
VWidth: 699
Flags: W
LayerCount: 2
Fore
SplineSet
100 100 m 1,0,-1
 100 190 l 1,1,-1
 190 190 l 1,2,-1
 190 100 l 1,3,-1
 100 100 l 1,0,-1
200 100 m 1,4,-1
 200 190 l 1,5,-1
 290 190 l 1,6,-1
 290 100 l 1,7,-1
 200 100 l 1,4,-1
300 100 m 1,8,-1
 300 190 l 1,9,-1
 390 190 l 1,10,-1
 390 100 l 1,11,-1
 300 100 l 1,8,-1
400 200 m 1,12,-1
 400 290 l 1,13,-1
 490 290 l 1,14,-1
 490 200 l 1,15,-1
 400 200 l 1,12,-1
100 300 m 1,16,-1
 100 390 l 1,17,-1
 190 390 l 1,18,-1
 190 300 l 1,19,-1
 100 300 l 1,16,-1
200 300 m 1,20,-1
 200 390 l 1,21,-1
 290 390 l 1,22,-1
 290 300 l 1,23,-1
 200 300 l 1,20,-1
300 300 m 1,24,-1
 300 390 l 1,25,-1
 390 390 l 1,26,-1
 390 300 l 1,27,-1
 300 300 l 1,24,-1
0 400 m 1,28,-1
 0 490 l 1,29,-1
 90 490 l 1,30,-1
 90 400 l 1,31,-1
 0 400 l 1,28,-1
100 500 m 1,32,-1
 100 590 l 1,33,-1
 190 590 l 1,34,-1
 190 500 l 1,35,-1
 100 500 l 1,32,-1
200 500 m 1,36,-1
 200 590 l 1,37,-1
 290 590 l 1,38,-1
 290 500 l 1,39,-1
 200 500 l 1,36,-1
300 500 m 1,40,-1
 300 590 l 1,41,-1
 390 590 l 1,42,-1
 390 500 l 1,43,-1
 300 500 l 1,40,-1
EndSplineSet
Validated: 1
EndChar

StartChar: t
Encoding: 116 116 84
Width: 600
VWidth: 699
Flags: W
LayerCount: 2
Fore
SplineSet
200 100 m 1,0,-1
 200 190 l 1,1,-1
 290 190 l 1,2,-1
 290 100 l 1,3,-1
 200 100 l 1,0,-1
300 100 m 1,4,-1
 300 190 l 1,5,-1
 390 190 l 1,6,-1
 390 100 l 1,7,-1
 300 100 l 1,4,-1
100 200 m 1,8,-1
 100 290 l 1,9,-1
 190 290 l 1,10,-1
 190 200 l 1,11,-1
 100 200 l 1,8,-1
400 200 m 1,12,-1
 400 290 l 1,13,-1
 490 290 l 1,14,-1
 490 200 l 1,15,-1
 400 200 l 1,12,-1
100 300 m 1,16,-1
 100 390 l 1,17,-1
 190 390 l 1,18,-1
 190 300 l 1,19,-1
 100 300 l 1,16,-1
100 400 m 1,20,-1
 100 490 l 1,21,-1
 190 490 l 1,22,-1
 190 400 l 1,23,-1
 100 400 l 1,20,-1
0 500 m 1,24,-1
 0 590 l 1,25,-1
 90 590 l 1,26,-1
 90 500 l 1,27,-1
 0 500 l 1,24,-1
100 500 m 1,28,-1
 100 590 l 1,29,-1
 190 590 l 1,30,-1
 190 500 l 1,31,-1
 100 500 l 1,28,-1
200 500 m 1,32,-1
 200 590 l 1,33,-1
 290 590 l 1,34,-1
 290 500 l 1,35,-1
 200 500 l 1,32,-1
100 600 m 1,36,-1
 100 690 l 1,37,-1
 190 690 l 1,38,-1
 190 600 l 1,39,-1
 100 600 l 1,36,-1
EndSplineSet
Validated: 1
EndChar

StartChar: u
Encoding: 117 117 85
Width: 600
VWidth: 699
Flags: W
LayerCount: 2
Fore
SplineSet
100 100 m 1,0,-1
 100 190 l 1,1,-1
 190 190 l 1,2,-1
 190 100 l 1,3,-1
 100 100 l 1,0,-1
200 100 m 1,4,-1
 200 190 l 1,5,-1
 290 190 l 1,6,-1
 290 100 l 1,7,-1
 200 100 l 1,4,-1
300 100 m 1,8,-1
 300 190 l 1,9,-1
 390 190 l 1,10,-1
 390 100 l 1,11,-1
 300 100 l 1,8,-1
0 200 m 1,12,-1
 0 290 l 1,13,-1
 90 290 l 1,14,-1
 90 200 l 1,15,-1
 0 200 l 1,12,-1
400 200 m 1,16,-1
 400 290 l 1,17,-1
 490 290 l 1,18,-1
 490 200 l 1,19,-1
 400 200 l 1,16,-1
0 300 m 1,20,-1
 0 390 l 1,21,-1
 90 390 l 1,22,-1
 90 300 l 1,23,-1
 0 300 l 1,20,-1
400 300 m 1,24,-1
 400 390 l 1,25,-1
 490 390 l 1,26,-1
 490 300 l 1,27,-1
 400 300 l 1,24,-1
0 400 m 1,28,-1
 0 490 l 1,29,-1
 90 490 l 1,30,-1
 90 400 l 1,31,-1
 0 400 l 1,28,-1
400 400 m 1,32,-1
 400 490 l 1,33,-1
 490 490 l 1,34,-1
 490 400 l 1,35,-1
 400 400 l 1,32,-1
0 500 m 1,36,-1
 0 590 l 1,37,-1
 90 590 l 1,38,-1
 90 500 l 1,39,-1
 0 500 l 1,36,-1
400 500 m 1,40,-1
 400 590 l 1,41,-1
 490 590 l 1,42,-1
 490 500 l 1,43,-1
 400 500 l 1,40,-1
EndSplineSet
Validated: 1
EndChar

StartChar: v
Encoding: 118 118 86
Width: 600
VWidth: 699
Flags: W
LayerCount: 2
Fore
SplineSet
200 100 m 1,0,-1
 200 190 l 1,1,-1
 290 190 l 1,2,-1
 290 100 l 1,3,-1
 200 100 l 1,0,-1
100 200 m 1,4,-1
 100 290 l 1,5,-1
 190 290 l 1,6,-1
 190 200 l 1,7,-1
 100 200 l 1,4,-1
300 200 m 1,8,-1
 300 290 l 1,9,-1
 390 290 l 1,10,-1
 390 200 l 1,11,-1
 300 200 l 1,8,-1
100 300 m 1,12,-1
 100 390 l 1,13,-1
 190 390 l 1,14,-1
 190 300 l 1,15,-1
 100 300 l 1,12,-1
300 300 m 1,16,-1
 300 390 l 1,17,-1
 390 390 l 1,18,-1
 390 300 l 1,19,-1
 300 300 l 1,16,-1
0 400 m 1,20,-1
 0 490 l 1,21,-1
 90 490 l 1,22,-1
 90 400 l 1,23,-1
 0 400 l 1,20,-1
400 400 m 1,24,-1
 400 490 l 1,25,-1
 490 490 l 1,26,-1
 490 400 l 1,27,-1
 400 400 l 1,24,-1
0 500 m 1,28,-1
 0 590 l 1,29,-1
 90 590 l 1,30,-1
 90 500 l 1,31,-1
 0 500 l 1,28,-1
400 500 m 1,32,-1
 400 590 l 1,33,-1
 490 590 l 1,34,-1
 490 500 l 1,35,-1
 400 500 l 1,32,-1
EndSplineSet
Validated: 1
EndChar

StartChar: w
Encoding: 119 119 87
Width: 600
VWidth: 699
Flags: W
LayerCount: 2
Fore
SplineSet
100 100 m 1,0,-1
 100 190 l 1,1,-1
 190 190 l 1,2,-1
 190 100 l 1,3,-1
 100 100 l 1,0,-1
300 100 m 1,4,-1
 300 190 l 1,5,-1
 390 190 l 1,6,-1
 390 100 l 1,7,-1
 300 100 l 1,4,-1
0 200 m 1,8,-1
 0 290 l 1,9,-1
 90 290 l 1,10,-1
 90 200 l 1,11,-1
 0 200 l 1,8,-1
200 200 m 1,12,-1
 200 290 l 1,13,-1
 290 290 l 1,14,-1
 290 200 l 1,15,-1
 200 200 l 1,12,-1
400 200 m 1,16,-1
 400 290 l 1,17,-1
 490 290 l 1,18,-1
 490 200 l 1,19,-1
 400 200 l 1,16,-1
0 300 m 1,20,-1
 0 390 l 1,21,-1
 90 390 l 1,22,-1
 90 300 l 1,23,-1
 0 300 l 1,20,-1
200 300 m 1,24,-1
 200 390 l 1,25,-1
 290 390 l 1,26,-1
 290 300 l 1,27,-1
 200 300 l 1,24,-1
400 300 m 1,28,-1
 400 390 l 1,29,-1
 490 390 l 1,30,-1
 490 300 l 1,31,-1
 400 300 l 1,28,-1
0 400 m 1,32,-1
 0 490 l 1,33,-1
 90 490 l 1,34,-1
 90 400 l 1,35,-1
 0 400 l 1,32,-1
200 400 m 1,36,-1
 200 490 l 1,37,-1
 290 490 l 1,38,-1
 290 400 l 1,39,-1
 200 400 l 1,36,-1
400 400 m 1,40,-1
 400 490 l 1,41,-1
 490 490 l 1,42,-1
 490 400 l 1,43,-1
 400 400 l 1,40,-1
0 500 m 1,44,-1
 0 590 l 1,45,-1
 90 590 l 1,46,-1
 90 500 l 1,47,-1
 0 500 l 1,44,-1
200 500 m 1,48,-1
 200 590 l 1,49,-1
 290 590 l 1,50,-1
 290 500 l 1,51,-1
 200 500 l 1,48,-1
400 500 m 1,52,-1
 400 590 l 1,53,-1
 490 590 l 1,54,-1
 490 500 l 1,55,-1
 400 500 l 1,52,-1
EndSplineSet
Validated: 1
EndChar

StartChar: x
Encoding: 120 120 88
Width: 600
VWidth: 699
Flags: W
LayerCount: 2
Fore
SplineSet
0 100 m 1,0,-1
 0 190 l 1,1,-1
 90 190 l 1,2,-1
 90 100 l 1,3,-1
 0 100 l 1,0,-1
400 100 m 1,4,-1
 400 190 l 1,5,-1
 490 190 l 1,6,-1
 490 100 l 1,7,-1
 400 100 l 1,4,-1
100 200 m 1,8,-1
 100 290 l 1,9,-1
 190 290 l 1,10,-1
 190 200 l 1,11,-1
 100 200 l 1,8,-1
300 200 m 1,12,-1
 300 290 l 1,13,-1
 390 290 l 1,14,-1
 390 200 l 1,15,-1
 300 200 l 1,12,-1
200 300 m 1,16,-1
 200 390 l 1,17,-1
 290 390 l 1,18,-1
 290 300 l 1,19,-1
 200 300 l 1,16,-1
100 400 m 1,20,-1
 100 490 l 1,21,-1
 190 490 l 1,22,-1
 190 400 l 1,23,-1
 100 400 l 1,20,-1
300 400 m 1,24,-1
 300 490 l 1,25,-1
 390 490 l 1,26,-1
 390 400 l 1,27,-1
 300 400 l 1,24,-1
0 500 m 1,28,-1
 0 590 l 1,29,-1
 90 590 l 1,30,-1
 90 500 l 1,31,-1
 0 500 l 1,28,-1
400 500 m 1,32,-1
 400 590 l 1,33,-1
 490 590 l 1,34,-1
 490 500 l 1,35,-1
 400 500 l 1,32,-1
EndSplineSet
Validated: 1
EndChar

StartChar: y
Encoding: 121 121 89
Width: 600
VWidth: 699
Flags: W
LayerCount: 2
Fore
SplineSet
100 0 m 1,0,-1
 100 90 l 1,1,-1
 190 90 l 1,2,-1
 190 0 l 1,3,-1
 100 0 l 1,0,-1
200 0 m 1,4,-1
 200 90 l 1,5,-1
 290 90 l 1,6,-1
 290 0 l 1,7,-1
 200 0 l 1,4,-1
300 0 m 1,8,-1
 300 90 l 1,9,-1
 390 90 l 1,10,-1
 390 0 l 1,11,-1
 300 0 l 1,8,-1
400 100 m 1,12,-1
 400 190 l 1,13,-1
 490 190 l 1,14,-1
 490 100 l 1,15,-1
 400 100 l 1,12,-1
100 200 m 1,16,-1
 100 290 l 1,17,-1
 190 290 l 1,18,-1
 190 200 l 1,19,-1
 100 200 l 1,16,-1
200 200 m 1,20,-1
 200 290 l 1,21,-1
 290 290 l 1,22,-1
 290 200 l 1,23,-1
 200 200 l 1,20,-1
300 200 m 1,24,-1
 300 290 l 1,25,-1
 390 290 l 1,26,-1
 390 200 l 1,27,-1
 300 200 l 1,24,-1
400 200 m 1,28,-1
 400 290 l 1,29,-1
 490 290 l 1,30,-1
 490 200 l 1,31,-1
 400 200 l 1,28,-1
0 300 m 1,32,-1
 0 390 l 1,33,-1
 90 390 l 1,34,-1
 90 300 l 1,35,-1
 0 300 l 1,32,-1
400 300 m 1,36,-1
 400 390 l 1,37,-1
 490 390 l 1,38,-1
 490 300 l 1,39,-1
 400 300 l 1,36,-1
0 400 m 1,40,-1
 0 490 l 1,41,-1
 90 490 l 1,42,-1
 90 400 l 1,43,-1
 0 400 l 1,40,-1
400 400 m 1,44,-1
 400 490 l 1,45,-1
 490 490 l 1,46,-1
 490 400 l 1,47,-1
 400 400 l 1,44,-1
0 500 m 1,48,-1
 0 590 l 1,49,-1
 90 590 l 1,50,-1
 90 500 l 1,51,-1
 0 500 l 1,48,-1
400 500 m 1,52,-1
 400 590 l 1,53,-1
 490 590 l 1,54,-1
 490 500 l 1,55,-1
 400 500 l 1,52,-1
EndSplineSet
Validated: 1
EndChar

StartChar: z
Encoding: 122 122 90
Width: 600
VWidth: 699
Flags: W
LayerCount: 2
Fore
SplineSet
0 100 m 1,0,-1
 0 190 l 1,1,-1
 90 190 l 1,2,-1
 90 100 l 1,3,-1
 0 100 l 1,0,-1
100 100 m 1,4,-1
 100 190 l 1,5,-1
 190 190 l 1,6,-1
 190 100 l 1,7,-1
 100 100 l 1,4,-1
200 100 m 1,8,-1
 200 190 l 1,9,-1
 290 190 l 1,10,-1
 290 100 l 1,11,-1
 200 100 l 1,8,-1
300 100 m 1,12,-1
 300 190 l 1,13,-1
 390 190 l 1,14,-1
 390 100 l 1,15,-1
 300 100 l 1,12,-1
400 100 m 1,16,-1
 400 190 l 1,17,-1
 490 190 l 1,18,-1
 490 100 l 1,19,-1
 400 100 l 1,16,-1
100 200 m 1,20,-1
 100 290 l 1,21,-1
 190 290 l 1,22,-1
 190 200 l 1,23,-1
 100 200 l 1,20,-1
200 300 m 1,24,-1
 200 390 l 1,25,-1
 290 390 l 1,26,-1
 290 300 l 1,27,-1
 200 300 l 1,24,-1
300 400 m 1,28,-1
 300 490 l 1,29,-1
 390 490 l 1,30,-1
 390 400 l 1,31,-1
 300 400 l 1,28,-1
0 500 m 1,32,-1
 0 590 l 1,33,-1
 90 590 l 1,34,-1
 90 500 l 1,35,-1
 0 500 l 1,32,-1
100 500 m 1,36,-1
 100 590 l 1,37,-1
 190 590 l 1,38,-1
 190 500 l 1,39,-1
 100 500 l 1,36,-1
200 500 m 1,40,-1
 200 590 l 1,41,-1
 290 590 l 1,42,-1
 290 500 l 1,43,-1
 200 500 l 1,40,-1
300 500 m 1,44,-1
 300 590 l 1,45,-1
 390 590 l 1,46,-1
 390 500 l 1,47,-1
 300 500 l 1,44,-1
400 500 m 1,48,-1
 400 590 l 1,49,-1
 490 590 l 1,50,-1
 490 500 l 1,51,-1
 400 500 l 1,48,-1
EndSplineSet
Validated: 1
EndChar

StartChar: braceleft
Encoding: 123 123 91
Width: 600
VWidth: 699
Flags: W
LayerCount: 2
Fore
SplineSet
200 0 m 1,0,-1
 200 90 l 1,1,-1
 290 90 l 1,2,-1
 290 0 l 1,3,-1
 200 0 l 1,0,-1
300 0 m 1,4,-1
 300 90 l 1,5,-1
 390 90 l 1,6,-1
 390 0 l 1,7,-1
 300 0 l 1,4,-1
100 100 m 1,8,-1
 100 190 l 1,9,-1
 190 190 l 1,10,-1
 190 100 l 1,11,-1
 100 100 l 1,8,-1
100 200 m 1,12,-1
 100 290 l 1,13,-1
 190 290 l 1,14,-1
 190 200 l 1,15,-1
 100 200 l 1,12,-1
0 300 m 1,16,-1
 0 390 l 1,17,-1
 90 390 l 1,18,-1
 90 300 l 1,19,-1
 0 300 l 1,16,-1
100 400 m 1,20,-1
 100 490 l 1,21,-1
 190 490 l 1,22,-1
 190 400 l 1,23,-1
 100 400 l 1,20,-1
100 500 m 1,24,-1
 100 590 l 1,25,-1
 190 590 l 1,26,-1
 190 500 l 1,27,-1
 100 500 l 1,24,-1
200 600 m 1,28,-1
 200 690 l 1,29,-1
 290 690 l 1,30,-1
 290 600 l 1,31,-1
 200 600 l 1,28,-1
300 600 m 1,32,-1
 300 690 l 1,33,-1
 390 690 l 1,34,-1
 390 600 l 1,35,-1
 300 600 l 1,32,-1
EndSplineSet
Validated: 1
EndChar

StartChar: bar
Encoding: 124 124 92
Width: 600
VWidth: 699
Flags: W
LayerCount: 2
Fore
SplineSet
200 0 m 1,0,-1
 200 90 l 1,1,-1
 290 90 l 1,2,-1
 290 0 l 1,3,-1
 200 0 l 1,0,-1
200 100 m 1,4,-1
 200 190 l 1,5,-1
 290 190 l 1,6,-1
 290 100 l 1,7,-1
 200 100 l 1,4,-1
200 200 m 1,8,-1
 200 290 l 1,9,-1
 290 290 l 1,10,-1
 290 200 l 1,11,-1
 200 200 l 1,8,-1
200 300 m 1,12,-1
 200 390 l 1,13,-1
 290 390 l 1,14,-1
 290 300 l 1,15,-1
 200 300 l 1,12,-1
200 400 m 1,16,-1
 200 490 l 1,17,-1
 290 490 l 1,18,-1
 290 400 l 1,19,-1
 200 400 l 1,16,-1
200 500 m 1,20,-1
 200 590 l 1,21,-1
 290 590 l 1,22,-1
 290 500 l 1,23,-1
 200 500 l 1,20,-1
200 600 m 1,24,-1
 200 690 l 1,25,-1
 290 690 l 1,26,-1
 290 600 l 1,27,-1
 200 600 l 1,24,-1
EndSplineSet
Validated: 1
EndChar

StartChar: braceright
Encoding: 125 125 93
Width: 600
VWidth: 699
Flags: W
LayerCount: 2
Fore
SplineSet
100 0 m 1,0,-1
 100 90 l 1,1,-1
 190 90 l 1,2,-1
 190 0 l 1,3,-1
 100 0 l 1,0,-1
200 0 m 1,4,-1
 200 90 l 1,5,-1
 290 90 l 1,6,-1
 290 0 l 1,7,-1
 200 0 l 1,4,-1
300 100 m 1,8,-1
 300 190 l 1,9,-1
 390 190 l 1,10,-1
 390 100 l 1,11,-1
 300 100 l 1,8,-1
300 200 m 1,12,-1
 300 290 l 1,13,-1
 390 290 l 1,14,-1
 390 200 l 1,15,-1
 300 200 l 1,12,-1
400 300 m 1,16,-1
 400 390 l 1,17,-1
 490 390 l 1,18,-1
 490 300 l 1,19,-1
 400 300 l 1,16,-1
300 400 m 1,20,-1
 300 490 l 1,21,-1
 390 490 l 1,22,-1
 390 400 l 1,23,-1
 300 400 l 1,20,-1
300 500 m 1,24,-1
 300 590 l 1,25,-1
 390 590 l 1,26,-1
 390 500 l 1,27,-1
 300 500 l 1,24,-1
100 600 m 1,28,-1
 100 690 l 1,29,-1
 190 690 l 1,30,-1
 190 600 l 1,31,-1
 100 600 l 1,28,-1
200 600 m 1,32,-1
 200 690 l 1,33,-1
 290 690 l 1,34,-1
 290 600 l 1,35,-1
 200 600 l 1,32,-1
EndSplineSet
Validated: 1
EndChar

StartChar: asciitilde
Encoding: 126 126 94
Width: 600
VWidth: 699
Flags: W
LayerCount: 2
Fore
SplineSet
300 100 m 1,0,-1
 300 190 l 1,1,-1
 390 190 l 1,2,-1
 390 100 l 1,3,-1
 300 100 l 1,0,-1
0 200 m 1,4,-1
 0 290 l 1,5,-1
 90 290 l 1,6,-1
 90 200 l 1,7,-1
 0 200 l 1,4,-1
200 200 m 1,8,-1
 200 290 l 1,9,-1
 290 290 l 1,10,-1
 290 200 l 1,11,-1
 200 200 l 1,8,-1
400 200 m 1,12,-1
 400 290 l 1,13,-1
 490 290 l 1,14,-1
 490 200 l 1,15,-1
 400 200 l 1,12,-1
100 300 m 1,16,-1
 100 390 l 1,17,-1
 190 390 l 1,18,-1
 190 300 l 1,19,-1
 100 300 l 1,16,-1
EndSplineSet
Validated: 1
EndChar
